<svg width="20" height="24" viewBox="0 0 20 24" fill="none" xmlns="http://www.w3.org/2000/svg">
<path d="M14.8711 3.40621C14.7313 3.40539 14.5935 3.43878 14.4695 3.50347C14.3456 3.56815 14.2394 3.66216 14.1602 3.7773C13.8828 4.17183 13.4844 4.75386 13.0391 5.44136C11.8867 3.57417 10.75 1.9023 9.97656 0.789018C9.86652 0.632184 9.72033 0.504161 9.55034 0.415777C9.38036 0.327394 9.19159 0.28125 9 0.28125C8.80841 0.28125 8.61964 0.327394 8.44966 0.415777C8.27968 0.504161 8.13348 0.632184 8.02344 0.789018C5.80859 3.95699 0.660156 11.7187 0.660156 15.3789C0.660083 17.4365 1.42075 19.4215 2.79588 20.9522C4.171 22.4828 6.06349 23.451 8.10938 23.6706C10.1553 23.8902 12.2101 23.3456 13.8787 22.1416C15.5473 20.9376 16.7119 19.1592 17.1484 17.1484C18.0021 16.7237 18.7206 16.0698 19.2235 15.2598C19.7265 14.4499 19.994 13.5159 19.9961 12.5625C19.9961 10.332 16.9102 5.67574 15.582 3.7773C15.5022 3.66278 15.3958 3.56924 15.272 3.50463C15.1483 3.44002 15.0107 3.40626 14.8711 3.40621ZM9 22.9375C6.996 22.9353 5.07471 22.1382 3.65767 20.7212C2.24062 19.3042 1.44358 17.3829 1.44141 15.3789C1.44141 11.8437 6.96875 3.66011 8.66406 1.23824C8.70226 1.18477 8.75268 1.1412 8.8111 1.11114C8.86953 1.08108 8.93429 1.0654 9 1.0654C9.06571 1.0654 9.13047 1.08108 9.1889 1.11114C9.24732 1.1412 9.29774 1.18477 9.33594 1.23824C11.0312 3.66011 16.5586 11.8437 16.5586 15.3789C16.5564 17.3829 15.7594 19.3042 14.3423 20.7212C12.9253 22.1382 11.004 22.9353 9 22.9375Z" fill="#7367F0"/>
<path d="M12.2125 8.64062C12.2467 8.70059 12.2961 8.75044 12.3558 8.78509C12.4155 8.81975 12.4833 8.83796 12.5523 8.83788C12.6201 8.838 12.6867 8.82021 12.7453 8.78632C12.8352 8.73505 12.9011 8.65017 12.9285 8.55034C12.9559 8.45051 12.9426 8.34389 12.8914 8.2539C12.4254 7.43593 11.9082 6.57421 11.3551 5.6914C11.3001 5.60334 11.2123 5.54074 11.1112 5.51737C11.01 5.494 10.9037 5.51178 10.8156 5.56679C10.7276 5.6218 10.665 5.70954 10.6416 5.81071C10.6182 5.91188 10.636 6.01818 10.691 6.10624C11.2406 6.98046 11.752 7.8332 12.2125 8.64062ZM7.97656 12.0508C7.55564 11.7873 7.06677 11.6528 6.57031 11.6641C6.07506 11.6527 5.58741 11.7872 5.16797 12.0508C4.92027 12.1978 4.64403 12.2902 4.35772 12.3219C4.07142 12.3536 3.78165 12.3237 3.50781 12.2344C3.46062 12.2154 3.41015 12.2058 3.35927 12.2063C3.3084 12.2068 3.25813 12.2174 3.21133 12.2373C3.16452 12.2573 3.12212 12.2863 3.08653 12.3226C3.05094 12.359 3.02286 12.402 3.00391 12.4492C2.5682 13.3704 2.30348 14.3631 2.22266 15.3789C2.22266 17.1764 2.9367 18.9002 4.20769 20.1712C5.47869 21.4422 7.20254 22.1562 9 22.1562C10.7975 22.1562 12.5213 21.4422 13.7923 20.1712C15.0633 18.9002 15.7773 17.1764 15.7773 15.3789C15.6948 14.3617 15.4288 13.3678 14.9922 12.4453C14.9532 12.3515 14.8791 12.2766 14.7858 12.2365C14.6924 12.1964 14.5871 12.1942 14.4922 12.2305C14.2177 12.3226 13.9264 12.3542 13.6385 12.3232C13.3506 12.2922 13.0728 12.1992 12.8242 12.0508C12.3995 11.7977 11.9143 11.664 11.4199 11.664C10.9255 11.664 10.4403 11.7977 10.0156 12.0508C9.70826 12.2373 9.35562 12.3359 8.99609 12.3359C8.63657 12.3359 8.28393 12.2373 7.97656 12.0508ZM7.4375 14.3437C7.66928 14.3437 7.89584 14.4125 8.08856 14.5412C8.28127 14.67 8.43148 14.853 8.52017 15.0672C8.60887 15.2813 8.63207 15.5169 8.58686 15.7442C8.54164 15.9716 8.43003 16.1804 8.26614 16.3443C8.10225 16.5081 7.89344 16.6198 7.66612 16.665C7.4388 16.7102 7.20318 16.687 6.98904 16.5983C6.77491 16.5096 6.59189 16.3594 6.46312 16.1667C6.33435 15.974 6.26562 15.7474 6.26562 15.5156C6.26655 15.2051 6.39032 14.9076 6.60988 14.688C6.82945 14.4684 7.12698 14.3447 7.4375 14.3437ZM10.5625 19.4219C10.3307 19.4219 10.1042 19.3531 9.91144 19.2244C9.71873 19.0956 9.56853 18.9126 9.47983 18.6984C9.39113 18.4843 9.36793 18.2487 9.41314 18.0214C9.45836 17.7941 9.56997 17.5852 9.73386 17.4214C9.89775 17.2575 10.1066 17.1459 10.3339 17.1006C10.5612 17.0554 10.7968 17.0786 11.011 17.1673C11.2251 17.256 11.4081 17.4062 11.5369 17.5989C11.6656 17.7916 11.7344 18.0182 11.7344 18.25C11.7334 18.5605 11.6097 18.858 11.3901 19.0776C11.1705 19.2972 10.873 19.4209 10.5625 19.4219ZM11.0781 14.4453C11.1161 14.4104 11.1605 14.3834 11.209 14.3657C11.2574 14.348 11.3088 14.34 11.3603 14.3421C11.4118 14.3443 11.4624 14.3566 11.5092 14.3783C11.5559 14.4001 11.5979 14.4308 11.6328 14.4687C11.6677 14.5067 11.6948 14.5512 11.7125 14.5996C11.7302 14.648 11.7382 14.6994 11.736 14.7509C11.7338 14.8024 11.7215 14.853 11.6998 14.8998C11.6781 14.9465 11.6473 14.9885 11.6094 15.0234L6.92188 19.3203C6.84521 19.3908 6.7437 19.4279 6.63968 19.4235C6.53565 19.4191 6.43764 19.3735 6.36719 19.2969C6.29674 19.2202 6.25963 19.1187 6.26403 19.0147C6.26842 18.9106 6.31396 18.8126 6.39062 18.7422L11.0781 14.4453Z" fill="#7367F0"/>
<path d="M7.4375 15.9062C7.65324 15.9062 7.82812 15.7314 7.82812 15.5156C7.82812 15.2999 7.65324 15.125 7.4375 15.125C7.22176 15.125 7.04688 15.2999 7.04688 15.5156C7.04688 15.7314 7.22176 15.9062 7.4375 15.9062Z" fill="#7367F0"/>
<path d="M10.5625 18.6406C10.7782 18.6406 10.9531 18.4657 10.9531 18.25C10.9531 18.0343 10.7782 17.8594 10.5625 17.8594C10.3468 17.8594 10.1719 18.0343 10.1719 18.25C10.1719 18.4657 10.3468 18.6406 10.5625 18.6406Z" fill="#7367F0"/>
<path d="M13.2969 10.0469C13.5126 10.0469 13.6875 9.87199 13.6875 9.65625C13.6875 9.44051 13.5126 9.26562 13.2969 9.26562C13.0811 9.26562 12.9062 9.44051 12.9062 9.65625C12.9062 9.87199 13.0811 10.0469 13.2969 10.0469Z" fill="#7367F0"/>
</svg>
