<svg width="13" height="11" viewBox="0 0 13 11" fill="none" xmlns="http://www.w3.org/2000/svg">
<path fill-rule="evenodd" clip-rule="evenodd" d="M6.00422 0.513078C3.79993 0.70113 1.85292 2.02768 0.894667 3.99433C0.670009 4.45542 0.561652 4.74856 0.44381 5.21417C0.0685078 6.69684 0.240833 8.22422 0.93847 9.5985C1.12338 9.96278 1.20901 10.0481 1.39258 10.0508C1.50047 10.0525 1.55752 10.0257 2.05858 9.73862C2.35999 9.56591 2.63711 9.39599 2.67436 9.36098C2.85106 9.19511 2.80887 8.8932 2.59343 8.78185C2.43878 8.70192 2.34117 8.72896 1.93387 8.96446L1.55554 9.18324L1.4651 8.99499C1.23915 8.52477 1.00557 7.61587 1.00557 7.20687V7.10898L1.45166 7.10888C1.85368 7.10881 1.90562 7.104 1.97741 7.06025C2.22084 6.91191 2.21043 6.56481 1.95854 6.4317C1.86084 6.38005 1.82337 6.37612 1.42949 6.37612H1.00557V6.26925C1.00557 6.10325 1.09862 5.59553 1.19033 5.26108C1.27097 4.96708 1.50321 4.3611 1.5452 4.33516C1.55662 4.32812 1.73087 4.4168 1.93243 4.53222C2.13399 4.64767 2.33716 4.74832 2.38395 4.75592C2.59556 4.79024 2.81276 4.56833 2.78318 4.34801C2.76184 4.18895 2.69025 4.12207 2.30114 3.89747C2.09943 3.78104 1.93441 3.67722 1.93441 3.66679C1.93441 3.63418 2.19302 3.29802 2.39114 3.07313C2.64605 2.78372 3.0304 2.43972 3.31211 2.24881C3.40739 2.18424 3.43531 2.17491 3.45268 2.20185C3.46461 2.22035 3.55843 2.38145 3.66116 2.5599C3.84845 2.8852 3.93901 2.99183 4.05211 3.02021C4.31196 3.08539 4.56862 2.83966 4.50101 2.59046C4.48813 2.543 4.38901 2.35131 4.28075 2.16445C4.17249 1.97762 4.08726 1.81466 4.09139 1.8023C4.10092 1.77374 4.4081 1.63807 4.68187 1.54147C5.08379 1.39972 5.54479 1.29768 5.97367 1.25556L6.13866 1.23937L6.13871 1.67635C6.13874 2.04361 6.14556 2.12688 6.18149 2.19834C6.31294 2.45984 6.69768 2.45984 6.82914 2.19834C6.86502 2.12696 6.87189 2.04378 6.87191 1.67972L6.87196 1.24611H6.92759C7.03084 1.24611 7.38984 1.29694 7.6387 1.3468C8.05771 1.43074 8.9252 1.74157 8.9252 1.80777C8.9252 1.81854 8.83696 1.97965 8.72912 2.16577C8.62127 2.35189 8.5225 2.543 8.50961 2.59046C8.442 2.83966 8.69866 3.08539 8.95852 3.02021C9.07316 2.99146 9.16208 2.88449 9.36618 2.52978C9.47864 2.33433 9.57749 2.1744 9.58585 2.1744C9.61418 2.1744 9.9582 2.44133 10.1842 2.63871C10.5128 2.92563 11.0927 3.60279 11.0695 3.67241C11.0653 3.68519 10.9028 3.78722 10.7085 3.89916C10.5118 4.01243 10.3291 4.13582 10.2965 4.17742C10.2098 4.28784 10.1997 4.45874 10.2735 4.56615C10.3645 4.69866 10.4531 4.75162 10.5838 4.75162C10.684 4.75162 10.7472 4.72382 11.0716 4.53684C11.2765 4.4187 11.4536 4.3279 11.4652 4.33504C11.5074 4.36108 11.7395 4.96632 11.8203 5.26108C11.912 5.59553 12.0051 6.10325 12.0051 6.26925V6.37612H11.5811C11.1873 6.37612 11.1498 6.38005 11.0521 6.4317C10.8002 6.56481 10.7898 6.91191 11.0332 7.06025C11.105 7.104 11.1569 7.10881 11.559 7.10888L12.0051 7.10898V7.21698C12.0051 7.40112 11.8903 8.01106 11.7993 8.31028C11.7062 8.61691 11.597 8.90512 11.5096 9.07563L11.4551 9.18182L11.0767 8.96377C10.6695 8.72904 10.5716 8.70205 10.4172 8.78185C10.2018 8.89318 10.1595 9.1957 10.3363 9.36059C10.3735 9.39535 10.6509 9.56528 10.9527 9.73821C11.45 10.0231 11.5123 10.0525 11.6169 10.0509C11.78 10.0484 11.8769 9.9665 12.011 9.71749C12.3658 9.05909 12.6048 8.3138 12.7183 7.51205C12.7357 7.38918 12.7497 7.05516 12.75 6.75477C12.7507 6.12314 12.7093 5.77474 12.5671 5.21417C12.4476 4.74348 12.3393 4.45119 12.1138 3.99135C11.2082 2.14445 9.44452 0.860575 7.40126 0.56086C7.03055 0.506482 6.35313 0.483324 6.00422 0.513078Z" fill="white"/>
<path fill-rule="evenodd" clip-rule="evenodd" d="M4.01381 3.92703C3.84151 4.01353 3.77165 4.21956 3.852 4.40412C3.87101 4.4478 4.2769 4.87205 4.76527 5.35869L5.64433 6.23466L5.5963 6.36027C5.45269 6.73586 5.54663 7.20596 5.82643 7.51193C6.13847 7.85315 6.60348 7.97866 7.03322 7.83769L7.19425 7.78485L7.41872 8.006C7.67576 8.2593 7.71089 8.28141 7.85542 8.28129C8.05126 8.28112 8.2173 8.12079 8.21747 7.93166C8.21762 7.80082 8.19235 7.76225 7.93166 7.4952C7.71732 7.27563 7.70289 7.2547 7.73049 7.2032C7.78339 7.10441 7.82589 6.90473 7.82619 6.75362C7.82775 5.96098 7.04947 5.4077 6.29523 5.6652L6.15211 5.71406L5.25993 4.82471C4.76923 4.33557 4.33678 3.92385 4.29894 3.90981C4.19968 3.87292 4.11088 3.87827 4.01381 3.92703ZM6.8166 6.35309C7.04823 6.44054 7.15664 6.71773 7.04486 6.93673C6.96791 7.08743 6.86586 7.14545 6.67764 7.14545C6.48943 7.14545 6.38738 7.08743 6.31043 6.93673C6.14148 6.60573 6.47308 6.22337 6.8166 6.35309ZM5.31471 9.57598C5.07128 9.72431 5.08169 10.0714 5.33358 10.2045L5.43873 10.2601H6.67764H7.91655L8.02171 10.2045C8.2736 10.0714 8.28401 9.72431 8.04058 9.57598C7.96375 9.52915 7.91511 9.52742 6.67764 9.52742C5.44018 9.52742 5.39153 9.52915 5.31471 9.57598Z" fill="white"/>
</svg>
