<svg width="20" height="18" viewBox="0 0 20 18" fill="none" xmlns="http://www.w3.org/2000/svg">
<path fill-rule="evenodd" clip-rule="evenodd" d="M1.53155 0.852911C1.44933 0.943991 1.43864 1.03605 1.43864 1.65444C1.43864 2.27284 1.44933 2.3649 1.53155 2.45598C1.58266 2.51259 1.67591 2.55889 1.73883 2.55889H1.8532V3.62232V4.6857L1.63031 4.80426C1.33471 4.96144 1.05067 5.2931 0.926308 5.62628C0.828766 5.88764 0.825791 5.9729 0.839349 8.1024C0.853298 10.2943 0.854078 10.3092 0.966153 10.5372C1.12476 10.86 1.42548 11.1521 1.75478 11.3031L2.03623 11.4322L1.8966 11.8967C1.72615 12.4637 1.72493 12.5059 1.87539 12.6566L1.99507 12.7767H3.23009C4.26111 12.7767 4.48277 12.7643 4.57192 12.7017C4.66669 12.6351 4.77866 12.3355 5.0055 11.5419C5.02871 11.4608 5.25023 11.4568 9.00997 11.4686L12.9899 11.4811L13.105 11.8722C13.3038 12.5473 13.3647 12.6819 13.4935 12.731C13.5594 12.7561 14.1466 12.7767 14.7984 12.7767C15.9236 12.7767 15.9901 12.7715 16.1121 12.6753C16.2745 12.5473 16.2755 12.422 16.1187 11.8967C16.0516 11.6721 15.9967 11.4732 15.9967 11.4547C15.9967 11.4362 16.0937 11.384 16.2121 11.3386C16.539 11.2134 16.848 10.9117 17.0313 10.5386L17.1916 10.2124L17.2084 9.28942L17.2253 8.36645L17.5829 8.38454C17.8933 8.40028 17.9643 8.42204 18.1217 8.54978C18.4924 8.85055 18.484 8.79305 18.484 11.0306C18.484 13.1501 18.4831 13.1596 18.2466 13.4294C18.0155 13.6932 18.2974 13.6791 12.7291 13.7056C7.83079 13.7288 7.57557 13.7344 7.41307 13.821C7.17399 13.9485 6.93516 14.1845 6.8125 14.4144C6.73252 14.5643 6.70813 14.6956 6.70813 14.9767C6.70813 15.3932 6.80382 15.628 7.07957 15.8879C7.43043 16.2185 7.44291 16.2209 8.98095 16.2478C10.2668 16.2703 10.3863 16.2797 10.4807 16.3654C10.6004 16.4741 10.617 16.7204 10.5141 16.8618C10.4504 16.9492 10.3623 16.9586 9.38794 16.9811C8.34966 17.0051 8.32923 17.0076 8.23778 17.121C8.11751 17.27 8.11927 17.4446 8.24217 17.5678C8.33381 17.6596 8.40472 17.6656 9.41511 17.6656C10.5795 17.6656 10.6464 17.653 10.9412 17.3789C11.1503 17.1844 11.266 16.9211 11.266 16.6393C11.266 16.2236 11.095 15.9221 10.7303 15.6947C10.5668 15.5928 10.4924 15.5867 9.13307 15.5633L7.70735 15.5389L7.54802 15.3791C7.41092 15.2415 7.38868 15.1854 7.38868 14.9767C7.38868 14.7679 7.41092 14.7118 7.54811 14.5743L7.70754 14.4144L12.8447 14.39L17.9818 14.3656L18.3165 14.1944C18.5601 14.0698 18.7011 13.9569 18.8353 13.7789C19.1668 13.339 19.1668 13.3385 19.1668 11.0342C19.1668 9.0375 19.1633 8.95742 19.0618 8.6856C18.8367 8.08236 18.2451 7.69222 17.5555 7.69222H17.216V6.89582C17.216 5.98038 17.152 5.64397 16.9094 5.28425C16.6406 4.88566 16.2408 4.65593 15.6974 4.58788L15.435 4.55502L15.4263 4.23998C15.3898 2.92399 14.3464 1.91517 13.0217 1.91517C11.6967 1.91517 10.6573 2.91734 10.6176 4.23333L10.6076 4.56333H8.57142H6.53519V3.56111V2.55889H6.65434C6.88054 2.55889 6.92536 2.40934 6.92536 1.65444C6.92536 1.11168 6.90941 0.94448 6.84942 0.85868L6.77354 0.75H4.19897C1.64358 0.75 1.62378 0.750782 1.53155 0.852911ZM6.24257 1.65444V1.87444H4.16981H2.09705V1.65444V1.43444H4.16981H6.24257V1.65444ZM5.84123 3.57333L5.8544 4.56333H4.19522H2.53599V3.56048V2.55757L4.182 2.57048L5.82802 2.58333L5.84123 3.57333ZM13.6134 2.68341C14.375 2.95279 14.8603 3.77715 14.7299 4.58025C14.5421 5.73701 13.2846 6.3888 12.2523 5.86446C11.8951 5.68299 11.6943 5.48963 11.5171 5.1564C11.137 4.4414 11.2456 3.65068 11.8003 3.09456C12.2792 2.61457 12.9736 2.4571 13.6134 2.68341ZM10.9178 5.51227C11.3438 6.26882 12.1575 6.73258 13.046 6.7252C13.919 6.71796 14.6919 6.26476 15.1249 5.50616C15.2585 5.27198 15.2882 5.24778 15.4423 5.24778C15.9611 5.24778 16.3708 5.52429 16.4767 5.94611C16.55 6.23788 16.5548 9.83664 16.4823 10.0985C16.4149 10.3417 16.2149 10.5708 15.9743 10.6803C15.7862 10.766 15.47 10.7701 9.00875 10.7711C3.02643 10.7721 2.21937 10.7635 2.06067 10.697C1.82901 10.6 1.71825 10.4971 1.60417 10.2731C1.51785 10.1036 1.5118 9.95671 1.5118 8.03484C1.5118 5.79294 1.51219 5.78947 1.79292 5.52503C2.09105 5.24416 1.95147 5.25228 6.54275 5.24993L10.7689 5.24778L10.9178 5.51227ZM4.29174 11.5135C4.29174 11.5447 4.25482 11.6877 4.20966 11.8313L4.12762 12.0922H3.35617C2.82934 12.0922 2.58476 12.0752 2.58476 12.0386C2.58476 12.0092 2.61924 11.8662 2.66138 11.7209L2.738 11.4567H3.51487C4.07251 11.4567 4.29174 11.4727 4.29174 11.5135ZM15.3473 11.6957C15.3814 11.8138 15.4224 11.9518 15.4384 12.0025C15.4663 12.0906 15.4324 12.0941 14.6763 12.0812L13.8849 12.0678L13.8267 11.8967C13.7946 11.8026 13.7535 11.6645 13.7352 11.5899L13.702 11.4542L14.4937 11.4677L15.2854 11.4811L15.3473 11.6957Z" fill="#162921"/>
<path fill-rule="evenodd" clip-rule="evenodd" d="M2.78969 6.09624C2.51979 6.26094 2.37031 6.53013 2.37002 6.85226C2.36973 7.1385 2.41557 7.25676 2.60739 7.46449C2.87197 7.75108 2.76033 7.74125 5.75886 7.74125C8.43155 7.74125 8.52489 7.73812 8.71188 7.6425C9.00095 7.4947 9.17208 7.2046 9.16999 6.86604C9.16799 6.53746 9.06864 6.33007 8.82361 6.14268L8.64448 6.0057L5.81197 5.99308L2.97941 5.98047L2.78969 6.09624ZM8.48495 6.7757C8.52421 6.83808 8.52421 6.88442 8.48495 6.94681C8.43472 7.02659 8.25061 7.03236 5.75403 7.03236H3.07695L3.0609 6.91879C3.02306 6.65122 2.88182 6.66384 5.76486 6.67748C8.24314 6.68926 8.43491 6.69615 8.48495 6.7757ZM3.0056 8.38531C2.61246 8.49839 2.36973 8.82575 2.36987 9.24263C2.36992 9.53523 2.48595 9.76838 2.72785 9.96222L2.91523 10.1124L5.69726 10.1258C8.4037 10.1388 8.48475 10.1365 8.68286 10.0403C9.06332 9.85575 9.26119 9.42132 9.15023 9.01412C9.07571 8.74064 8.79899 8.45503 8.53816 8.38243C8.28679 8.31247 3.24975 8.31511 3.0056 8.38531ZM8.44193 9.11034C8.51499 9.1913 8.52075 9.22953 8.4749 9.33034L8.41945 9.45236H5.79451C3.81798 9.45236 3.15518 9.43789 3.11109 9.3937C3.02486 9.30726 3.03993 9.12236 3.13791 9.06516C3.19288 9.03309 4.13703 9.01481 5.78836 9.01383C8.29421 9.01241 8.35551 9.01461 8.44193 9.11034Z" fill="#7367F0"/>
<path d="M12.6801 3.6156C12.6801 3.12544 12.6876 3.08501 12.7999 2.97256C12.8657 2.90656 12.9654 2.85254 13.0215 2.85254C13.0776 2.85254 13.1773 2.90656 13.2432 2.97256C13.3587 3.08828 13.3629 3.11629 13.3629 3.76344V4.43434L13.0058 4.7923C12.6177 5.18131 12.4715 5.2345 12.29 5.05254C12.1194 4.88153 12.1628 4.68695 12.4363 4.39713L12.6801 4.13866V3.6156Z" fill="#7367F0"/>
</svg>
