<svg width="36" height="36" viewBox="0 0 36 36" fill="none" xmlns="http://www.w3.org/2000/svg">
<rect width="36" height="36" rx="18" fill="#FF7B61"/>
<path d="M18.0053 16.5015C18.5024 16.5015 18.9053 16.9044 18.9053 17.4015V23.4015C18.9053 23.8985 18.5024 24.3015 18.0053 24.3015C17.5083 24.3015 17.1053 23.8985 17.1053 23.4015V17.4015C17.1053 16.9044 17.5083 16.5015 18.0053 16.5015Z" fill="white"/>
<path d="M18.0053 14.4015C18.6681 14.4015 19.2053 13.8642 19.2053 13.2015C19.2053 12.5387 18.6681 12.0015 18.0053 12.0015C17.3426 12.0015 16.8053 12.5387 16.8053 13.2015C16.8053 13.8642 17.3426 14.4015 18.0053 14.4015Z" fill="white"/>
<path fill-rule="evenodd" clip-rule="evenodd" d="M7.50535 18.0015C7.50535 12.2025 12.2064 7.50146 18.0053 7.50146C23.8043 7.50146 28.5054 12.2025 28.5054 18.0015C28.5054 23.8005 23.8043 28.5015 18.0053 28.5015C12.2064 28.5015 7.50535 23.8005 7.50535 18.0015ZM18.0053 9.30147C13.2005 9.30147 9.30535 13.1966 9.30535 18.0015C9.30535 22.8063 13.2005 26.7015 18.0053 26.7015C22.8102 26.7015 26.7053 22.8063 26.7053 18.0015C26.7053 13.1966 22.8102 9.30147 18.0053 9.30147Z" fill="white"/>
</svg>
