<?xml version="1.0" encoding="UTF-8"?><svg id="Layer_2" xmlns="http://www.w3.org/2000/svg" viewBox="0 0 43 43"><defs><style>.cls-1,.cls-2{fill-rule:evenodd;}.cls-1,.cls-3{fill:#7367F0;}.cls-2{fill:#162921;}.cls-3{isolation:isolate;opacity:.1;}</style></defs><g id="Layer_1-2"><g><circle class="cls-3" cx="21.5" cy="21.5" r="21.5"/><g><path class="cls-1" d="M22.27,17.06c0-.17,.09-.3,.25-.38,.24-.11,1,.02,1.46,.26,.84,.43,1.4,1.21,1.53,2.17,.05,.32,0,.49-.15,.61-.24,.19-.61,.03-.65-.3-.1-.67-.24-1.01-.59-1.36-.34-.34-.86-.58-1.28-.58-.36,0-.58-.16-.58-.43Zm-1.65,5.85c0-1,.71-1.79,1.71-1.94,.4-.06,.95,.06,1.28,.27,.62,.39,.94,.97,.94,1.69,0,1.12-.84,1.96-1.95,1.96-1.12,0-1.97-.86-1.96-1.98Zm-3.16-1.31c.26-.26,.6-.46,.92-.54,.08-.02,.33-.03,.54-.03,.45,.01,.7,.09,1.08,.34,.29,.19,.43,.39,.43,.59s-.17,.38-.37,.38c-.17,0-.26-.04-.49-.24-.44-.38-1.18-.33-1.57,.11-.63,.72-.2,1.84,.74,1.92,.32,.03,.6-.06,.88-.3,.2-.17,.26-.2,.4-.2,.24,0,.4,.16,.4,.41,0,.17-.02,.2-.19,.37-.22,.21-.59,.42-.88,.5-.44,.12-1.04,.05-1.45-.17-.27-.14-.68-.57-.81-.83-.4-.81-.26-1.68,.36-2.31Zm6.15,.84c-.13-.25-.26-.38-.49-.5-.16-.09-.27-.12-.5-.13-.27-.01-.32,0-.54,.11-.58,.29-.8,.95-.52,1.52,.13,.25,.26,.39,.52,.53,.23,.12,.76,.12,.99,0,.21-.11,.42-.32,.53-.53,.12-.24,.13-.76,0-.99Zm1.47,.87c.22-.16,.43-.26,.67-.3,.7-.12,1.32,.43,1.24,1.11-.03,.25-.24,.69-.47,.97l-.18,.23h.3c.34,0,.42,.03,.51,.19,.09,.18,.07,.33-.05,.48l-.11,.13-1.97,.02-.13-.14c-.13-.13-.17-.31-.11-.47,.01-.03,.19-.18,.38-.33,.44-.33,.87-.77,.97-1.01,.07-.16,.07-.18,.01-.27-.06-.09-.09-.1-.22-.08-.09,.01-.24,.08-.34,.15-.31,.22-.62,.15-.71-.16-.06-.21,0-.36,.23-.53Z"/><path class="cls-2" d="M21.27,14.49c-.74,.16-1.38,.46-1.96,.93-.48,.38-.96,.98-1.21,1.5l-.08,.17h-.63c-.73,0-1.06,.07-1.61,.33-1.06,.5-1.77,1.35-2.11,2.54-.05,.16-.07,.4-.07,.88v.66l-.3,.17c-.16,.09-.44,.31-.61,.47-1.39,1.31-1.56,3.39-.4,4.94,.48,.64,1.16,1.11,1.98,1.37l.34,.11h6.1c6.68,.02,6.45,.03,7.19-.2,2.46-.78,4.02-3.34,3.52-5.79-.43-2.13-2.19-3.82-4.27-4.09-.44-.06-.43-.06-.45-.16-.2-1.05-.55-1.77-1.18-2.45-.41-.44-.83-.75-1.37-1.01-.65-.31-1.06-.41-1.85-.43-.54-.01-.7,0-1.01,.07Zm4.58,4.03c-.19-1.64-1.42-2.94-3.05-3.23-.77-.14-1.52-.02-2.25,.33-.83,.41-1.44,1.05-1.8,1.93-.21,.49-.25,.51-.94,.39-.32-.05-.44-.06-.76-.02-1.05,.12-1.94,.75-2.37,1.68-.26,.56-.35,1.2-.23,1.74,.12,.55,.08,.65-.32,.83-1.13,.51-1.78,1.49-1.77,2.67,0,1.31,.86,2.42,2.19,2.83,.2,.06,.68,.07,6.16,.08,5.35,.01,5.98,0,6.33-.05,2.1-.35,3.64-2.13,3.63-4.23,0-1.59-.96-3.08-2.41-3.78-.53-.26-.99-.38-1.6-.43-.29-.03-.54-.07-.59-.1-.11-.07-.15-.2-.2-.64Z"/></g></g></g></svg>