<svg width="24" height="24" viewBox="0 0 24 24" fill="none" xmlns="http://www.w3.org/2000/svg">
<circle cx="12" cy="12" r="12" fill="#EAFBF3"/>
<path fill-rule="evenodd" clip-rule="evenodd" d="M14.4001 6.72916C13.9886 6.83049 13.6452 7.16793 13.5023 7.61139C13.4649 7.72756 13.4611 7.88077 13.4538 9.60746C13.4495 10.6361 13.4422 11.4777 13.4377 11.4777C13.4332 11.4777 13.3452 11.4575 13.2421 11.4328C12.9644 11.3663 12.5748 11.333 12.28 11.3504C11.7834 11.3798 11.48 11.4586 10.9887 11.6855C10.481 11.9201 10.2247 11.981 9.74537 11.981C9.26601 11.981 9.00973 11.9201 8.50203 11.6855C7.99302 11.4504 7.63795 11.362 7.17574 11.3554C6.90135 11.3516 6.85675 11.3678 6.75273 11.5094C6.6808 11.6073 6.68836 11.7891 6.7688 11.8963C6.84507 11.9979 6.90562 12.0157 7.28125 12.0474C7.63104 12.0769 7.85221 12.1403 8.27435 12.3322C8.84353 12.591 9.17853 12.6673 9.74537 12.6673C10.3122 12.6673 10.6472 12.591 11.2164 12.3322C11.394 12.2515 11.6239 12.1605 11.7273 12.1301C12.2004 11.9908 12.8076 12.0008 13.2741 12.1556L13.4485 12.2135V13.1474V14.0812L13.2862 14.0388C13.0049 13.9652 12.728 13.9415 12.3154 13.9554C11.7665 13.974 11.5329 14.0328 10.9436 14.3011C10.7626 14.3835 10.5411 14.4716 10.4512 14.4969C10.101 14.5955 9.56494 14.6092 9.17753 14.5294C8.98758 14.4903 8.82804 14.4312 8.47839 14.2704C7.99593 14.0485 7.69913 13.9727 7.24658 13.956C6.92134 13.944 6.84536 13.9651 6.75293 14.0931C6.68845 14.1824 6.68834 14.3782 6.75273 14.4659C6.85202 14.601 6.89955 14.6195 7.19582 14.6377C7.63263 14.6645 7.82229 14.7175 8.32225 14.9523C8.80668 15.1799 9.17495 15.2603 9.73411 15.2608C10.3269 15.2612 10.6251 15.1955 11.1957 14.9389C11.3514 14.8688 11.5395 14.7883 11.6138 14.7599C12.0665 14.5866 12.9193 14.5977 13.3721 14.7828C13.4551 14.8167 13.4618 14.8269 13.497 14.9752C13.5572 15.2288 13.6431 15.3827 13.8307 15.5734C13.9483 15.693 14.0448 15.7672 14.1464 15.8162C14.425 15.9506 14.4209 15.9503 15.8573 15.9503C17.0717 15.9503 17.1847 15.947 17.3092 15.9082C17.6431 15.8042 17.9162 15.5799 18.0686 15.2845C18.2296 14.9724 18.2203 15.2137 18.2206 11.3389C18.2209 8.94623 18.2134 7.80587 18.1967 7.71283C18.1365 7.3752 17.8712 7.00845 17.5715 6.84838C17.2838 6.69473 17.2993 6.69608 15.8356 6.69823C14.8547 6.69967 14.4877 6.70759 14.4001 6.72916ZM17.2079 7.43022C17.3328 7.48767 17.4222 7.57167 17.4858 7.69146C17.5312 7.77693 17.5348 7.82019 17.5414 8.34713L17.5484 8.91129L17.301 8.91907C17.0335 8.92747 16.9837 8.94719 16.8829 9.08436C16.8153 9.17637 16.819 9.35946 16.8905 9.46134C16.9686 9.57266 17.0576 9.60174 17.3198 9.60174H17.5456V9.94289V10.284L17.2996 10.2918C17.0337 10.3001 16.9836 10.32 16.8829 10.457C16.8153 10.549 16.819 10.7321 16.8905 10.834C16.9686 10.9453 17.0576 10.9744 17.3198 10.9744H17.5456V11.3155V11.6567L17.2996 11.6644C17.0337 11.6728 16.9836 11.6927 16.8829 11.8297C16.8153 11.9217 16.819 12.1048 16.8905 12.2066C16.9687 12.318 17.0575 12.347 17.3205 12.347H17.5471L17.5407 13.5996C17.5345 14.8363 17.5337 14.8533 17.4853 14.9452C17.4223 15.0648 17.2828 15.1927 17.1715 15.2326C17.1015 15.2577 16.8337 15.2639 15.8235 15.2639C14.6801 15.2639 14.5553 15.2603 14.4811 15.2247C14.3542 15.1638 14.2622 15.0741 14.1959 14.9464L14.1351 14.8293V11.329V7.82873L14.1845 7.72578C14.2373 7.61548 14.2607 7.58428 14.3531 7.50078C14.4803 7.38586 14.4958 7.38465 15.846 7.38412C17.0667 7.38364 17.1099 7.38511 17.2079 7.43022ZM6.90779 16.5643C6.76238 16.6319 6.66939 16.8151 6.70559 16.9624C6.72954 17.0601 6.82197 17.1681 6.90304 17.1933C6.94342 17.2059 7.07761 17.2229 7.20127 17.2313C7.62023 17.2595 7.78862 17.3059 8.28212 17.5295C8.8445 17.7843 9.18159 17.8605 9.74537 17.8605C10.3162 17.8605 10.6375 17.7866 11.2424 17.5161C11.4343 17.4303 11.6661 17.3391 11.7574 17.3136C11.994 17.2473 12.3621 17.2117 12.6235 17.2299C13.0432 17.259 13.2153 17.3066 13.7074 17.5295C14.2698 17.7843 14.6069 17.8605 15.1707 17.8605C15.7415 17.8605 16.0628 17.7866 16.6677 17.5161C17.1027 17.3216 17.2799 17.2712 17.6357 17.2408C18.0107 17.2088 18.071 17.191 18.1472 17.0895C18.2277 16.9823 18.2352 16.8005 18.1633 16.7026C18.0593 16.561 18.0147 16.5448 17.7403 16.5487C17.2781 16.5552 16.923 16.6436 16.414 16.8788C15.9041 17.1143 15.6502 17.1743 15.1634 17.1741C14.6933 17.174 14.4219 17.1082 13.9057 16.8694C13.3627 16.6182 13.047 16.5481 12.458 16.5481C11.8634 16.5481 11.5534 16.6179 10.9887 16.8788C10.4788 17.1143 10.225 17.1743 9.73812 17.1741C9.26805 17.174 8.99661 17.1082 8.48037 16.8694C8.01126 16.6523 7.70017 16.5722 7.22407 16.546C7.03657 16.5356 6.95979 16.5401 6.90779 16.5643Z" fill="#162921"/>
<path fill-rule="evenodd" clip-rule="evenodd" d="M15.4855 8.94131C15.282 8.98441 15.1054 9.11438 15.0149 9.28753C14.9358 9.43875 14.9413 9.35288 14.9376 10.4968L14.9344 11.5118L14.8955 11.5442C14.7544 11.6617 14.6459 11.8107 14.5783 11.98C14.4746 12.2396 14.493 12.5526 14.6269 12.8058C14.7436 13.0265 14.9159 13.1863 15.1512 13.2921C15.5696 13.4804 16.0586 13.4071 16.392 13.1062C16.7579 12.776 16.8481 12.2789 16.6187 11.8565C16.5626 11.7533 16.4894 11.6621 16.3921 11.5743L16.3123 11.5022L16.3098 10.4745L16.3073 9.44682L16.2821 9.377C16.2077 9.17038 16.0427 9.02016 15.8176 8.954C15.7308 8.92847 15.5743 8.9225 15.4855 8.94131ZM15.7678 9.21484C15.8785 9.2543 15.9665 9.33398 16.0094 9.43373L16.0301 9.48174L16.0347 10.5466C16.04 11.7652 16.0291 11.6352 16.1327 11.707C16.2804 11.8096 16.3961 11.9761 16.4433 12.1543C16.4721 12.2632 16.4718 12.4283 16.4426 12.5316C16.3758 12.768 16.2155 12.9527 15.988 13.0555C15.861 13.1128 15.7843 13.1284 15.6282 13.1287C15.4668 13.1289 15.3941 13.1133 15.254 13.048C15.0405 12.9486 14.8771 12.7589 14.8133 12.5366C14.7849 12.4375 14.785 12.2445 14.8136 12.1438C14.8557 11.9952 14.9611 11.8345 15.075 11.7456C15.1019 11.7246 15.1438 11.6893 15.1682 11.6672L15.2124 11.627L15.2127 10.6111C15.2129 10.0112 15.2166 9.5684 15.2219 9.52974C15.2435 9.37139 15.3652 9.24202 15.5312 9.2011C15.5939 9.18563 15.7037 9.19201 15.7678 9.21484ZM15.5674 9.9833C15.5444 9.99437 15.522 10.0145 15.5097 10.0351L15.4896 10.0689V10.9464V11.8239L15.455 11.8345C15.1781 11.9191 15.0114 12.202 15.0828 12.4658C15.1357 12.661 15.2886 12.8055 15.4952 12.8554C15.7993 12.9289 16.1129 12.7407 16.179 12.4449C16.2057 12.3254 16.18 12.181 16.1126 12.072C16.0536 11.9766 15.9303 11.8792 15.8208 11.8415L15.7671 11.823L15.7646 10.9389C15.7622 10.0613 15.762 10.0545 15.7431 10.0306C15.6953 9.97004 15.6311 9.95276 15.5674 9.9833ZM15.7522 12.0994C15.8529 12.146 15.9091 12.2322 15.9091 12.3402C15.9091 12.4491 15.8531 12.5343 15.7498 12.5822C15.7065 12.6022 15.6855 12.6064 15.6282 12.6062C15.5138 12.6059 15.4248 12.5546 15.3715 12.458C15.3382 12.3978 15.3365 12.2954 15.3677 12.2311C15.4353 12.0919 15.6079 12.0328 15.7522 12.0994Z" fill="#7367F0"/>
</svg>
