<svg width="23" height="23" viewBox="0 0 23 23" fill="none" xmlns="http://www.w3.org/2000/svg">
<path fill-rule="evenodd" clip-rule="evenodd" d="M8.42804 2.96967C9.05092 2.56814 9.92227 2.26758 10.7077 2.18336C11.2764 2.1224 12.0901 2.19911 12.6678 2.36821C13.4899 2.60882 14.17 3.00899 14.7947 3.61983L15.1963 4.01246L14.2379 7.35371C13.7902 8.9143 13.4394 10.1823 13.3392 10.5958C13.0383 10.285 12.6759 10.0339 12.2717 9.86225C12.3878 9.52607 12.6255 8.72494 13.0532 7.23647C13.501 5.6782 13.8678 4.38472 13.8683 4.36206C13.8694 4.3093 13.4076 3.96286 13.1253 3.80471C12.8292 3.63874 12.1582 3.42076 11.788 3.37023C10.6599 3.2163 9.46936 3.55496 8.6461 4.26412L8.55548 4.34216L9.30239 6.95194C9.66721 8.22663 9.99995 9.38729 10.099 9.7307C9.70907 9.84273 9.34915 10.0257 9.03408 10.2647L8.98949 10.1055C8.89671 9.77414 8.80761 9.50305 8.79153 9.50305C8.75074 9.50305 8.5399 9.67621 8.30026 9.90654L8.09797 10.1009L7.667 9.71943C7.30304 9.39722 7.24196 9.32688 7.27397 9.26697C7.32802 9.16588 7.85532 8.71252 8.18922 8.48012L8.47265 8.28281L8.29846 7.69127C8.20264 7.3659 8.11772 7.09293 8.10979 7.08469C8.10183 7.07644 7.96741 7.14542 7.81106 7.23795C6.57951 7.96678 5.56328 9.19186 5.04879 10.568C4.9785 10.756 4.90403 10.9099 4.88334 10.9099C4.8481 10.9099 3.83008 10.5968 3.80947 10.5796C3.78387 10.5583 4.06274 9.86324 4.25266 9.47483C4.94786 8.05322 6.09382 6.84498 7.44874 6.10498C7.62047 6.01119 7.76699 5.92975 7.77437 5.924C7.78171 5.91826 7.67196 5.50824 7.53043 5.01284C7.38891 4.51747 7.27311 4.08401 7.27311 4.04962C7.27311 3.92183 7.98794 3.25339 8.42804 2.96967ZM7.78786 12.3249L7.68741 12.35C7.34239 12.4365 7.05661 12.5038 7.05235 12.4995C7.02156 12.4687 7.17975 11.7845 7.28739 11.4829L7.41943 11.1131L6.89721 10.8684C6.60999 10.7338 6.36968 10.631 6.36316 10.6398C6.35669 10.6486 6.30513 10.7702 6.24857 10.9099C6.05502 11.388 5.94141 11.8823 5.87599 12.5306L5.84852 12.8031L3.79944 13.3147C2.67245 13.5961 1.70412 13.8382 1.64761 13.8527C1.55436 13.8766 1.53372 13.9199 1.42521 14.3191C1.14478 15.3509 1.16972 16.2961 1.5037 17.2948C2.07588 19.0056 3.41203 20.2452 5.15089 20.6785L5.50704 20.7672L6.2047 20.0572L6.90232 19.3472L7.04646 19.4467C7.29922 19.6211 7.88935 19.9279 8.28289 20.0895C9.3698 20.5357 10.6816 20.7434 11.8003 20.6464C12.533 20.5829 12.8207 20.5257 12.7992 20.4481C12.7898 20.4142 12.7341 20.1532 12.6754 19.8681C12.5877 19.4421 12.5576 19.3528 12.5066 19.3675C12.2711 19.435 11.7253 19.4812 11.1761 19.4798C10.4211 19.478 9.87055 19.3935 9.20423 19.1771C8.79407 19.0438 7.73963 18.5541 7.74315 18.4984C7.74408 18.4837 7.93533 18.27 8.16814 18.0235L8.59146 17.5753L8.93731 17.7385C9.55979 18.0324 10.1822 18.1949 10.8736 18.2441L11.2151 18.2684V17.6764V17.0844L11.0688 17.0842C10.6053 17.0837 9.49782 16.7973 9.49782 16.6779C9.49782 16.6536 9.69542 16.4371 9.9369 16.1968L10.1348 15.9999C9.72771 15.888 9.35257 15.699 9.02599 15.4497C8.3904 16.119 6.5906 17.9851 5.37941 19.2278L5.13762 19.4758L4.89864 19.3792C3.72415 18.9042 2.83615 17.8658 2.50966 16.5855C2.40674 16.1819 2.37454 15.506 2.44058 15.1343L2.49194 14.8451L5.36064 14.1312C6.38732 13.8756 7.29727 13.6497 7.81148 13.5227C7.76728 13.3088 7.74405 13.0872 7.74405 12.8603C7.74405 12.6779 7.75904 12.4991 7.78786 12.3249ZM12.1919 15.891L14.4744 18.2608C15.9323 19.7744 16.9075 20.7578 16.9507 20.7578C17.0836 20.7578 17.751 20.5676 18.0434 20.4464C20.098 19.595 21.4355 17.3191 21.1677 15.1302C21.1189 14.7314 20.9345 13.982 20.8693 13.9176C20.851 13.8995 20.4233 13.7814 19.9188 13.6552L19.0016 13.4258L18.9765 12.7443C18.9297 11.4713 18.7046 10.5416 18.1872 9.48351C17.7886 8.66836 17.2681 7.94536 16.6298 7.32029L16.3763 7.07195L16.2213 7.24214C15.8188 7.6842 15.6255 7.91406 15.6255 7.95083C15.6255 7.97295 15.6967 8.05205 15.7837 8.12661C16.0037 8.31509 16.4237 8.82773 16.7172 9.26596C17.3999 10.2851 17.8112 11.6355 17.8112 12.8576V13.1281L17.1867 12.9715L16.5622 12.815L16.5621 12.6148C16.5615 11.8453 16.1839 10.6901 15.6918 9.95246C15.3848 9.49222 15.3711 9.47839 15.2877 9.54385C15.1579 9.64565 14.5533 10.1395 14.5046 10.1835C14.468 10.2165 14.4979 10.2849 14.6347 10.4802C14.9839 10.9788 15.2331 11.5745 15.3334 12.1506C15.3655 12.3349 15.385 12.4924 15.3768 12.5007C15.3642 12.5132 14.8247 12.3861 14.2543 12.2362C14.2299 12.2298 14.2095 12.2238 14.1922 12.2171C14.2338 12.425 14.2557 12.6401 14.2557 12.8603C14.2557 13.0676 14.2363 13.2704 14.1993 13.4669C14.4069 13.4955 15.4329 13.74 17.0633 14.1499L19.9524 14.8764L19.9994 15.2077C20.1785 16.4689 19.6114 17.8973 18.5919 18.7528C18.2635 19.0284 17.7692 19.3222 17.4794 19.4139L17.2843 19.4757L16.7539 18.9346C15.5153 17.6711 13.5468 15.6121 13.2201 15.2417C12.9237 15.5181 12.5756 15.7399 12.1919 15.891Z" fill="#162921"/>
<circle cx="11" cy="12.8603" r="2.25581" stroke="#7367F0" stroke-width="2"/>
</svg>
