<svg width="14" height="20" viewBox="0 0 14 20" fill="none" xmlns="http://www.w3.org/2000/svg">
<path fill-rule="evenodd" clip-rule="evenodd" d="M6.43646 0.886058C5.18501 1.0538 4.00722 1.56578 3.0218 2.37034C2.65942 2.66626 2.09702 3.2692 1.81849 3.66045C1.38839 4.26461 0.972083 5.162 0.789715 5.87796C0.651054 6.42249 0.607097 6.74498 0.587192 7.36418C0.549918 8.52396 0.776814 9.57696 1.28168 10.5873C1.49671 11.0177 1.64034 11.2377 1.92062 11.5661C2.56772 12.3242 3.02037 13.2147 3.2795 14.2393C3.32921 14.4359 3.40115 14.6581 3.43942 14.7332C3.57994 15.0092 3.93503 15.2721 4.23279 15.3205L4.35791 15.3409L4.36974 15.9554C4.38146 16.5634 4.38278 16.5723 4.49571 16.8021C4.63008 17.0753 4.7348 17.1831 5.02337 17.3451C5.21096 17.4505 5.23983 17.4815 5.26553 17.6054C5.33007 17.9167 5.54189 18.2762 5.82536 18.5556C6.65221 19.3705 7.86746 19.3706 8.69195 18.5558C8.97485 18.2763 9.18695 17.9159 9.25132 17.6054C9.27701 17.4815 9.30589 17.4505 9.49347 17.3451C9.78205 17.1831 9.88676 17.0753 10.0211 16.8021C10.134 16.5725 10.1354 16.563 10.147 15.959L10.1588 15.3481L10.3436 15.3041C10.7316 15.2119 11.0655 14.8779 11.1738 14.4737C11.323 13.9164 11.4207 13.6013 11.535 13.309C11.7613 12.7303 12.196 12.0234 12.636 11.5184C13.4127 10.6273 13.9413 9.03182 13.9413 7.57905C13.9413 6.19873 13.4884 4.77082 12.6984 3.6602C12.4086 3.2529 11.8187 2.62755 11.4244 2.30967C10.0388 1.19286 8.15629 0.655533 6.43646 0.886058ZM7.88383 1.47378C9.33934 1.63654 10.6203 2.25793 11.622 3.28714C12.4031 4.0897 12.9264 5.01792 13.1906 6.06945C13.4923 7.27017 13.4107 8.66628 12.9745 9.76902C12.7274 10.3934 12.4731 10.8357 12.149 11.2045C11.5161 11.9248 10.9608 13.0036 10.7078 14.0043C10.5902 14.4695 10.5456 14.5561 10.3602 14.679L10.212 14.7774H7.25842H4.30487L4.1566 14.679C3.97127 14.5561 3.92667 14.4695 3.80905 14.0043C3.56911 13.0551 3.07891 12.0716 2.48974 11.3573C2.00636 10.7712 1.84554 10.5081 1.59298 9.89021C1.28532 9.13739 1.14755 8.42261 1.14755 7.57905C1.14755 7.00072 1.1968 6.58447 1.3262 6.06945C1.8232 4.09152 3.32056 2.45464 5.24788 1.78237C6.08538 1.49025 7.03599 1.37894 7.88383 1.47378ZM9.57556 15.938L9.56348 16.5078L9.45373 16.6453C9.23588 16.9183 9.32136 16.9081 7.25842 16.9081C5.19549 16.9081 5.28097 16.9183 5.06311 16.6453L4.95336 16.5078L4.94129 15.938L4.92921 15.3683H7.25842H9.58764L9.57556 15.938ZM8.66783 17.5618C8.45845 18.2392 7.72601 18.6862 7.02298 18.5655C6.4791 18.4722 6.00515 18.0669 5.84901 17.5618L5.8241 17.4812H7.25842H8.69274L8.66783 17.5618Z" fill="#162921"/>
<path fill-rule="evenodd" clip-rule="evenodd" d="M6.79148 3.48162C6.18416 3.54598 5.51169 3.78263 4.95276 4.12875C4.55154 4.37722 3.90959 5.00419 3.65818 5.39315C3.17701 6.13758 2.94164 6.9309 2.94189 7.80752C2.94247 9.84869 4.33065 11.5777 6.34459 12.0458C6.81918 12.1561 7.71283 12.1561 8.18742 12.0458C9.93358 11.64 11.2311 10.2795 11.5356 8.53512C11.6049 8.13828 11.6055 7.47912 11.5369 7.08514C11.1989 5.14246 9.65094 3.69292 7.68731 3.48026C7.30253 3.43858 7.19646 3.43872 6.79148 3.48162ZM7.99862 4.10451C9.46171 4.38463 10.6429 5.5648 10.9445 7.04772C11.3733 9.15607 9.98147 11.1609 7.83991 11.5198C6.98129 11.6636 6.03793 11.4705 5.2833 10.9962C4.52506 10.5197 3.97067 9.81226 3.69674 8.97175C3.55022 8.52205 3.50076 8.13875 3.5223 7.6199C3.5985 5.78562 4.97124 4.3009 6.81929 4.05391C7.11459 4.01444 7.64768 4.03732 7.99862 4.10451ZM7.14092 4.63002C7.01245 4.70043 6.98011 4.7766 6.98011 5.00899C6.98011 5.20284 6.99311 5.24954 7.06784 5.32442C7.12313 5.37986 7.19639 5.41234 7.26601 5.41234C7.33562 5.41234 7.40888 5.37986 7.46417 5.32442C7.53772 5.25076 7.5519 5.20198 7.5519 5.02296C7.5519 4.75658 7.53286 4.70659 7.40638 4.64105C7.28713 4.57924 7.23731 4.57716 7.14092 4.63002ZM5.0118 5.55284C4.8617 5.70325 4.87771 5.78752 5.09846 6.00869C5.31739 6.22808 5.42993 6.25279 5.57009 6.1123C5.71397 5.96815 5.68938 5.82766 5.48425 5.6221C5.27604 5.41345 5.16687 5.39745 5.0118 5.55284ZM9.04776 5.6221C8.84263 5.82766 8.81804 5.96815 8.96192 6.1123C9.10208 6.25279 9.21462 6.22808 9.43355 6.00869C9.6543 5.78752 9.67031 5.70325 9.52021 5.55284C9.36514 5.39745 9.25597 5.41345 9.04776 5.6221ZM8.61784 6.26189C8.55244 6.3155 8.26869 6.55913 7.98726 6.8033L7.47557 7.2472H7.26647H7.05737L6.66147 6.90279C6.33169 6.61586 6.2457 6.55834 6.1466 6.55834C5.99708 6.55834 5.87225 6.68258 5.87225 6.83134C5.87225 6.97287 5.89816 7.00346 6.33162 7.37347C6.6862 7.67619 6.70211 7.69593 6.71329 7.84612C6.73427 8.12797 6.97718 8.34897 7.26601 8.34897C7.55466 8.34897 7.79774 8.12797 7.81868 7.84655C7.83015 7.69252 7.83923 7.68253 8.43265 7.17349C8.76393 6.88932 9.05455 6.62256 9.07842 6.58073C9.14643 6.46143 9.13199 6.34787 9.03661 6.25233C8.91943 6.13486 8.76855 6.13833 8.61784 6.26189ZM4.15686 7.5969C4.05029 7.7037 4.04975 7.89458 4.15568 8.00373C4.22662 8.07683 4.49129 8.12081 4.6381 8.08388C4.86664 8.0264 4.95141 7.75613 4.78891 7.60314C4.67258 7.49362 4.26393 7.48961 4.15686 7.5969ZM9.7381 7.60815C9.63964 7.71319 9.63625 7.89501 9.73099 7.98995C9.92944 8.18881 10.4249 8.10279 10.4479 7.8655C10.4731 7.60543 10.3817 7.52528 10.0597 7.52528C9.85096 7.52528 9.80461 7.53724 9.7381 7.60815ZM5.28258 9.42209C5.18431 9.46345 4.95602 9.71045 4.92725 9.80653C4.89966 9.89872 4.98496 10.0847 5.06977 10.1174C5.21904 10.1748 5.32261 10.138 5.48943 9.96826C5.61976 9.83561 5.65782 9.7709 5.65782 9.68176C5.65782 9.57236 5.55647 9.42334 5.48207 9.42334C5.46402 9.42334 5.42782 9.41629 5.40166 9.40769C5.37546 9.39906 5.32189 9.40554 5.28258 9.42209ZM9.05287 9.43036C8.93862 9.47269 8.87665 9.56448 8.87533 9.6933C8.87372 9.84793 9.16895 10.1396 9.32712 10.1396C9.4918 10.1396 9.60323 10.0329 9.60323 9.87529C9.60323 9.76997 9.57374 9.71496 9.44902 9.58758C9.28481 9.41994 9.18639 9.38087 9.05287 9.43036ZM7.13606 10.2173C7.02892 10.2693 6.98011 10.3973 6.98011 10.6264C6.98011 10.8635 7.08407 10.9991 7.26601 10.9991C7.33562 10.9991 7.40888 10.9666 7.46417 10.9112C7.53822 10.837 7.5519 10.7891 7.5519 10.604C7.5519 10.4094 7.54015 10.373 7.44744 10.2801C7.33809 10.1705 7.2635 10.1555 7.13606 10.2173Z" fill="#7367F0"/>
</svg>
