<svg width="15" height="20" viewBox="0 0 15 20" fill="none" xmlns="http://www.w3.org/2000/svg">
<path fill-rule="evenodd" clip-rule="evenodd" d="M7.13969 7.11169C7.07449 7.14434 7.02621 7.19843 6.92898 7.3479L6.80285 7.54178L6.46328 7.73965L6.12369 7.93751L5.89466 7.9503C5.6492 7.96399 5.55488 7.99956 5.49165 8.10229C5.33848 8.35114 5.11591 8.76817 5.1134 8.81107C5.10619 8.93441 5.12432 8.99953 5.21152 9.16369L5.30343 9.33674V9.7571V10.1775L5.20759 10.3567C5.05205 10.6476 5.05687 10.6705 5.39345 11.244C5.55875 11.5256 5.59019 11.5457 5.89408 11.5647L6.12369 11.5791L6.46502 11.7787L6.80633 11.9782L6.92507 12.1626C7.10541 12.4425 7.11062 12.4447 7.61603 12.4448C8.12837 12.4449 8.13603 12.4418 8.30781 12.1679L8.42302 11.9841L8.76852 11.7816L9.11401 11.5792L9.34362 11.5648C9.58931 11.5494 9.68344 11.5136 9.74605 11.4119C9.90179 11.1589 10.1216 10.746 10.1234 10.7031C10.1287 10.5726 10.1122 10.5132 10.026 10.3523L9.93427 10.1811V9.75893V9.33674L10.0261 9.16369C10.1124 9.00123 10.1287 8.94193 10.1234 8.81107C10.1216 8.76821 9.90179 8.3553 9.74605 8.10229C9.68344 8.00057 9.58931 7.96483 9.34362 7.94944L9.11401 7.93503L8.76852 7.73259L8.42302 7.53014L8.3059 7.34332C8.13807 7.07561 8.12224 7.06931 7.61748 7.06934C7.26506 7.06934 7.21553 7.07375 7.13969 7.11169ZM8.05863 7.61395L8.17839 7.80159L8.58329 8.03795C9.01024 8.28716 9.05786 8.30465 9.31579 8.30696L9.4553 8.30822L9.56746 8.50245C9.62913 8.60929 9.70161 8.73604 9.7285 8.78412L9.77738 8.87156L9.67933 9.05964L9.58125 9.24773L9.5816 9.75965L9.58193 10.2716L9.67505 10.4469C9.72626 10.5433 9.76767 10.6331 9.76706 10.6464C9.76646 10.6597 9.69829 10.7886 9.61553 10.933L9.4651 11.1955L9.23763 11.2118L9.01018 11.2281L8.69869 11.4099C8.52737 11.5098 8.34004 11.6192 8.28239 11.6528C8.19862 11.7016 8.1536 11.7515 8.05824 11.9009L7.9389 12.0879H7.61885H7.2988L7.17992 11.9016C7.11452 11.7991 7.04635 11.706 7.02845 11.6948C7.01053 11.6835 6.8228 11.5737 6.61128 11.4507L6.22669 11.2272L6.00264 11.2133L5.7786 11.1995L5.66835 11.0085C5.60769 10.9034 5.53647 10.7788 5.51003 10.7316L5.462 10.6456L5.55922 10.4553L5.65645 10.2649V9.7571V9.24932L5.55922 9.05895L5.462 8.8686L5.51003 8.78263C5.53647 8.73537 5.60857 8.60929 5.67024 8.50245L5.7824 8.30822L5.91152 8.30669C6.18721 8.30341 6.22794 8.28873 6.65549 8.03839L7.05893 7.80218L7.17888 7.61422L7.2988 7.42629H7.61885H7.9389L8.05863 7.61395ZM7.44234 8.15401C7.17394 8.18993 6.87499 8.30782 6.68566 8.45241C6.26008 8.77743 6.03053 9.23458 6.03053 9.7571C6.03053 10.2148 6.19822 10.6029 6.53613 10.9275C6.96947 11.3437 7.58124 11.4744 8.14772 11.2717C8.38913 11.1853 8.53177 11.0912 8.74084 10.8805C8.94807 10.6717 9.06 10.4842 9.14842 10.1981C9.18935 10.0656 9.19707 9.9956 9.19707 9.7571C9.19707 9.51861 9.18935 9.44864 9.14842 9.31614C8.97484 8.75427 8.54134 8.33027 8.00302 8.19581C7.85951 8.15997 7.56299 8.13786 7.44234 8.15401ZM8.00018 8.57133C8.88257 8.8547 9.14288 10.0182 8.46731 10.6593C8.22626 10.8881 7.96008 10.9983 7.63962 11.002C7.28061 11.0062 7.01134 10.8964 6.75681 10.6421C6.50664 10.3922 6.38426 10.104 6.38358 9.76338C6.38316 9.55766 6.41446 9.4217 6.51023 9.21308C6.66006 8.88681 7.00394 8.60791 7.33851 8.54134C7.40132 8.52885 7.47141 8.51434 7.49425 8.50913C7.58043 8.48943 7.84742 8.52225 8.00018 8.57133ZM7.47791 9.24021C7.23221 9.309 7.06936 9.55264 7.09563 9.81216C7.11527 10.0061 7.24302 10.1808 7.42006 10.2558C7.51537 10.2961 7.72233 10.2961 7.81764 10.2558C7.93084 10.2078 8.04584 10.0944 8.09956 9.97773C8.28644 9.57192 7.90588 9.12041 7.47791 9.24021ZM7.75431 9.64699C7.87126 9.79734 7.71236 9.99338 7.54303 9.9076C7.41237 9.84141 7.41115 9.67345 7.54083 9.6077C7.62506 9.56501 7.70146 9.57906 7.75431 9.64699Z" fill="#7367F0"/>
<path fill-rule="evenodd" clip-rule="evenodd" d="M7.53145 0.864857C7.33628 0.943625 7.33954 0.909151 7.33954 2.89327V4.72626L7.05793 4.74257C6.72623 4.76178 6.58275 4.83148 6.43136 5.04696C6.30261 5.23023 6.26836 5.40425 6.26639 5.8855L6.26481 6.26504L6.05882 6.31037C5.21122 6.49697 4.21333 6.96012 3.45261 7.52003C3.06656 7.80414 2.3893 8.47618 2.08397 8.87805C1.21151 10.0265 0.699042 11.4828 0.669379 12.8981C0.661892 13.2558 0.664436 13.269 0.759298 13.3639L0.85692 13.4616L2.78463 13.4715L4.7123 13.4813L4.75561 13.7164C4.95175 14.7813 5.75407 15.6504 6.82729 15.9606C7.23085 16.0772 8.02142 16.0772 8.42498 15.9606C9.49821 15.6504 10.3005 14.7813 10.4967 13.7164L10.54 13.4813L12.4676 13.4715L14.3954 13.4616L14.4942 13.3627C14.5914 13.2655 14.5929 13.2571 14.5834 12.8789C14.5553 11.7712 14.1859 10.517 13.5993 9.53755C13.1336 8.76015 12.3155 7.85915 11.6385 7.37801C11.0176 6.93679 10.0128 6.48224 9.28548 6.31353L9.09988 6.27049L9.08845 5.72696C9.07792 5.22604 9.07054 5.17432 8.99409 5.0671C8.85706 4.87495 8.62528 4.7626 8.32632 4.74339L8.06685 4.72673L8.04353 4.18786C8.0307 3.89149 8.0202 3.07825 8.0202 2.3807C8.0202 1.00494 8.01419 0.958748 7.82417 0.872132C7.71616 0.822893 7.64007 0.820993 7.53145 0.864857ZM8.37845 5.81554V6.17893L8.19037 6.15631C8.08695 6.14388 7.76453 6.13356 7.47388 6.13341L6.94548 6.13309V5.79264V5.4522H7.66196H8.37845V5.81554ZM8.42201 6.90569C9.18994 7.01176 9.77355 7.18897 10.4383 7.51788C11.0721 7.83141 11.4977 8.14183 12.0521 8.69496C12.6047 9.24627 12.9133 9.66795 13.2323 10.308C13.5893 11.0241 13.8027 11.7538 13.8795 12.5209L13.9037 12.7628H7.64308H1.38239L1.40632 12.4759C1.43276 12.1587 1.5321 11.6517 1.63793 11.2935C2.19374 9.41305 3.69059 7.8594 5.58415 7.19761C6.4626 6.8906 7.52325 6.78151 8.42201 6.90569ZM9.82464 13.6677C9.64638 14.2821 9.18815 14.8498 8.66504 15.1041C8.26123 15.3005 8.00104 15.3546 7.55492 15.3349C7.10547 15.3151 6.77517 15.2122 6.42187 14.982C5.98599 14.6979 5.61027 14.1707 5.49796 13.6856L5.45028 13.4795H7.66472H9.8792L9.82464 13.6677ZM4.25865 14.6872C4.19116 14.7116 2.57731 15.6512 2.50014 15.7111C2.36964 15.8123 2.32109 16.0276 2.39686 16.1692C2.45221 16.2727 2.63957 16.3568 2.76077 16.3326C2.91685 16.3013 4.47367 15.3886 4.60794 15.2496C4.73924 15.1137 4.75571 14.9951 4.66472 14.841C4.57742 14.6931 4.41381 14.6312 4.25865 14.6872ZM10.7063 14.7607C10.6377 14.8226 10.5894 14.9074 10.5765 14.9887C10.5593 15.0972 10.5725 15.1361 10.6583 15.229C10.8009 15.3832 12.4112 16.3147 12.5738 16.3369C12.6806 16.3515 12.7238 16.336 12.8228 16.2475C12.9195 16.161 12.9419 16.1152 12.9389 16.0096C12.9319 15.7637 12.9478 15.7753 11.4074 14.8881C11.1828 14.7587 10.9726 14.6621 10.9154 14.6621C10.857 14.6621 10.7704 14.7029 10.7063 14.7607ZM5.63789 16.0734C5.48624 16.1415 5.47066 16.164 4.94085 17.0796C4.65 17.5822 4.45794 17.9532 4.44723 18.0331C4.43272 18.1415 4.44802 18.1845 4.53672 18.2838C4.62313 18.3805 4.66898 18.4029 4.77452 18.3999C4.84646 18.3978 4.94182 18.3723 4.98646 18.343C5.09379 18.2726 6.0834 16.5676 6.10919 16.4086C6.12578 16.3062 6.11141 16.2652 6.0269 16.1735C5.90363 16.0397 5.78233 16.0085 5.63789 16.0734ZM9.39432 16.0595C9.27982 16.1057 9.20241 16.2382 9.20241 16.388C9.20241 16.4938 9.30164 16.6919 9.68765 17.3565C9.9545 17.816 10.2207 18.2364 10.2793 18.2906C10.588 18.5764 10.9882 18.225 10.7916 17.8408C10.7163 17.6935 10.0151 16.4883 9.87701 16.2687C9.74425 16.0575 9.57785 15.9854 9.39432 16.0595ZM7.48678 16.6115C7.314 16.7073 7.30633 16.7599 7.30497 17.8623C7.30358 18.9972 7.31332 19.0566 7.51462 19.14C7.65605 19.1986 7.82256 19.1586 7.9123 19.0445C7.98098 18.9572 7.98438 18.9008 7.98438 17.8499V16.747L7.87415 16.6543C7.75353 16.5527 7.61947 16.5379 7.48678 16.6115Z" fill="#162921"/>
</svg>
