<svg width="24" height="24" viewBox="0 0 24 24" fill="none" xmlns="http://www.w3.org/2000/svg">
<path fill-rule="evenodd" clip-rule="evenodd" d="M10.0761 2.04934C9.22459 2.24239 8.48511 2.82456 8.10622 3.60012C7.77537 4.27744 7.79831 3.89282 7.78287 9.01653L7.76918 13.563L7.60662 13.7079C7.01578 14.2343 6.56182 14.9017 6.27862 15.6603C5.8445 16.8231 5.92166 18.2247 6.48229 19.359C6.97079 20.3475 7.69179 21.0632 8.67668 21.5374C10.4282 22.3807 12.4753 22.0525 13.8709 20.7047C15.4025 19.2257 15.78 16.999 14.8199 15.1071C14.5852 14.6448 14.2786 14.2361 13.8714 13.8429L13.5373 13.5202L13.5269 8.91691L13.5164 4.3136L13.4111 4.00084C13.0992 3.07535 12.4087 2.40253 11.4665 2.10619C11.103 1.99183 10.4478 1.96505 10.0761 2.04934ZM11.2578 3.2745C11.7214 3.45125 12.0897 3.80814 12.2695 4.25496L12.3561 4.46998L12.3754 9.23956C12.3976 14.698 12.3516 14.1157 12.7853 14.4375C13.404 14.8967 13.8882 15.6427 14.0855 16.4408C14.2061 16.9287 14.2049 17.6683 14.0827 18.131C13.8032 19.1897 13.1322 20.0169 12.1796 20.4773C11.648 20.7341 11.3271 20.804 10.6736 20.8052C9.99795 20.8065 9.69367 20.7363 9.10716 20.444C8.21359 19.9988 7.52942 19.1491 7.26246 18.1532C7.14353 17.7095 7.14403 16.845 7.26351 16.3939C7.43976 15.7281 7.88131 15.0086 8.35793 14.6103C8.47056 14.5162 8.64604 14.3581 8.74788 14.2591L8.93311 14.079L8.93431 9.52859C8.93501 6.84175 8.95079 4.85816 8.97283 4.685C9.06311 3.97574 9.5728 3.39624 10.2675 3.21296C10.53 3.14369 10.9897 3.17227 11.2578 3.2745ZM10.4193 6.71657C10.3228 6.76614 10.229 6.8563 10.1775 6.9488L10.0934 7.09998V11.0305V14.9609L9.9484 15.0084C8.78965 15.3876 8.0916 16.6547 8.39054 17.8362C8.61181 18.7107 9.25185 19.3576 10.117 19.5813C11.39 19.9104 12.7026 19.0672 12.9792 17.7427C13.0911 17.2072 12.9835 16.5603 12.7014 16.0723C12.4545 15.6451 11.9383 15.2088 11.48 15.0399L11.2549 14.9569L11.2446 10.9966C11.2345 7.06588 11.2339 7.03563 11.1547 6.92847C10.9543 6.65719 10.6856 6.57978 10.4193 6.71657ZM11.1925 16.1951C11.6144 16.4038 11.8495 16.7897 11.8495 17.2736C11.8495 17.7615 11.6149 18.1427 11.1826 18.3573C11.0016 18.4472 10.9135 18.4658 10.6736 18.4651C10.1947 18.4638 9.82235 18.2338 9.59906 17.8013C9.45971 17.5314 9.45259 17.0729 9.58328 16.7849C9.86617 16.1614 10.5887 15.8965 11.1925 16.1951Z" fill="#162921"/>
<path d="M14.9805 5.38515C14.5778 5.13361 14.6504 4.51661 15.1021 4.35148C15.2247 4.30667 15.4617 4.29686 16.2431 4.30421C17.1503 4.31277 17.2399 4.31977 17.3607 4.39171C17.7498 4.62338 17.7716 5.12489 17.4035 5.37885C17.2787 5.4649 17.2525 5.46682 16.1936 5.46682C15.1633 5.46682 15.1049 5.46287 14.9805 5.38515Z" fill="#7367F0"/>
<path d="M14.7872 6.96255C14.8616 6.8177 14.9907 6.72141 15.1708 6.67641C15.2394 6.65929 15.7306 6.64838 16.2624 6.65225C17.1527 6.65866 17.2398 6.66543 17.3607 6.7374C17.7498 6.96908 17.7716 7.47059 17.4035 7.72455C17.2787 7.81063 17.2528 7.81251 16.189 7.81236C15.1792 7.81224 15.0933 7.8068 14.9783 7.73588C14.7393 7.58861 14.6504 7.22894 14.7872 6.96255Z" fill="#7367F0"/>
<path d="M14.7872 9.30824C14.8616 9.16351 14.9905 9.06726 15.1708 9.02183C15.2394 9.00455 15.7306 8.99369 16.2624 8.99767C17.1524 9.00432 17.2398 9.01112 17.3607 9.0831C17.7498 9.31477 17.7716 9.81628 17.4035 10.0702C17.2787 10.1563 17.2528 10.1582 16.189 10.1581C15.1792 10.1579 15.0933 10.1525 14.9783 10.0816C14.7393 9.93431 14.6504 9.57464 14.7872 9.30824Z" fill="#7367F0"/>
<path d="M14.7872 11.6539C14.8616 11.5092 14.9905 11.413 15.1708 11.3675C15.2394 11.3502 15.7306 11.3394 16.2624 11.3434C17.1524 11.35 17.2398 11.3568 17.3607 11.4288C17.7498 11.6605 17.7716 12.162 17.4035 12.4159C17.2787 12.502 17.2528 12.5039 16.189 12.5037C15.1792 12.5036 15.0933 12.4982 14.9783 12.4273C14.7393 12.28 14.6504 11.9203 14.7872 11.6539Z" fill="#7367F0"/>
</svg>
