<svg width="15" height="21" viewBox="0 0 15 21" fill="none" xmlns="http://www.w3.org/2000/svg">
<path fill-rule="evenodd" clip-rule="evenodd" d="M1.20916 0.984236C1.02702 1.04883 0.773441 1.2773 0.672579 1.46772C0.570178 1.66091 0.551137 2.33085 0.641266 2.56722C0.721356 2.77717 0.959278 3.04936 1.12153 3.11664L1.23597 3.16413L1.23674 7.19392C1.23751 11.4765 1.24332 11.6344 1.42539 12.3485C1.89662 14.1965 3.10565 15.7322 4.77499 16.6034C4.95483 16.6972 5.19286 16.8111 5.30392 16.8565L5.50587 16.939V17.6283V18.3176L5.29715 18.3644C4.79138 18.4777 4.50572 18.882 4.50572 19.4844C4.50572 19.981 4.69609 20.3422 5.06088 20.5376C5.21714 20.6214 5.22087 20.6215 7.7947 20.6215C10.2345 20.6215 10.3792 20.6177 10.5067 20.5498C10.6967 20.4485 10.8848 20.2621 10.9764 20.0841C11.0752 19.8921 11.1134 19.3757 11.0482 19.1125C10.9536 18.7303 10.6688 18.4487 10.2914 18.3642L10.0818 18.3172L10.0923 17.6268L10.1027 16.9364L10.5067 16.7548C12.4253 15.8924 13.8012 14.146 14.2423 12.0133C14.3216 11.63 14.3339 11.464 14.3335 10.7808C14.333 9.889 14.2687 9.45809 14.0251 8.71358C13.565 7.30716 12.5324 5.99101 11.2744 5.20764C9.74554 4.25562 7.82808 3.96452 6.13055 4.42674C5.97691 4.46857 5.84277 4.50281 5.83243 4.50281C5.82208 4.50281 5.81362 4.20162 5.81362 3.83345V3.16413L5.92806 3.11664C6.0757 3.05544 6.33227 2.77624 6.40825 2.59418C6.44852 2.49774 6.46756 2.32607 6.46756 2.05993C6.46756 1.71522 6.45552 1.64358 6.36793 1.4676C6.2508 1.23228 6.05865 1.06165 5.81854 0.97973C5.56542 0.893378 1.45401 0.897384 1.20916 0.984236ZM5.65698 1.63199C5.79669 1.70432 5.81362 1.75404 5.81362 2.09202C5.81362 2.34217 5.80334 2.38069 5.71433 2.46442L5.61508 2.55778H3.51837H1.42166L1.3288 2.44971C1.24894 2.35673 1.23613 2.30297 1.23721 2.06455C1.23844 1.78224 1.26952 1.70232 1.40908 1.62217C1.4642 1.59051 2.0618 1.57764 3.5171 1.5768C5.22606 1.57583 5.56542 1.58458 5.65698 1.63199ZM5.15967 4.0035V4.77515L4.98879 4.84849C4.52645 5.04692 3.76956 5.55455 3.39031 5.92052C3.16578 6.13721 3.13893 6.27868 3.28907 6.45346C3.35927 6.53515 3.41239 6.55876 3.51941 6.55572C3.63193 6.55252 3.71182 6.50565 3.93786 6.31011C4.73675 5.61895 5.73091 5.1459 6.7753 4.95991C7.33112 4.86093 8.24438 4.85369 8.75638 4.94424C11.2087 5.37788 13.0651 7.17605 13.5894 9.62536C13.715 10.2121 13.7149 11.3502 13.5892 11.9363C13.0863 14.2815 11.3351 16.0597 9.03289 16.5628C7.87144 16.8166 6.55477 16.6857 5.45217 16.2069C3.69259 15.4428 2.4377 13.8975 1.99979 11.9555C1.913 11.5707 1.91289 11.5667 1.89996 7.4011L1.887 3.2318H3.52333H5.15967V4.0035ZM6.56796 17.2321C7.05081 17.3341 7.7588 17.3749 8.27204 17.3303C8.69495 17.2935 9.2245 17.2064 9.37383 17.149C9.42103 17.1309 9.42957 17.2197 9.42957 17.7287V18.3298H7.7947H6.15982V17.7303C6.15982 17.1632 6.16371 17.1319 6.23137 17.1534C6.27073 17.1659 6.42217 17.2013 6.56796 17.2321ZM10.3229 19.0916C10.3996 19.1684 10.4105 19.2181 10.4105 19.4897C10.4105 19.7821 10.4042 19.8055 10.3025 19.8931L10.1946 19.986H7.7947H5.39478L5.29149 19.8971C5.21167 19.8283 5.18394 19.7633 5.16928 19.6104C5.13951 19.3002 5.1829 19.1469 5.32523 19.0594C5.44437 18.9863 5.52211 18.9842 7.84174 18.9939L10.2353 19.0039L10.3229 19.0916Z" fill="#162921"/>
<path fill-rule="evenodd" clip-rule="evenodd" d="M6.88397 5.92876C6.76319 5.98865 6.67375 6.08787 6.49364 6.36202L6.25999 6.71763L5.63097 7.08056L5.00191 7.44349L4.57765 7.46695C4.12296 7.49206 3.94825 7.55731 3.83111 7.74572C3.54737 8.20217 3.13508 8.96709 3.13043 9.04577C3.11708 9.27201 3.15066 9.39145 3.31218 9.69256L3.48244 10.01V10.781V11.552L3.30491 11.8808C3.01679 12.4143 3.02572 12.4564 3.6492 13.5082C3.9554 14.0248 4.01364 14.0618 4.57657 14.0966L5.00191 14.1229L5.6342 14.489L6.26645 14.855L6.48641 15.1931C6.82046 15.7066 6.83012 15.7106 7.76634 15.7108C8.71542 15.711 8.72961 15.7054 9.04781 15.2028L9.26123 14.8657L9.90126 14.4944L10.5412 14.1231L10.9666 14.0966C11.4217 14.0684 11.5961 14.0029 11.712 13.8163C12.0005 13.3522 12.4077 12.5949 12.411 12.5162C12.4209 12.2769 12.3903 12.1678 12.2307 11.8728L12.0607 11.5587V10.7844V10.01L12.2309 9.69256C12.3906 9.39457 12.421 9.2858 12.411 9.04577C12.4077 8.96716 12.0005 8.2098 11.712 7.74572C11.5961 7.55916 11.4217 7.4936 10.9666 7.46537L10.5412 7.43895L9.90126 7.06762L9.26123 6.69629L9.04427 6.35362C8.73338 5.86259 8.70407 5.85104 7.76904 5.85107C7.1162 5.85107 7.02446 5.85916 6.88397 5.92876ZM8.58624 6.85001L8.80808 7.19418L9.55812 7.62771C10.349 8.08481 10.4372 8.1169 10.915 8.12113L11.1735 8.12344L11.3812 8.47971C11.4955 8.67568 11.6297 8.90816 11.6795 8.99636L11.7701 9.15674L11.5884 9.50172L11.4068 9.8467L11.4074 10.7857L11.408 11.7246L11.5805 12.0463C11.6754 12.2231 11.7521 12.3878 11.751 12.4122C11.7499 12.4365 11.6236 12.6731 11.4703 12.9379L11.1916 13.4193L10.7702 13.4492L10.3489 13.4791L9.77189 13.8125C9.45453 13.9959 9.10752 14.1964 9.00073 14.2581C8.84555 14.3477 8.76215 14.4391 8.58551 14.7132L8.36444 15.0562H7.77158H7.17871L6.95849 14.7145C6.83735 14.5265 6.71106 14.3558 6.6779 14.3351C6.64471 14.3144 6.29696 14.1129 5.90513 13.8874L5.19271 13.4774L4.77768 13.452L4.36266 13.4266L4.15843 13.0763C4.04607 12.8836 3.91412 12.6551 3.86516 12.5684L3.77618 12.4107L3.95628 12.0616L4.13639 11.7124V10.781V9.84963L3.95628 9.50045L3.77618 9.1513L3.86516 8.99362C3.91412 8.90692 4.04768 8.67568 4.16193 8.47971L4.3697 8.12344L4.60889 8.12063C5.11958 8.11462 5.19502 8.0877 5.98703 7.62852L6.73437 7.19526L6.95656 6.85051L7.17871 6.5058H7.77158H8.36444L8.58624 6.85001ZM7.4446 7.84059C6.94741 7.90649 6.39363 8.12271 6.04292 8.38793C5.25457 8.98407 4.82935 9.82259 4.82935 10.781C4.82935 11.6205 5.13997 12.3324 5.76591 12.9278C6.56866 13.6912 7.70191 13.9309 8.75127 13.5591C9.19845 13.4006 9.46269 13.2281 9.84998 12.8416C10.2338 12.4585 10.4412 12.1147 10.605 11.5898C10.6808 11.3468 10.6951 11.2185 10.6951 10.781C10.6951 10.3435 10.6808 10.2152 10.605 9.97218C10.2834 8.94159 9.48042 8.16389 8.48323 7.91727C8.21738 7.85153 7.6681 7.81097 7.4446 7.84059ZM8.47796 8.60604C10.1125 9.12581 10.5947 11.2599 9.34328 12.4359C8.89675 12.8554 8.40367 13.0576 7.81004 13.0645C7.14502 13.0722 6.64621 12.8708 6.17471 12.4043C5.71129 11.9458 5.4846 11.4173 5.48333 10.7925C5.48256 10.4152 5.54053 10.1658 5.71795 9.78315C5.99549 9.1847 6.63251 8.67314 7.25226 8.55104C7.36863 8.52813 7.49846 8.50151 7.54077 8.49196C7.70041 8.45583 8.19499 8.51603 8.47796 8.60604ZM7.5105 9.83291C7.05535 9.95909 6.75368 10.406 6.80235 10.882C6.83874 11.2377 7.07539 11.5581 7.40333 11.6956C7.57989 11.7697 7.96326 11.7697 8.13983 11.6956C8.34951 11.6077 8.56254 11.3997 8.66206 11.1857C9.00823 10.4413 8.30327 9.61318 7.5105 9.83291ZM8.0225 10.579C8.23915 10.8548 7.94479 11.2144 7.63113 11.057C7.38909 10.9356 7.38682 10.6276 7.62705 10.507C7.78308 10.4287 7.9246 10.4544 8.0225 10.579Z" fill="#7367F0"/>
</svg>
