<svg width="22" height="22" viewBox="0 0 22 22" fill="none" xmlns="http://www.w3.org/2000/svg">
<path fill-rule="evenodd" clip-rule="evenodd" d="M4.26288 2.37061V2.90771H4.67467H5.08645V6.41611V9.92448L4.93427 10.002C3.9052 10.5264 2.96899 11.4776 2.43786 12.5384C1.10847 15.1934 2.039 18.4351 4.57358 19.9788L4.88224 20.1668H7.55701H10.2318L10.5393 19.9738C10.9923 19.6893 11.2608 19.4752 11.6229 19.1092L11.9468 18.7819L12.1421 18.9567C12.7561 19.5063 13.5438 19.8932 14.4366 20.0836C14.9027 20.1829 15.8374 20.1737 16.327 20.0648C18.2572 19.6357 19.6678 18.2062 20.0776 16.2638C20.1653 15.8482 20.1658 14.904 20.0785 14.466C19.8951 13.5456 19.4786 12.7365 18.8462 12.0719C18.4702 11.6768 18.1918 11.4528 17.7582 11.1966C16.1034 10.2188 13.992 10.3486 12.4281 11.5242L12.2008 11.6951L12.075 11.5356C12.0058 11.4479 11.7616 11.1897 11.5322 10.9617C11.1107 10.5428 10.6227 10.182 10.1979 9.97539L9.99205 9.87521V6.39148V2.90771H10.4575H10.923V2.37061V1.8335H7.59296H4.26288V2.37061ZM8.91783 3.48063V4.05355H8.36185H7.80591L7.81579 4.58171L7.82571 5.10986L8.37177 5.11975L8.91783 5.12963V5.71952V6.30941H8.36185H7.80591L7.81579 6.83757L7.82571 7.36572L8.37177 7.37561L8.91783 7.38549V7.92074V8.45598L8.37177 8.46587L7.82571 8.47575L7.81579 9.00391L7.80591 9.53206H8.36185H8.91783L8.91865 10.0602L8.91944 10.5884L9.28951 10.7415C9.73216 10.9247 10.0521 11.1116 10.4447 11.4162C10.7164 11.6271 11.2095 12.1256 11.2095 12.1894C11.2095 12.2049 9.56469 12.2176 7.5544 12.2176H3.89926L4.07214 12.0149C4.47107 11.5471 5.10933 11.0898 5.74889 10.8135L6.14277 10.6434L6.15186 6.77555L6.16099 2.90771H7.53939H8.91783V3.48063ZM15.9003 11.6606C16.2377 11.7115 16.7528 11.872 17.0282 12.012C17.9626 12.4871 18.695 13.3973 18.9677 14.4223C19.0509 14.7351 19.0624 14.8467 19.0631 15.3507C19.0639 15.8607 19.0534 15.9629 18.9681 16.2809C18.6119 17.6085 17.5956 18.6209 16.2626 18.976C15.9622 19.0561 15.8449 19.0679 15.3452 19.0687C14.8389 19.0694 14.732 19.0586 14.4248 18.9761C13.7533 18.7957 13.2455 18.5078 12.7371 18.0196C12.0381 17.3483 11.6545 16.5038 11.6122 15.543C11.5632 14.4287 11.9631 13.4207 12.7538 12.6652C13.6165 11.841 14.7329 11.4845 15.9003 11.6606ZM10.9588 13.3137C10.9588 13.3258 10.9011 13.4897 10.8306 13.678C10.6317 14.2092 10.5639 14.5635 10.5417 15.1896C10.5103 16.0714 10.6498 16.7299 11.0303 17.496L11.2421 17.9226L11.139 18.051C10.9485 18.2882 10.5137 18.6908 10.23 18.8926L9.94872 19.0926H7.56156H5.17443L4.97047 18.9583C3.69741 18.1202 2.90127 16.6215 2.90242 15.0652C2.90278 14.5666 3.03358 13.8795 3.21448 13.4261L3.26805 13.2918H7.11347C9.22842 13.2918 10.9588 13.3017 10.9588 13.3137Z" fill="#162921"/>
<path fill-rule="evenodd" clip-rule="evenodd" d="M15.2956 13.1512C14.3738 14.1626 13.9114 14.8535 13.7847 15.4091C13.7069 15.7503 13.7591 16.0782 13.9498 16.4462C14.4317 17.3764 15.6562 17.7013 16.5706 17.1418C17.2134 16.7484 17.5474 15.9958 17.3689 15.3429C17.2133 14.7737 16.7361 14.0907 15.7138 12.974L15.5852 12.8335L15.2956 13.1512ZM15.838 14.637C16.1006 14.9872 16.3239 15.3665 16.3854 15.5666C16.419 15.6764 16.4165 15.7298 16.3704 15.8807C16.2414 16.3029 15.7875 16.5375 15.3324 16.4172C15.1724 16.3749 14.9436 16.1848 14.853 16.0191C14.7334 15.8001 14.7495 15.5797 14.906 15.2917C15.0761 14.9786 15.539 14.3228 15.5899 14.3228C15.5968 14.3228 15.7085 14.4642 15.838 14.637Z" fill="#7367F0"/>
</svg>
