<svg width="17" height="20" viewBox="0 0 17 20" fill="none" xmlns="http://www.w3.org/2000/svg">
<g clip-path="url(#clip0_126_3174)">
<path fill-rule="evenodd" clip-rule="evenodd" d="M8.02609 0.882199C7.93743 0.914201 7.80005 0.985949 7.72073 1.04066C7.22614 1.38495 6.11045 2.35225 5.28665 3.15128L4.69408 3.7263L4.4416 3.41298C4.04033 2.91436 3.58566 2.42761 3.45708 2.35948C3.30829 2.2805 3.13306 2.27689 2.97856 2.35019C2.85466 2.40903 2.34192 2.96236 1.90954 3.50434C0.914139 4.75193 0.564711 5.5809 0.698468 6.3789C0.785048 6.89713 0.996052 7.32607 1.36518 7.73229L1.56996 7.95786L1.42221 8.29234C0.788677 9.72626 0.57508 10.8758 0.701061 12.1672C0.872146 13.9212 1.61611 15.5358 2.83496 16.7988C3.97915 17.9845 5.36235 18.7298 6.99595 19.0416C7.98306 19.23 9.20035 19.1954 10.1989 18.9502C10.6079 18.8501 10.7852 18.7918 11.3021 18.5884L11.7588 18.4088L11.9444 18.575C12.0466 18.6663 12.2773 18.814 12.4572 18.9027C13.1799 19.2584 13.9176 19.2558 14.6668 18.8955C14.9488 18.7598 15.0556 18.6818 15.3169 18.4227C15.7965 17.9468 16.0453 17.4255 16.0935 16.7947C16.1324 16.2868 15.9821 15.7949 15.5886 15.1409L15.361 14.7625L15.5191 14.3811C15.9888 13.2471 16.1925 11.9205 16.0692 10.7927C15.8664 8.93291 14.7995 6.8579 12.9248 4.67605C12.3602 4.01897 11.1709 2.82197 10.4679 2.20359C9.74938 1.57129 9.0583 1.02415 8.85766 0.92917C8.63525 0.823872 8.24694 0.801676 8.02557 0.881683L8.02609 0.882199ZM8.71406 2.13804C10.2481 3.35775 11.8283 4.94601 12.8652 6.31076C14.0027 7.80765 14.6766 9.17034 14.9462 10.5165C15.039 10.979 15.0318 12.016 14.9322 12.5621C14.8544 12.9885 14.6414 13.7591 14.6009 13.7591C14.5875 13.7591 14.4319 13.5965 14.2551 13.3983C13.6843 12.7567 13.4562 12.7366 12.9585 13.2858C12.0165 14.3253 11.4115 15.1982 11.1455 15.9043C11.0403 16.1841 11.0289 16.2517 11.0278 16.6078C11.0278 16.8737 11.0475 17.0776 11.0901 17.2345C11.1663 17.5142 11.1761 17.5024 10.724 17.666C9.23405 18.2054 7.73732 18.2302 6.26702 17.7398C3.95375 16.9681 2.23046 14.9308 1.82504 12.4873C1.72601 11.8926 1.73379 10.9666 1.84215 10.4272C1.94117 9.93273 2.1558 9.2839 2.37925 8.80335L2.54256 8.45132L2.72505 8.48074C2.82511 8.49674 3.08484 8.5081 3.30259 8.50603C3.6292 8.50242 3.74741 8.48487 3.98485 8.40538C4.8916 8.10136 5.53551 7.37459 5.71229 6.4558C5.81131 5.94273 5.74651 5.53083 5.47692 4.95736L5.33228 4.64921L5.57231 4.39422C5.88753 4.05923 6.73051 3.26019 7.18207 2.86842C7.66111 2.4529 8.34752 1.90009 8.38485 1.90009C8.40144 1.90009 8.54971 2.00745 8.71457 2.13856L8.71406 2.13804ZM3.49286 3.95083C4.19275 4.78548 4.6329 5.52154 4.6749 5.9288C4.7454 6.60859 4.17408 7.30387 3.44205 7.42879C2.68772 7.55783 1.93702 7.0365 1.77216 6.26998C1.69595 5.91537 1.80119 5.55818 2.14077 5.02034C2.43939 4.54752 3.1398 3.65507 3.21238 3.65507C3.23001 3.65507 3.35599 3.78824 3.49234 3.95083H3.49286ZM13.8373 14.5566C14.321 15.1337 14.6922 15.6793 14.8933 16.1097C15.1038 16.5593 15.0426 17.0502 14.7228 17.4838C14.4573 17.8436 13.9778 18.0949 13.5568 18.0949C13.1358 18.0949 12.6583 17.8436 12.3991 17.5029C12.1943 17.234 12.1088 16.9831 12.1052 16.6404C12.1021 16.3637 12.1098 16.3348 12.2726 16.0075C12.3665 15.8191 12.5744 15.4816 12.7346 15.2586C13.0622 14.8018 13.5075 14.2613 13.5568 14.2613C13.5744 14.2613 13.7004 14.3945 13.8368 14.5571L13.8373 14.5566Z" fill="#162921"/>
<path d="M8.3902 11.6666C8.23727 11.6635 8.09418 11.7219 7.98686 11.8272C7.87902 11.933 7.81889 12.0754 7.81837 12.2277C7.81681 12.5431 8.061 12.7955 8.37361 12.8017H8.38502C8.53174 12.8017 8.67068 12.7454 8.77644 12.6427C8.88635 12.5359 8.94701 12.3934 8.94753 12.2401C8.94908 11.9221 8.70438 11.6702 8.3902 11.6666V11.6666ZM8.37724 12.635C8.15432 12.6303 7.98479 12.4543 7.98582 12.2282C7.98686 12.0063 8.16572 11.8308 8.38813 11.8333C8.61002 11.8359 8.78111 12.0135 8.78007 12.2396C8.77903 12.461 8.59758 12.6391 8.37724 12.635V12.635Z" fill="#7367F0"/>
<path d="M7.0315 10.2484C6.40315 10.6701 6.06098 11.2715 5.97803 12.0225C6.00395 12.0292 6.01276 12.0339 6.02158 12.0339C6.53068 12.0344 7.03927 12.0354 7.54786 12.0323C7.57326 12.0318 7.60593 11.9977 7.62303 11.9714C7.68421 11.878 7.72672 11.7696 7.80034 11.688C8.00461 11.4635 8.26901 11.4005 8.5697 11.4511C8.82581 10.9809 9.0814 10.5117 9.34684 10.0249C8.52771 9.71161 7.75316 9.76426 7.0315 10.2484ZM8.4769 11.2715C8.15236 11.2457 7.88381 11.3479 7.67592 11.5765C7.61629 11.6426 7.57482 11.7174 7.53853 11.784C7.52298 11.8129 7.50794 11.8403 7.49187 11.8656C7.05742 11.8682 6.61674 11.8677 6.18955 11.8671H6.16933C6.27976 11.2364 6.60067 10.7388 7.12533 10.3868C7.7345 9.97795 8.3841 9.88917 9.10577 10.1173C8.89217 10.5091 8.68428 10.8905 8.4769 11.2715V11.2715ZM8.39032 11.6663C8.23738 11.6633 8.0943 11.7216 7.98698 11.8269C7.87914 11.9327 7.819 12.0752 7.81849 12.2274C7.81693 12.5428 8.06112 12.7952 8.37373 12.8014H8.38514C8.53186 12.8014 8.6708 12.7451 8.77656 12.6424C8.88647 12.5356 8.94713 12.3931 8.94765 12.2398C8.9492 11.9219 8.7045 11.67 8.39032 11.6663V11.6663ZM8.54274 12.4034C8.49868 12.4463 8.44217 12.4685 8.38099 12.468C8.24827 12.4649 8.15288 12.3647 8.1534 12.2285C8.1534 12.166 8.17828 12.1077 8.22183 12.0648C8.26538 12.0225 8.32396 12.0003 8.38618 11.9998C8.51579 12.0013 8.61325 12.1041 8.61273 12.2383C8.61222 12.3012 8.58733 12.3601 8.54274 12.4034V12.4034ZM7.0315 10.2484C6.40315 10.6701 6.06098 11.2715 5.97803 12.0225C6.00395 12.0292 6.01276 12.0339 6.02158 12.0339C6.53068 12.0344 7.03927 12.0354 7.54786 12.0323C7.57326 12.0318 7.60593 11.9977 7.62303 11.9714C7.68421 11.878 7.72672 11.7696 7.80034 11.688C8.00461 11.4635 8.26901 11.4005 8.5697 11.4511C8.82581 10.9809 9.0814 10.5117 9.34684 10.0249C8.52771 9.71161 7.75316 9.76426 7.0315 10.2484ZM8.4769 11.2715C8.15236 11.2457 7.88381 11.3479 7.67592 11.5765C7.61629 11.6426 7.57482 11.7174 7.53853 11.784C7.52298 11.8129 7.50794 11.8403 7.49187 11.8656C7.05742 11.8682 6.61674 11.8677 6.18955 11.8671H6.16933C6.27976 11.2364 6.60067 10.7388 7.12533 10.3868C7.7345 9.97795 8.3841 9.88917 9.10577 10.1173C8.89217 10.5091 8.68428 10.8905 8.4769 11.2715V11.2715ZM8.39032 11.6663C8.23738 11.6633 8.0943 11.7216 7.98698 11.8269C7.87914 11.9327 7.819 12.0752 7.81849 12.2274C7.81693 12.5428 8.06112 12.7952 8.37373 12.8014H8.38514C8.53186 12.8014 8.6708 12.7451 8.77656 12.6424C8.88647 12.5356 8.94713 12.3931 8.94765 12.2398C8.9492 11.9219 8.7045 11.67 8.39032 11.6663V11.6663ZM8.54274 12.4034C8.49868 12.4463 8.44217 12.4685 8.38099 12.468C8.24827 12.4649 8.15288 12.3647 8.1534 12.2285C8.1534 12.166 8.17828 12.1077 8.22183 12.0648C8.26538 12.0225 8.32396 12.0003 8.38618 11.9998C8.51579 12.0013 8.61325 12.1041 8.61273 12.2383C8.61222 12.3012 8.58733 12.3601 8.54274 12.4034V12.4034ZM8.39032 11.6663C8.23738 11.6633 8.0943 11.7216 7.98698 11.8269C7.87914 11.9327 7.819 12.0752 7.81849 12.2274C7.81693 12.5428 8.06112 12.7952 8.37373 12.8014H8.38514C8.53186 12.8014 8.6708 12.7451 8.77656 12.6424C8.88647 12.5356 8.94713 12.3931 8.94765 12.2398C8.9492 11.9219 8.7045 11.67 8.39032 11.6663V11.6663ZM8.54274 12.4034C8.49868 12.4463 8.44217 12.4685 8.38099 12.468C8.24827 12.4649 8.15288 12.3647 8.1534 12.2285C8.1534 12.166 8.17828 12.1077 8.22183 12.0648C8.26538 12.0225 8.32396 12.0003 8.38618 11.9998C8.51579 12.0013 8.61325 12.1041 8.61273 12.2383C8.61222 12.3012 8.58733 12.3601 8.54274 12.4034V12.4034ZM7.0315 10.2484C6.40315 10.6701 6.06098 11.2715 5.97803 12.0225C6.00395 12.0292 6.01276 12.0339 6.02158 12.0339C6.53068 12.0344 7.03927 12.0354 7.54786 12.0323C7.57326 12.0318 7.60593 11.9977 7.62303 11.9714C7.68421 11.878 7.72672 11.7696 7.80034 11.688C8.00461 11.4635 8.26901 11.4005 8.5697 11.4511C8.82581 10.9809 9.0814 10.5117 9.34684 10.0249C8.52771 9.71161 7.75316 9.76426 7.0315 10.2484ZM8.4769 11.2715C8.15236 11.2457 7.88381 11.3479 7.67592 11.5765C7.61629 11.6426 7.57482 11.7174 7.53853 11.784C7.52298 11.8129 7.50794 11.8403 7.49187 11.8656C7.05742 11.8682 6.61674 11.8677 6.18955 11.8671H6.16933C6.27976 11.2364 6.60067 10.7388 7.12533 10.3868C7.7345 9.97795 8.3841 9.88917 9.10577 10.1173C8.89217 10.5091 8.68428 10.8905 8.4769 11.2715V11.2715ZM8.39032 11.6663C8.23738 11.6633 8.0943 11.7216 7.98698 11.8269C7.87914 11.9327 7.819 12.0752 7.81849 12.2274C7.81693 12.5428 8.06112 12.7952 8.37373 12.8014H8.38514C8.53186 12.8014 8.6708 12.7451 8.77656 12.6424C8.88647 12.5356 8.94713 12.3931 8.94765 12.2398C8.9492 11.9219 8.7045 11.67 8.39032 11.6663V11.6663ZM8.54274 12.4034C8.49868 12.4463 8.44217 12.4685 8.38099 12.468C8.24827 12.4649 8.15288 12.3647 8.1534 12.2285C8.1534 12.166 8.17828 12.1077 8.22183 12.0648C8.26538 12.0225 8.32396 12.0003 8.38618 11.9998C8.51579 12.0013 8.61325 12.1041 8.61273 12.2383C8.61222 12.3012 8.58733 12.3601 8.54274 12.4034V12.4034ZM7.0315 10.2484C6.40315 10.6701 6.06098 11.2715 5.97803 12.0225C6.00395 12.0292 6.01276 12.0339 6.02158 12.0339C6.53068 12.0344 7.03927 12.0354 7.54786 12.0323C7.57326 12.0318 7.60593 11.9977 7.62303 11.9714C7.68421 11.878 7.72672 11.7696 7.80034 11.688C8.00461 11.4635 8.26901 11.4005 8.5697 11.4511C8.82581 10.9809 9.0814 10.5117 9.34684 10.0249C8.52771 9.71161 7.75316 9.76426 7.0315 10.2484ZM8.4769 11.2715C8.15236 11.2457 7.88381 11.3479 7.67592 11.5765C7.61629 11.6426 7.57482 11.7174 7.53853 11.784C7.52298 11.8129 7.50794 11.8403 7.49187 11.8656C7.05742 11.8682 6.61674 11.8677 6.18955 11.8671H6.16933C6.27976 11.2364 6.60067 10.7388 7.12533 10.3868C7.7345 9.97795 8.3841 9.88917 9.10577 10.1173C8.89217 10.5091 8.68428 10.8905 8.4769 11.2715V11.2715ZM7.0315 10.2484C6.40315 10.6701 6.06098 11.2715 5.97803 12.0225C6.00395 12.0292 6.01276 12.0339 6.02158 12.0339C6.53068 12.0344 7.03927 12.0354 7.54786 12.0323C7.57326 12.0318 7.60593 11.9977 7.62303 11.9714C7.68421 11.878 7.72672 11.7696 7.80034 11.688C8.00461 11.4635 8.26901 11.4005 8.5697 11.4511C8.82581 10.9809 9.0814 10.5117 9.34684 10.0249C8.52771 9.71161 7.75316 9.76426 7.0315 10.2484ZM8.4769 11.2715C8.15236 11.2457 7.88381 11.3479 7.67592 11.5765C7.61629 11.6426 7.57482 11.7174 7.53853 11.784C7.52298 11.8129 7.50794 11.8403 7.49187 11.8656C7.05742 11.8682 6.61674 11.8677 6.18955 11.8671H6.16933C6.27976 11.2364 6.60067 10.7388 7.12533 10.3868C7.7345 9.97795 8.3841 9.88917 9.10577 10.1173C8.89217 10.5091 8.68428 10.8905 8.4769 11.2715V11.2715ZM8.39032 11.6663C8.23738 11.6633 8.0943 11.7216 7.98698 11.8269C7.87914 11.9327 7.819 12.0752 7.81849 12.2274C7.81693 12.5428 8.06112 12.7952 8.37373 12.8014H8.38514C8.53186 12.8014 8.6708 12.7451 8.77656 12.6424C8.88647 12.5356 8.94713 12.3931 8.94765 12.2398C8.9492 11.9219 8.7045 11.67 8.39032 11.6663V11.6663ZM8.54274 12.4034C8.49868 12.4463 8.44217 12.4685 8.38099 12.468C8.24827 12.4649 8.15288 12.3647 8.1534 12.2285C8.1534 12.166 8.17828 12.1077 8.22183 12.0648C8.26538 12.0225 8.32396 12.0003 8.38618 11.9998C8.51579 12.0013 8.61325 12.1041 8.61273 12.2383C8.61222 12.3012 8.58733 12.3601 8.54274 12.4034V12.4034Z" fill="#7367F0"/>
<path d="M13.3756 11.9246C13.3684 11.8719 13.3627 11.8198 13.3564 11.7671C13.344 11.6593 13.3316 11.5478 13.3124 11.4368C13.1029 10.2186 12.5249 9.20849 11.5943 8.43424C10.4454 7.47829 9.1094 7.10407 7.62355 7.32189C6.50009 7.48655 5.53061 7.99704 4.74155 8.83943C3.87731 9.76131 3.42264 10.8752 3.39049 12.1486C3.3879 12.2575 3.39723 12.3948 3.49211 12.4919C3.58698 12.5884 3.72437 12.6008 3.83376 12.6008H7.48927C7.67021 12.9827 7.97713 13.1944 8.36336 13.2006C8.36958 13.2006 8.37632 13.2006 8.38254 13.2006C8.77604 13.2006 9.0757 12.9987 9.27582 12.6002H10.1064C11.0525 12.6002 11.9987 12.6002 12.9448 12.6018C13.1486 12.6018 13.2891 12.5171 13.3627 12.3504L13.3767 12.3184V11.9452L13.3756 11.9241V11.9246ZM7.54786 12.0325C7.03927 12.0356 6.53068 12.0345 6.02157 12.034C6.01276 12.034 6.00395 12.0294 5.97802 12.0227C6.06097 11.2716 6.40314 10.6703 7.03149 10.2486C7.75316 9.76441 8.52771 9.71176 9.34684 10.0251C9.0814 10.5118 8.82581 10.981 8.5697 11.4513C8.26901 11.4007 8.0046 11.4636 7.80034 11.6882C7.72672 11.7697 7.68421 11.8781 7.62303 11.9716C7.60592 11.9979 7.57326 12.0319 7.54786 12.0325ZM8.77656 12.6426C8.6708 12.7453 8.53185 12.8016 8.38514 12.8016H8.37373C8.06111 12.7954 7.81693 12.543 7.81848 12.2276C7.819 12.0753 7.87914 11.9328 7.98698 11.827C8.09429 11.7217 8.23738 11.6634 8.39032 11.6665C8.7045 11.6701 8.9492 11.922 8.94764 12.24C8.94764 12.3933 8.88647 12.5357 8.77656 12.6426V12.6426ZM11.347 11.8621C11.3413 11.8353 11.3356 11.8084 11.3299 11.7816C11.2972 11.6283 11.2635 11.4688 11.2174 11.3134C11.1204 10.9888 10.9509 10.6739 10.7129 10.3786C10.6398 10.2873 10.5418 10.2326 10.4371 10.2248C10.3391 10.2176 10.2417 10.2522 10.1644 10.3229C10.013 10.4623 10.0042 10.6656 10.1426 10.8417C10.3386 11.093 10.4755 11.3635 10.5491 11.6464C10.5678 11.7176 10.5818 11.7909 10.5958 11.8678H10.2541C9.93009 11.8678 9.60554 11.8678 9.27789 11.8693C9.23382 11.7775 9.18301 11.6933 9.12547 11.6185C9.38987 11.1374 9.65635 10.6476 9.91401 10.1742L10.0675 9.8919L10.0727 9.88261C10.0882 9.85474 10.1058 9.82273 10.1219 9.78763C10.2033 9.60336 10.1338 9.39638 9.96015 9.30656C9.78907 9.21727 9.58688 9.27198 9.48008 9.43612C9.47438 9.4449 9.46867 9.45419 9.46297 9.46296C8.54326 9.12952 7.66762 9.20436 6.85833 9.68698C6.0449 10.1717 5.56224 10.9031 5.42226 11.8626H4.1443C4.22674 10.9774 4.54921 10.2047 5.12675 9.50993C5.19414 9.57755 5.2605 9.64362 5.32686 9.70969L5.34916 9.73292C5.3756 9.75976 5.40567 9.79073 5.43988 9.81912C5.5949 9.94816 5.8142 9.93629 5.95003 9.79125C6.08482 9.64672 6.08171 9.43096 5.94381 9.29005C5.8479 9.19146 5.75043 9.097 5.64726 8.99738L5.64415 8.99428C6.33523 8.42133 7.11341 8.09873 8.0129 8.01304V8.32223C8.01186 8.36197 8.01134 8.4074 8.01601 8.45282C8.03467 8.64896 8.18191 8.78936 8.37477 8.79401C8.58059 8.79762 8.73664 8.65206 8.7496 8.44817C8.7553 8.35836 8.75427 8.27009 8.75375 8.18441C8.75375 8.15034 8.75323 8.11576 8.75323 8.08118V8.01304C9.64702 8.09614 10.4247 8.41772 11.1204 8.99273C11.0219 9.08822 10.9286 9.17959 10.8353 9.27508C10.7461 9.36541 10.7052 9.48464 10.7228 9.60233C10.7399 9.71331 10.8083 9.8088 10.911 9.86454C11.0598 9.94403 11.2262 9.91719 11.3558 9.79228C11.431 9.7195 11.5051 9.64569 11.5792 9.57136L11.6399 9.51097C12.2164 10.2016 12.5384 10.9738 12.6213 11.8621H11.347V11.8621Z" fill="#7367F0"/>
</g>
<defs>
<clipPath id="clip0_126_3174">
<rect width="15.4386" height="18.3333" fill="white" transform="translate(0.666504 0.833496)"/>
</clipPath>
</defs>
</svg>
