<svg width="23" height="23" viewBox="0 0 23 23" fill="none" xmlns="http://www.w3.org/2000/svg">
<path fill-rule="evenodd" clip-rule="evenodd" d="M8.95711 2.26272C8.86764 2.31965 8.4896 2.69327 8.11699 3.09301C5.19465 6.22843 3.31349 9.058 2.52628 11.5024C2.06248 12.9426 2.04251 14.3164 2.46511 15.7145C2.80687 16.8453 3.37993 17.802 4.22907 18.6594C5.51316 19.9559 7.13911 20.6779 8.95998 20.7602C12.2493 20.9089 15.2582 18.6898 16.0942 15.4987C16.2565 14.879 16.2473 14.8966 16.409 14.8959C16.7504 14.8945 17.615 14.6456 18.0561 14.4216C18.4929 14.2 18.9527 13.8604 19.3342 13.4778C20.056 12.7539 20.4793 11.9593 20.6999 10.9138C20.7899 10.4872 20.7897 9.59122 20.6994 9.16658C20.4336 7.91555 19.617 6.34423 18.4234 4.787C17.6575 3.78769 16.3693 2.35586 16.1226 2.22962C15.9296 2.13086 15.7708 2.14064 15.58 2.26301C15.2031 2.50473 13.5865 4.37492 12.8968 5.36711L12.6584 5.71L12.5647 5.60218C12.5132 5.54288 12.2828 5.26543 12.0527 4.98561C11.1118 3.84167 9.72741 2.34567 9.50368 2.23119C9.30796 2.13104 9.14976 2.14016 8.95711 2.26272ZM9.73421 3.99721C11.0709 5.44149 12.2288 6.89117 13.0905 8.19942C13.6638 9.06983 13.8622 9.41147 14.2666 10.225C15.1458 11.9935 15.4077 13.2976 15.1628 14.6871C14.7638 16.9497 13.1083 18.8009 10.9151 19.437C10.3196 19.6098 9.97402 19.655 9.25106 19.655C8.52853 19.655 8.18135 19.6096 7.58974 19.4376C5.59477 18.8577 4.01357 17.2541 3.46725 15.2567C3.27802 14.5647 3.20758 13.7492 3.28187 13.1101C3.55061 10.7981 5.47139 7.58493 8.65552 4.12094C8.96457 3.7847 9.23218 3.50962 9.25019 3.50962C9.2682 3.50962 9.48599 3.72904 9.73421 3.99721ZM16.3244 3.97495C18.1949 6.05719 19.389 8.04614 19.6429 9.50275C19.7165 9.9249 19.6922 10.4773 19.5806 10.9175C19.2261 12.3158 18.1676 13.3687 16.7507 13.7322C16.3316 13.8397 16.3606 13.8634 16.3347 13.391C16.2968 12.6979 16.1523 12.009 15.8767 11.2073C15.4513 9.96965 14.5448 8.31183 13.4936 6.84916C13.4215 6.74887 13.3625 6.6554 13.3625 6.6415C13.3625 6.5512 14.3368 5.23941 14.8754 4.60452C15.3559 4.03809 15.8389 3.50962 15.876 3.50962C15.8927 3.50962 16.0945 3.719 16.3244 3.97495Z" fill="#162921"/>
<path fill-rule="evenodd" clip-rule="evenodd" d="M10.4013 9.67881C10.3284 9.72119 10.2357 9.81524 10.1953 9.88783C10.045 10.1576 7.20458 17.3408 7.20458 17.451C7.20458 17.7154 7.48831 17.9949 7.7553 17.9937C7.92591 17.9928 8.15011 17.8542 8.22681 17.7023C8.26225 17.632 8.94893 15.924 9.75274 13.9066C11.0442 10.6655 11.2122 10.2211 11.1972 10.087C11.1533 9.69484 10.7389 9.48239 10.4013 9.67881ZM6.20401 10.0169C5.89765 10.0938 5.66832 10.2251 5.43731 10.4559C4.79167 11.1011 4.7921 12.1104 5.43833 12.7586C6.37851 13.7017 7.96793 13.188 8.19359 11.8681C8.28204 11.3507 8.11591 10.8402 7.73376 10.4551C7.32345 10.0416 6.75465 9.8787 6.20401 10.0169ZM6.84168 11.1334C7.00312 11.216 7.13181 11.4263 7.13181 11.6074C7.13181 11.8863 6.86282 12.1548 6.58335 12.1548C6.41413 12.1548 6.18934 12.0129 6.1093 11.8555C5.97493 11.5913 6.05927 11.3028 6.31655 11.1466C6.49075 11.0408 6.65281 11.0367 6.84168 11.1334ZM11.2979 14.3965C10.9915 14.4734 10.7622 14.6047 10.5312 14.8355C9.88551 15.4807 9.88595 16.49 10.5322 17.1382C11.4724 18.0813 13.0618 17.5676 13.2874 16.2477C13.3759 15.7303 13.2098 15.2197 12.8276 14.8347C12.4173 14.4212 11.8485 14.2583 11.2979 14.3965ZM11.9355 15.513C12.097 15.5956 12.2257 15.8058 12.2257 15.9869C12.2257 16.2659 11.9567 16.5344 11.6772 16.5344C11.508 16.5344 11.2832 16.3925 11.2031 16.235C11.0688 15.9708 11.1531 15.6824 11.4104 15.5262C11.5846 15.4204 11.7467 15.4163 11.9355 15.513Z" fill="#7367F0"/>
</svg>
