<svg width="26" height="26" viewBox="0 0 26 26" fill="none" xmlns="http://www.w3.org/2000/svg">
<path fill-rule="evenodd" clip-rule="evenodd" d="M14.5512 8.66699C14.7107 8.66699 14.8477 8.75815 14.8704 8.91788L15.3036 11.1529H12.3616V8.98629C12.3616 8.80381 12.4984 8.66699 12.6809 8.66699H14.5512ZM12.3616 13.4794H15.7827L16.444 16.7636C16.4897 16.9689 16.33 17.1513 16.1247 17.1513H12.6809C12.4984 17.1513 12.3616 17.0145 12.3616 16.832V13.4794Z" fill="#7367F0"/>
<path fill-rule="evenodd" clip-rule="evenodd" d="M3.9912 10.0577C3.58075 10.4226 3.07896 10.6279 2.5772 10.6279C2.34923 10.6279 2.16675 10.4454 2.16675 10.2174C2.16675 9.98944 2.34906 9.80696 2.5772 9.80696C3.07896 9.80696 3.44377 9.48765 3.67191 9.21401C3.83148 9.03153 4.15079 9.03153 4.31052 9.21401C4.53851 9.48766 4.90347 9.80696 5.40523 9.80696C5.90699 9.80696 6.27181 9.48765 6.49994 9.21401C6.65951 9.03153 6.97882 9.03153 7.13855 9.21401C7.36654 9.48766 7.7315 9.80696 8.23326 9.80696C8.71214 9.80696 9.09984 9.48765 9.32798 9.21401C9.41913 9.12285 9.53321 9.07719 9.64727 9.07719C9.76134 9.07719 9.89816 9.12285 9.96657 9.21401C10.1946 9.48766 10.5595 9.80696 11.0613 9.80696C11.2893 9.80696 11.4717 9.98927 11.4717 10.2174C11.4717 10.4454 11.2894 10.6279 11.0613 10.6279C10.5595 10.6279 10.0577 10.4226 9.64726 10.0577C9.21388 10.4454 8.73505 10.6279 8.23325 10.6279C7.73144 10.6279 7.22968 10.4226 6.81923 10.0577C6.40878 10.4226 5.90702 10.6279 5.40522 10.6279C4.90341 10.6279 4.40165 10.4226 3.9912 10.0577ZM22.3285 15.5315C22.5565 15.8052 22.9214 16.1245 23.4232 16.1245L23.4233 16.1244C23.6513 16.1244 23.8337 16.3069 23.8334 16.5349C23.8334 16.7628 23.6511 16.9453 23.423 16.9453C22.9212 16.9453 22.4194 16.7401 22.0089 16.3751C21.5985 16.7401 21.0967 16.9453 20.5949 16.9453C20.0931 16.9453 19.5914 16.7401 19.1809 16.3751C18.7705 16.7401 18.2687 16.9453 17.7669 16.9453C17.5617 16.9453 17.4021 16.8085 17.3564 16.626L16.4897 12.7259H11.0616C10.5598 12.7259 10.058 12.5206 9.64756 12.1557C9.21418 12.5434 8.7353 12.7259 8.23354 12.7259C7.73174 12.7259 7.22998 12.5206 6.81953 12.1557C6.40907 12.5206 5.90727 12.7259 5.40551 12.7259C4.90371 12.7259 4.40194 12.5206 3.99149 12.1557C3.58104 12.5206 3.07924 12.7259 2.57748 12.7259C2.34951 12.7259 2.16703 12.5436 2.16703 12.3154C2.16703 12.0875 2.34934 11.905 2.57748 11.905C3.07924 11.905 3.44405 11.5857 3.67219 11.312C3.83176 11.1295 4.15107 11.1295 4.3108 11.312C4.53879 11.5857 4.90375 11.905 5.40551 11.905C5.90727 11.905 6.27208 11.5857 6.50022 11.312C6.65979 11.1295 6.9791 11.1295 7.13883 11.312C7.36682 11.5857 7.73178 11.905 8.23354 11.905C8.71241 11.905 9.10012 11.5857 9.32825 11.312C9.41941 11.2209 9.53348 11.1752 9.64755 11.1752C9.76161 11.1752 9.89843 11.2209 9.96684 11.312C10.1948 11.5857 10.5598 11.905 11.0616 11.905H16.8318C17.037 11.905 17.1966 12.0418 17.2423 12.2243L18.0864 16.0789C18.4285 15.9876 18.6794 15.7367 18.8618 15.5315C19.0214 15.349 19.3407 15.349 19.5004 15.5315C19.7284 15.8052 20.0934 16.1245 20.5952 16.1245C21.0969 16.1245 21.4617 15.8051 21.6899 15.5315C21.8494 15.349 22.1687 15.349 22.3285 15.5315ZM11.0616 14.0034C10.5598 14.0034 10.1949 13.6841 9.96688 13.4104C9.89847 13.3193 9.76166 13.2736 9.64759 13.2736C9.53352 13.2736 9.41945 13.3193 9.32829 13.4104C9.10016 13.6841 8.71245 14.0034 8.23358 14.0034C7.73182 14.0034 7.36686 13.6841 7.13887 13.4104C6.97914 13.2279 6.65983 13.2279 6.50026 13.4104C6.27212 13.6841 5.90731 14.0034 5.40555 14.0034C4.90379 14.0034 4.53883 13.6841 4.31084 13.4104C4.15111 13.2279 3.8318 13.2279 3.67223 13.4104C3.44409 13.6841 3.07928 14.0034 2.57752 14.0034C2.34938 14.0034 2.16707 14.1858 2.16707 14.4138C2.16707 14.642 2.34955 14.8243 2.57752 14.8243C3.07928 14.8243 3.58108 14.619 3.99153 14.2541C4.40198 14.619 4.90375 14.8243 5.40555 14.8243C5.90731 14.8243 6.40911 14.619 6.81956 14.2541C7.23002 14.619 7.73178 14.8243 8.23358 14.8243C8.73534 14.8243 9.21422 14.6418 9.6476 14.2541C10.058 14.619 10.5598 14.8243 11.0616 14.8243C11.2898 14.8243 11.4721 14.6418 11.4721 14.4138C11.4722 14.1858 11.2897 14.0034 11.0616 14.0034H11.0616ZM9.96688 15.5315C10.1949 15.8052 10.5598 16.1245 11.0616 16.1245H11.0616C11.2897 16.1245 11.4722 16.3069 11.4721 16.5349C11.4721 16.7629 11.2898 16.9454 11.0616 16.9454C10.5598 16.9454 10.058 16.7401 9.6476 16.3752C9.21422 16.7629 8.73534 16.9454 8.23358 16.9454C7.73178 16.9454 7.23002 16.7401 6.81956 16.3752C6.40911 16.7401 5.90731 16.9454 5.40555 16.9454C4.90375 16.9454 4.40198 16.7401 3.99153 16.3752C3.58108 16.7401 3.07928 16.9454 2.57752 16.9454C2.34955 16.9454 2.16707 16.763 2.16707 16.5349C2.16707 16.3069 2.34938 16.1245 2.57752 16.1245C3.07928 16.1245 3.44409 15.8051 3.67223 15.5315C3.8318 15.349 4.15111 15.349 4.31084 15.5315C4.53883 15.8052 4.90379 16.1245 5.40555 16.1245C5.90731 16.1245 6.27212 15.8051 6.50026 15.5315C6.65983 15.349 6.97914 15.349 7.13887 15.5315C7.36686 15.8052 7.73182 16.1245 8.23358 16.1245C8.71245 16.1245 9.10016 15.8051 9.32829 15.5315C9.41945 15.4403 9.53352 15.3947 9.64759 15.3947C9.76166 15.3947 9.89847 15.4403 9.96688 15.5315Z" fill="#162921"/>
</svg>
