<svg width="20" height="15" viewBox="0 0 20 15" fill="none" xmlns="http://www.w3.org/2000/svg">
<path fill-rule="evenodd" clip-rule="evenodd" d="M9.27284 0.685685C6.03987 0.961494 3.18426 2.9071 1.77883 5.79152C1.44933 6.46779 1.2904 6.89773 1.11757 7.58063C0.567124 9.75521 0.819868 11.9954 1.84307 14.011C2.11428 14.5453 2.23986 14.6703 2.50909 14.6744C2.66734 14.6768 2.75101 14.6376 3.4859 14.2165C3.92797 13.9632 4.33441 13.714 4.38904 13.6626C4.6482 13.4193 4.58633 12.9765 4.27034 12.8132C4.04352 12.696 3.90037 12.7357 3.303 13.081L2.74811 13.4019L2.61546 13.1258C2.28406 12.4362 1.94148 11.1031 1.94148 10.5032V10.3597L2.59574 10.3595C3.18537 10.3594 3.26155 10.3524 3.36685 10.2882C3.72388 10.0706 3.70861 9.56156 3.33917 9.36633C3.19588 9.29058 3.14092 9.28482 2.56323 9.28482H1.94148V9.12807C1.94148 8.88461 2.07796 8.13995 2.21247 7.64942C2.33074 7.21822 2.67135 6.32945 2.73294 6.2914C2.74968 6.28108 3.00526 6.41114 3.30088 6.58043C3.5965 6.74976 3.89449 6.89737 3.96311 6.90851C4.27346 6.95885 4.59203 6.63339 4.54865 6.31025C4.51735 6.07697 4.41234 5.97887 3.84165 5.64946C3.54581 5.4787 3.30378 5.32643 3.30378 5.31113C3.30378 5.2633 3.68308 4.77026 3.97365 4.44042C4.34753 4.01596 4.91124 3.51142 5.32441 3.23142C5.46415 3.13672 5.50509 3.12304 5.53058 3.16256C5.54808 3.18968 5.68567 3.42597 5.83635 3.6877C6.11103 4.16479 6.24386 4.32118 6.40974 4.36282C6.79086 4.45841 7.16729 4.09801 7.06813 3.73252C7.04923 3.6629 6.90386 3.38176 6.74508 3.1077C6.5863 2.83369 6.46129 2.59467 6.46735 2.57654C6.48133 2.53466 6.93186 2.33567 7.33338 2.194C7.92287 1.98609 8.599 1.83643 9.22803 1.77466L9.47002 1.75091L9.47009 2.39181C9.47013 2.93046 9.48013 3.0526 9.53283 3.1574C9.72563 3.54094 10.2899 3.54094 10.4827 3.1574C10.5353 3.05271 10.5454 2.93071 10.5455 2.39675L10.5455 1.7608H10.6271C10.7786 1.7608 11.3051 1.83536 11.6701 1.90848C12.2846 2.03159 13.5569 2.48747 13.5569 2.58457C13.5569 2.60037 13.4275 2.83666 13.2694 3.10964C13.1112 3.38262 12.9663 3.6629 12.9474 3.73252C12.8483 4.09801 13.2247 4.45841 13.6058 4.36282C13.7739 4.32065 13.9044 4.16375 14.2037 3.64352C14.3687 3.35686 14.5136 3.12229 14.5259 3.12229C14.5675 3.12229 15.072 3.51379 15.4035 3.80328C15.8854 4.22409 16.736 5.21726 16.7019 5.31937C16.6957 5.33811 16.4574 5.48777 16.1724 5.65193C15.8839 5.81807 15.616 5.99904 15.5682 6.06006C15.4411 6.222 15.4263 6.47266 15.5345 6.6302C15.6679 6.82453 15.7979 6.90221 15.9896 6.90221C16.1366 6.90221 16.2292 6.86144 16.7049 6.5872C17.0056 6.41394 17.2653 6.28076 17.2823 6.29122C17.3442 6.32942 17.6845 7.21711 17.8031 7.64942C17.9376 8.13995 18.0741 8.88461 18.0741 9.12807V9.28482H17.4523C16.8746 9.28482 16.8197 9.29058 16.6764 9.36633C16.3069 9.56156 16.2917 10.0706 16.6487 10.2882C16.754 10.3524 16.8302 10.3594 17.4198 10.3595L18.0741 10.3597V10.5181C18.0741 10.7881 17.9057 11.6827 17.7724 12.1216C17.6357 12.5713 17.4756 12.994 17.3473 13.2441L17.2674 13.3998L16.7125 13.08C16.1152 12.7358 15.9717 12.6962 15.7452 12.8132C15.4293 12.9765 15.3672 13.4202 15.6265 13.662C15.6811 13.713 16.088 13.9622 16.5307 14.2159C17.26 14.6338 17.3513 14.6768 17.5048 14.6745C17.744 14.6709 17.8861 14.5507 18.0828 14.1855C18.6031 13.2198 18.9536 12.1267 19.1201 10.9508C19.1457 10.7706 19.1662 10.2807 19.1666 9.84016C19.1676 8.91377 19.107 8.40279 18.8983 7.58063C18.7231 6.89028 18.5642 6.46159 18.2336 5.78715C16.9053 3.07836 14.3186 1.19535 11.3218 0.755766C10.7781 0.676011 9.78457 0.642046 9.27284 0.685685Z" fill="#162921"/>
<path fill-rule="evenodd" clip-rule="evenodd" d="M6.35354 5.69288C6.10083 5.81975 5.99837 6.12193 6.11621 6.39261C6.1441 6.45667 6.7394 7.07891 7.45568 7.79265L8.74496 9.0774L8.67452 9.26163C8.4639 9.81249 8.60167 10.502 9.01205 10.9507C9.46971 11.4512 10.1517 11.6353 10.782 11.4285L11.0182 11.351L11.3474 11.6754C11.7244 12.0469 11.7759 12.0793 11.9879 12.0791C12.2751 12.0789 12.5187 11.8437 12.5189 11.5663C12.5191 11.3744 12.4821 11.3179 12.0997 10.9262C11.7853 10.6042 11.7642 10.5735 11.8047 10.4979C11.8823 10.353 11.9446 10.0602 11.945 9.83854C11.9473 8.67601 10.8058 7.86453 9.69962 8.2422L9.48972 8.31385L8.18118 7.00947C7.46149 6.29208 6.82723 5.68822 6.77173 5.66762C6.62615 5.61352 6.4959 5.62136 6.35354 5.69288ZM10.4643 9.25109C10.804 9.37936 10.963 9.78591 10.7991 10.1071C10.6862 10.3281 10.5365 10.4132 10.2605 10.4132C9.98445 10.4132 9.83477 10.3281 9.72192 10.1071C9.47412 9.62163 9.96047 9.06084 10.4643 9.25109ZM8.26152 13.978C7.90449 14.1956 7.91976 14.7046 8.2892 14.8999L8.44343 14.9814H10.2605H12.0776L12.2318 14.8999C12.6012 14.7046 12.6165 14.1956 12.2595 13.978C12.1468 13.9093 12.0754 13.9068 10.2605 13.9068C8.44554 13.9068 8.3742 13.9093 8.26152 13.978Z" fill="#7367F0"/>
</svg>
