<svg width="23" height="23" viewBox="0 0 23 23" fill="none" xmlns="http://www.w3.org/2000/svg">
<path fill-rule="evenodd" clip-rule="evenodd" d="M9.67552 2.2085C8.8834 2.38808 8.19552 2.92963 7.84306 3.65108C7.5353 4.28115 7.55663 3.92336 7.54227 8.6896L7.52954 12.9189L7.37832 13.0537C6.8287 13.5434 6.40641 14.1642 6.14297 14.8698C5.73914 15.9515 5.81091 17.2554 6.33243 18.3105C6.78685 19.23 7.45754 19.8958 8.37372 20.3369C10.003 21.1213 11.9074 20.8161 13.2056 19.5623C14.6303 18.1865 14.9814 16.1152 14.0883 14.3553C13.8701 13.9252 13.5849 13.545 13.2061 13.1792L12.8952 12.879L12.8855 8.59693L12.8758 4.31479L12.7778 4.02385C12.4877 3.16292 11.8454 2.53704 10.9689 2.26138C10.6308 2.155 10.0213 2.13009 9.67552 2.2085ZM10.7748 3.34818C11.206 3.51259 11.5486 3.84459 11.7159 4.26023L11.7964 4.46026L11.8144 8.89707C11.835 13.9747 11.7923 13.433 12.1957 13.7324C12.7712 14.1595 13.2216 14.8535 13.4052 15.5959C13.5174 16.0497 13.5163 16.7378 13.4026 17.1682C13.1426 18.153 12.5184 18.9225 11.6322 19.3508C11.1378 19.5897 10.8393 19.6547 10.2313 19.6558C9.60281 19.657 9.31976 19.5917 8.77417 19.3198C7.94294 18.9056 7.3065 18.1153 7.05817 17.1888C6.94754 16.7761 6.948 15.9719 7.05914 15.5523C7.2231 14.933 7.63384 14.2636 8.07722 13.8931C8.18199 13.8055 8.34522 13.6585 8.43996 13.5664L8.61226 13.3988L8.61338 9.16594C8.61403 6.66655 8.62871 4.82135 8.64921 4.66028C8.73319 4.0005 9.20732 3.46143 9.85355 3.29094C10.0978 3.22649 10.5254 3.25308 10.7748 3.34818ZM9.99473 6.55011C9.905 6.59622 9.81771 6.68008 9.76986 6.76613L9.69164 6.90676V10.563V14.2193L9.55672 14.2634C8.47882 14.6161 7.82946 15.7948 8.10755 16.8939C8.31338 17.7074 8.90877 18.3092 9.71355 18.5173C10.8977 18.8234 12.1187 18.0391 12.3761 16.807C12.4801 16.3089 12.3801 15.7071 12.1177 15.2531C11.888 14.8557 11.4078 14.4498 10.9815 14.2927L10.772 14.2155L10.7625 10.5316C10.7531 6.87505 10.7525 6.8469 10.6788 6.74722C10.4924 6.49486 10.2425 6.42286 9.99473 6.55011ZM10.714 15.3674C11.1065 15.5615 11.3251 15.9204 11.3251 16.3706C11.3251 16.8244 11.1069 17.1791 10.7049 17.3787C10.5364 17.4623 10.4545 17.4796 10.2313 17.479C9.7858 17.4778 9.43946 17.2638 9.23176 16.8615C9.10212 16.6104 9.0955 16.1839 9.21708 15.916C9.48023 15.336 10.1524 15.0896 10.714 15.3674Z" fill="#162921"/>
<path d="M14.2377 5.31178C13.8632 5.07779 13.9307 4.50384 14.3509 4.35022C14.4649 4.30855 14.6854 4.29942 15.4123 4.30625C16.2562 4.31422 16.3395 4.32073 16.4519 4.38764C16.8139 4.60316 16.8341 5.06968 16.4917 5.30592C16.3756 5.38597 16.3512 5.38775 15.3662 5.38775C14.4078 5.38775 14.3535 5.38407 14.2377 5.31178Z" fill="#7367F0"/>
<path d="M14.058 6.77913C14.1272 6.64439 14.2472 6.55481 14.4147 6.51295C14.4786 6.49703 14.9355 6.48688 15.4302 6.49048C16.2584 6.49644 16.3394 6.50273 16.4519 6.56969C16.8139 6.7852 16.8341 7.25172 16.4917 7.48796C16.3756 7.56804 16.3515 7.56979 15.362 7.56964C14.4226 7.56954 14.3427 7.56448 14.2357 7.49851C14.0133 7.36151 13.9307 7.02693 14.058 6.77913Z" fill="#7367F0"/>
<path d="M14.058 8.96117C14.1271 8.82654 14.247 8.737 14.4147 8.69474C14.4786 8.67867 14.9355 8.66856 15.4302 8.67227C16.2581 8.67845 16.3394 8.68478 16.4519 8.75173C16.8139 8.96724 16.8341 9.43376 16.4917 9.67C16.3756 9.75009 16.3515 9.75183 15.362 9.75169C14.4226 9.75158 14.3427 9.74652 14.2357 9.68055C14.0133 9.54355 13.9307 9.20898 14.058 8.96117Z" fill="#7367F0"/>
<path d="M14.058 11.1432C14.1271 11.0086 14.247 10.919 14.4147 10.8768C14.4786 10.8607 14.9355 10.8506 15.4302 10.8543C16.2581 10.8605 16.3394 10.8668 16.4519 10.9338C16.8139 11.1493 16.8341 11.6158 16.4917 11.852C16.3756 11.9321 16.3515 11.9339 15.362 11.9337C14.4226 11.9336 14.3427 11.9286 14.2357 11.8626C14.0133 11.7256 13.9307 11.391 14.058 11.1432Z" fill="#7367F0"/>
</svg>
