<svg width="24" height="24" viewBox="0 0 24 24" fill="none" xmlns="http://www.w3.org/2000/svg">
<circle cx="12" cy="12" r="12" fill="#EAFBF3"/>
<path fill-rule="evenodd" clip-rule="evenodd" d="M8.74973 7.94415C9.59396 7.25742 10.6706 6.81581 11.7568 6.71073C12.0427 6.68305 12.7903 6.70173 13.0647 6.74339C13.6749 6.83604 14.185 6.99555 14.7361 7.26605C15.3243 7.5548 15.7465 7.85454 16.2073 8.31068C16.6767 8.77527 17.0019 9.22795 17.2936 9.82298C17.5669 10.3806 17.7222 10.88 17.82 11.516C17.8741 11.8679 17.8741 12.6933 17.82 13.0452C17.7222 13.6812 17.5669 14.1806 17.2936 14.7382C16.8473 15.6485 16.1937 16.3918 15.3428 16.9567C14.8521 17.2824 14.1055 17.6014 13.5344 17.7293C13.0574 17.8362 12.8254 17.8604 12.2782 17.8604C11.7309 17.8604 11.499 17.8362 11.0219 17.7293C10.2624 17.5592 9.41443 17.1488 8.78753 16.6481C8.53958 16.4501 8.14328 16.057 7.94125 15.8087C7.42383 15.1727 7.00275 14.3127 6.82884 13.5367C6.72196 13.0597 6.69775 12.8278 6.69775 12.2806C6.69775 11.7334 6.72196 11.5015 6.82884 11.0245C6.99904 10.2651 7.40941 9.41718 7.91018 8.79034C8.10823 8.54242 8.50141 8.14616 8.74973 7.94415ZM12.2791 17.3023C15.0533 17.3023 17.3023 15.0533 17.3023 12.2791C17.3023 9.5048 15.0533 7.25581 12.2791 7.25581C9.5048 7.25581 7.25581 9.5048 7.25581 12.2791C7.25581 15.0533 9.5048 17.3023 12.2791 17.3023Z" fill="#162921"/>
<path fill-rule="evenodd" clip-rule="evenodd" d="M11.1714 10.8937C11.1424 10.9064 11.1044 10.9328 11.0869 10.9523C11.0695 10.9719 10.9151 11.211 10.7439 11.4837L10.4327 11.9796L10.205 11.9843L9.97736 11.989L9.91924 11.8767C9.81495 11.6751 9.60925 11.5151 9.37696 11.4548C8.77873 11.2996 8.20634 11.8716 8.36246 12.4685C8.47959 12.9164 8.94031 13.1947 9.37696 13.0815C9.60888 13.0213 9.81473 12.8613 9.91924 12.66L9.97736 12.5481L10.3072 12.548C10.6603 12.5479 10.7169 12.5374 10.7868 12.4584C10.807 12.4355 10.9008 12.2929 10.9951 12.1414C11.0894 11.9899 11.1687 11.8659 11.1712 11.8659C11.1738 11.8659 11.269 12.2378 11.3829 12.6922C11.5876 13.5094 11.5906 13.5192 11.6537 13.5826C11.7588 13.6884 11.9077 13.6945 12.0254 13.5979C12.0834 13.5503 12.1098 13.4892 12.3583 12.829C12.5067 12.4346 12.6332 12.1175 12.6392 12.1244C12.6453 12.1313 12.7278 12.4478 12.8225 12.8278C12.9916 13.5064 12.9957 13.5196 13.0584 13.5826C13.1618 13.6866 13.3251 13.6945 13.4286 13.6006C13.4572 13.5747 13.6211 13.3292 13.7928 13.0551L14.105 12.5567L14.3326 12.552L14.5603 12.5473L14.6184 12.6596C14.7227 12.8612 14.9284 13.0212 15.1607 13.0815C15.5986 13.1951 16.0581 12.9164 16.1759 12.4659C16.3313 11.8716 15.7574 11.3 15.1607 11.4548C14.9288 11.515 14.7229 11.675 14.6184 11.8763L14.5603 11.9882L14.2305 11.9883C13.8774 11.9883 13.8208 11.9989 13.7509 12.0779C13.7307 12.1008 13.6369 12.2434 13.5426 12.3949C13.4482 12.5464 13.369 12.6704 13.3664 12.6704C13.3639 12.6704 13.2687 12.2985 13.1548 11.8441C12.9501 11.0269 12.9471 11.017 12.884 10.9536C12.7787 10.8477 12.6197 10.8419 12.5077 10.9398C12.4559 10.9852 12.4166 11.077 12.1792 11.7079C12.0308 12.102 11.9045 12.4188 11.8984 12.4119C11.8923 12.4049 11.8101 12.0897 11.7156 11.7112C11.5749 11.148 11.5356 11.0135 11.4989 10.97C11.4193 10.8757 11.2839 10.8442 11.1714 10.8937ZM9.28955 12.0122C9.46995 12.0873 9.51394 12.3228 9.37364 12.4626C9.17636 12.659 8.85308 12.4831 8.90498 12.2074C8.93601 12.0428 9.12839 11.9451 9.28955 12.0122ZM15.4704 12.0122C15.6508 12.0873 15.6948 12.3228 15.5545 12.4626C15.4406 12.576 15.2779 12.576 15.164 12.4626C14.9469 12.2463 15.1865 11.8941 15.4704 12.0122Z" fill="#7367F0"/>
</svg>
