<svg width="22" height="22" viewBox="0 0 22 22" fill="none" xmlns="http://www.w3.org/2000/svg">
<path fill-rule="evenodd" clip-rule="evenodd" d="M14.4834 1.88508C13.8076 2.05149 13.2437 2.60569 13.0089 3.33401C12.9474 3.52481 12.9413 3.77644 12.9293 6.61228C12.9221 8.30169 12.9102 9.68389 12.9029 9.68389C12.8955 9.68389 12.7509 9.65072 12.5815 9.61017C12.1255 9.50099 11.4856 9.44617 11.0015 9.47484C10.1859 9.52312 9.68754 9.65244 8.88066 10.0252C8.04683 10.4105 7.62594 10.5105 6.83865 10.5105C6.05137 10.5105 5.63048 10.4105 4.79665 10.0252C3.96067 9.63899 3.37751 9.49385 2.6184 9.4831C2.16775 9.47672 2.09451 9.50335 1.92366 9.73593C1.80553 9.89671 1.81795 10.1953 1.95006 10.3713C2.07532 10.5382 2.17477 10.5675 2.79169 10.6195C3.36616 10.668 3.72941 10.7722 4.42271 11.0874C5.35752 11.5124 5.9077 11.6377 6.83865 11.6377C7.76961 11.6377 8.31979 11.5124 9.2546 11.0874C9.54631 10.9548 9.92394 10.8053 10.0938 10.7553C10.8706 10.5265 11.868 10.543 12.634 10.7973L12.9206 10.8924V12.4261V13.9598L12.654 13.8901C12.1921 13.7693 11.7372 13.7303 11.0596 13.7532C10.158 13.7837 9.7745 13.8803 8.80661 14.321C8.50939 14.4563 8.14547 14.601 7.99788 14.6425C7.42274 14.8045 6.54232 14.827 5.90607 14.6959C5.5941 14.6317 5.33208 14.5346 4.75783 14.2705C3.96544 13.906 3.478 13.7816 2.73475 13.7542C2.20058 13.7344 2.0758 13.7691 1.92399 13.9794C1.8181 14.1261 1.81792 14.4476 1.92366 14.5915C2.08674 14.8135 2.16479 14.8438 2.65138 14.8737C3.36879 14.9178 3.68028 15.0048 4.50139 15.3905C5.29699 15.7642 5.90182 15.8963 6.82017 15.897C7.79368 15.8978 8.28345 15.7899 9.22058 15.3684C9.47628 15.2534 9.78533 15.121 9.90734 15.0744C10.6508 14.7898 12.0513 14.8081 12.7951 15.112C12.9314 15.1677 12.9423 15.1845 13.0002 15.4281C13.0991 15.8446 13.2401 16.0973 13.5482 16.4105C13.7414 16.607 13.8998 16.7288 14.0667 16.8093C14.5243 17.03 14.5176 17.0295 16.8766 17.0295C18.8711 17.0295 19.0567 17.0241 19.2613 16.9604C19.8096 16.7896 20.2581 16.4212 20.5084 15.936C20.7728 15.4234 20.7575 15.8198 20.7581 9.45597C20.7585 5.5263 20.7462 3.65342 20.7189 3.50061C20.62 2.94611 20.1843 2.34377 19.692 2.08087C19.2195 1.82853 19.245 1.83075 16.8411 1.83428C15.23 1.83664 14.6273 1.84965 14.4834 1.88508ZM19.0949 3.03647C19.3 3.13082 19.4467 3.26879 19.5512 3.46552C19.6258 3.60589 19.6318 3.67695 19.6426 4.54237L19.6541 5.46893L19.2477 5.4817C18.8085 5.49549 18.7266 5.52788 18.5611 5.75317C18.4501 5.90429 18.4561 6.20499 18.5736 6.3723C18.7019 6.55513 18.8479 6.60289 19.2786 6.60289H19.6495V7.16318V7.72343L19.2454 7.73617C18.8087 7.74989 18.7264 7.78254 18.5611 8.00756C18.4501 8.15868 18.4561 8.45938 18.5736 8.6267C18.7019 8.80953 18.8479 8.85728 19.2786 8.85728H19.6495V9.41757V9.97783L19.2454 9.99057C18.8087 10.0043 18.7264 10.0369 18.5611 10.262C18.4501 10.4131 18.4561 10.7138 18.5736 10.8811C18.7019 11.064 18.8478 11.1117 19.2798 11.1117H19.6519L19.6415 13.1688C19.6311 15.1999 19.63 15.2279 19.5505 15.3788C19.447 15.5753 19.2178 15.7852 19.035 15.8508C18.9201 15.892 18.4803 15.9023 16.8211 15.9023C14.9432 15.9023 14.7382 15.8963 14.6165 15.8379C14.408 15.7379 14.257 15.5905 14.1481 15.3807L14.0482 15.1884V9.43967V3.69096L14.1293 3.52188C14.216 3.34074 14.2545 3.28949 14.4063 3.15235C14.6151 2.96362 14.6406 2.96163 16.8581 2.96076C18.8629 2.95997 18.9338 2.96238 19.0949 3.03647ZM2.17832 18.0379C1.93952 18.149 1.78679 18.4498 1.84624 18.6918C1.88558 18.8521 2.03738 19.0296 2.17052 19.071C2.23685 19.0916 2.45724 19.1197 2.66033 19.1333C3.34841 19.1797 3.62497 19.256 4.43547 19.6231C5.3591 20.0416 5.91272 20.1668 6.83865 20.1668C7.77612 20.1668 8.30393 20.0454 9.2973 19.6012C9.61249 19.4602 9.99311 19.3105 10.1431 19.2685C10.5316 19.1596 11.1363 19.1012 11.5656 19.131C12.255 19.1789 12.5376 19.257 13.3457 19.6231C14.2694 20.0416 14.823 20.1668 15.7489 20.1668C16.6864 20.1668 17.2142 20.0454 18.2076 19.6012C18.922 19.2817 19.213 19.1989 19.7974 19.149C20.4133 19.0965 20.5124 19.0671 20.6375 18.9005C20.7696 18.7244 20.7821 18.4258 20.6639 18.2651C20.4931 18.0325 20.4198 18.0058 19.9692 18.0122C19.2101 18.023 18.6269 18.1681 17.7909 18.5544C16.9534 18.9413 16.5366 19.0397 15.737 19.0395C14.965 19.0392 14.5192 18.9312 13.6714 18.5389C12.7796 18.1264 12.2612 18.0113 11.2938 18.0113C10.3172 18.0113 9.80807 18.1259 8.88066 18.5544C8.04317 18.9413 7.62631 19.0397 6.82675 19.0395C6.05473 19.0392 5.60893 18.9312 4.76108 18.5389C3.99062 18.1825 3.4797 18.051 2.69778 18.0078C2.38984 17.9909 2.26373 17.9981 2.17832 18.0379Z" fill="#162921"/>
<path fill-rule="evenodd" clip-rule="evenodd" d="M16.266 5.51809C15.9319 5.58888 15.6418 5.80234 15.4931 6.08671C15.3633 6.33506 15.3723 6.19404 15.3662 8.07273L15.3609 9.73978L15.2971 9.7929C15.0653 9.98592 14.8872 10.2306 14.7761 10.5088C14.6057 10.9351 14.636 11.4491 14.856 11.865C15.0476 12.2274 15.3305 12.4898 15.7169 12.6637C16.4041 12.9729 17.2073 12.8526 17.7549 12.3584C18.3558 11.8161 18.5039 10.9996 18.1272 10.3059C18.0351 10.1364 17.9148 9.98658 17.7551 9.84239L17.624 9.72407L17.6199 8.0362L17.6158 6.34832L17.5744 6.23364C17.4521 5.8943 17.1812 5.64759 16.8115 5.53893C16.6689 5.49701 16.4118 5.48719 16.266 5.51809ZM16.7296 5.96732C16.9115 6.03212 17.056 6.16299 17.1266 6.32682L17.1605 6.40566L17.1681 8.15451C17.1768 10.1559 17.1588 9.94243 17.3289 10.0604C17.5716 10.2288 17.7616 10.5023 17.839 10.795C17.8864 10.9738 17.8859 11.245 17.838 11.4147C17.7283 11.8029 17.465 12.1062 17.0913 12.275C16.8827 12.3692 16.7568 12.3948 16.5004 12.3952C16.2353 12.3957 16.1159 12.37 15.8858 12.2628C15.5352 12.0995 15.2668 11.788 15.1621 11.4228C15.1154 11.2602 15.1156 10.9432 15.1625 10.7778C15.2316 10.5337 15.4049 10.2698 15.5919 10.1238C15.6361 10.0893 15.7049 10.0313 15.7449 9.995L15.8175 9.92896L15.818 8.26048C15.8183 7.27531 15.8245 6.54799 15.8331 6.4845C15.8685 6.22444 16.0685 6.01196 16.3411 5.94475C16.4441 5.91935 16.6244 5.92983 16.7296 5.96732ZM16.4006 7.22941C16.3628 7.24759 16.326 7.28064 16.3058 7.31456L16.2728 7.36999V8.81117V10.2523L16.2159 10.2697C15.7613 10.4088 15.4874 10.8734 15.6047 11.3066C15.6915 11.6272 15.9426 11.8645 16.282 11.9465C16.7815 12.0671 17.2965 11.758 17.405 11.2723C17.4489 11.076 17.4067 10.8388 17.296 10.6598C17.1991 10.5032 16.9966 10.3432 16.8168 10.2813L16.7285 10.2509L16.7245 8.79877C16.7205 7.35749 16.7202 7.3464 16.6892 7.3071C16.6105 7.20764 16.5051 7.17925 16.4006 7.22941ZM16.704 10.7049C16.8695 10.7814 16.9617 10.9229 16.9617 11.1003C16.9617 11.2792 16.8697 11.419 16.7001 11.4977C16.6291 11.5306 16.5945 11.5375 16.5004 11.5372C16.3125 11.5367 16.1664 11.4524 16.0788 11.2938C16.0241 11.1949 16.0214 11.0267 16.0726 10.9211C16.1836 10.6925 16.4671 10.5954 16.704 10.7049Z" fill="#7367F0"/>
</svg>
