<svg width="19" height="20" viewBox="0 0 19 20" fill="none" xmlns="http://www.w3.org/2000/svg">
<path d="M9.86014 13.8219C8.82574 13.8047 7.99182 13.5713 7.28216 12.9984C6.30575 12.2107 5.95092 11.1501 6.02898 9.9317C6.10059 8.7945 6.60508 7.81236 7.21664 6.88393C7.66241 6.20722 8.15504 5.55914 8.60664 4.88744C8.83794 4.54263 9.03084 4.17133 9.22924 3.80576C9.33984 3.60203 9.49704 3.48351 9.72654 3.48638C9.94784 3.48638 10.0993 3.60203 10.2117 3.79609C10.4795 4.25905 10.738 4.73025 11.0413 5.16994C11.6299 6.02353 12.2723 6.84133 12.7496 7.76796C13.1699 8.58361 13.4564 9.4325 13.4259 10.3681C13.3708 12.0757 12.2726 13.3879 10.5966 13.7227C10.3102 13.7789 10.0194 13.8008 9.86014 13.8219ZM9.69614 5.13449C8.99974 6.19898 8.30514 7.22373 7.65203 8.27318C7.32935 8.79206 7.13891 9.3822 7.0974 9.9918C7.02579 10.9972 7.42466 11.9751 8.42224 12.4624C8.95924 12.7227 9.52714 12.7753 10.1143 12.7198C11.3818 12.5999 12.2852 11.6532 12.3482 10.3842C12.389 9.5607 12.1334 8.81061 11.7159 8.12852C11.2286 7.33114 10.6811 6.57064 10.1576 5.79581C10.0205 5.58993 9.87444 5.38835 9.69614 5.13449Z" fill="#7367F0"/>
<path fill-rule="evenodd" clip-rule="evenodd" d="M10.6508 0.883798C10.9173 0.921828 11.1841 0.959888 11.4488 1.01203C12.3212 1.18586 13.1583 1.5049 13.9251 1.95586C14.223 2.1288 14.319 2.4489 14.1618 2.71744C14.0071 2.98025 13.6895 3.05794 13.3973 2.89073C12.2036 2.20685 10.9189 1.84809 9.5483 1.91611C6.76156 2.05396 4.67018 3.34582 3.30242 5.78845C3.28954 5.81229 3.27889 5.83613 3.26201 5.87391V5.87392C3.25353 5.89289 3.24349 5.91537 3.23081 5.94313C3.32224 5.89981 3.40842 5.85653 3.4916 5.81476V5.81475C3.66902 5.72565 3.83282 5.64339 4.00492 5.58221C4.15358 5.53062 4.31374 5.52182 4.46716 5.55679C4.67304 5.6087 4.78368 5.78093 4.79836 5.99862C4.81447 6.23709 4.71529 6.41826 4.50189 6.52496C4.27053 6.64051 4.03655 6.75175 3.80279 6.86288C3.71349 6.90533 3.62423 6.94777 3.53515 6.99043C3.44451 7.03374 3.35394 7.0772 3.26338 7.12066C3.01554 7.2396 2.76776 7.35851 2.51864 7.47416C2.19031 7.62669 1.90244 7.52428 1.74489 7.19774C1.43458 6.55325 1.12606 5.90875 0.819332 5.26426C0.671092 4.95061 0.767052 4.63373 1.04526 4.49803C1.3317 4.3591 1.6339 4.48514 1.79251 4.81025C1.86114 4.95031 1.92933 5.09104 1.99756 5.23188L1.99757 5.2319C2.05144 5.34309 2.10534 5.45434 2.15952 5.56538C2.16381 5.57433 2.17814 5.57863 2.17312 5.57541C2.25263 5.44602 2.32969 5.31483 2.40677 5.18361V5.1836C2.57648 4.89468 2.74622 4.60569 2.94222 4.33583C4.37693 2.35938 6.31721 1.22293 8.7362 0.898528C8.8467 0.884518 8.957 0.868068 9.0673 0.851628L9.1931 0.833008H10.303C10.4188 0.850698 10.5347 0.867248 10.6508 0.883798ZM10.1955 19.1653C9.7472 18.9236 9.6763 18.6307 9.9649 18.2082L10.4103 17.5576C10.3759 17.5499 10.3409 17.5453 10.3058 17.5436C8.2949 17.6589 6.46386 17.1355 4.84224 15.9457C2.917 14.5328 1.77052 12.6376 1.45651 10.2594C1.41602 9.9041 1.39379 9.5469 1.38991 9.1892C1.38024 8.83904 1.60474 8.60094 1.92054 8.5995C2.23634 8.59807 2.45762 8.83403 2.4612 9.1831C2.47552 11.2713 3.23101 13.0501 4.74843 14.4773C6.25798 15.8984 8.0694 16.5522 10.1625 16.4419L9.7644 16.1662C9.7294 16.1421 9.6943 16.1183 9.6592 16.0944C9.5957 16.0514 9.5322 16.0083 9.4697 15.9636C9.2108 15.7784 9.1424 15.4548 9.3079 15.2084C9.4733 14.9621 9.7977 14.8937 10.0651 15.0727C10.4454 15.3274 10.8222 15.587 11.1989 15.8465L11.1991 15.8466C11.3377 15.9421 11.4764 16.0377 11.6152 16.1329C11.6391 16.1493 11.6632 16.1656 11.6873 16.1818C11.7621 16.2324 11.837 16.2829 11.9088 16.3374C12.1426 16.5164 12.2145 16.8111 12.052 17.0535C11.6252 17.6934 11.1894 18.3271 10.7447 18.9544C10.6987 19.0194 10.6216 19.0629 10.5448 19.1063C10.5104 19.1257 10.4761 19.1451 10.4447 19.1663L10.1955 19.1653ZM15.7854 5.47786C15.7918 5.39176 15.7983 5.30502 15.805 5.21734C15.8156 5.22309 15.824 5.22724 15.8307 5.23057C15.8429 5.23655 15.8495 5.23984 15.8537 5.24491C15.8687 5.26352 15.8825 5.28314 15.8949 5.30363C16.7882 6.73512 17.1538 8.28943 16.9719 9.9683C16.8043 11.5148 16.1981 12.8707 15.172 14.0379C14.6642 14.6162 14.0674 15.087 13.4111 15.4891C13.2735 15.5779 13.1665 15.7067 13.1046 15.8583C13.0233 16.0685 13.1042 16.2722 13.2915 16.4108C13.5038 16.5679 13.7222 16.5497 13.9424 16.4158C16.4112 14.913 17.7936 12.7175 18.0622 9.8459C18.2412 7.93352 17.7542 6.1694 16.7016 4.56282C16.6856 4.53827 16.6715 4.51229 16.6544 4.48065C16.6458 4.46477 16.6364 4.44746 16.6256 4.42819C16.7307 4.43558 16.8333 4.44318 16.9342 4.45066C17.1466 4.4664 17.3515 4.48159 17.5566 4.493C17.8738 4.5109 18.1205 4.30896 18.1474 4.02252C18.176 3.71424 17.983 3.4611 17.6579 3.43138C16.9034 3.36382 16.1481 3.30618 15.3922 3.25844C15.0989 3.23982 14.8787 3.44642 14.8465 3.73823C14.8284 3.90167 14.8159 4.06738 14.8035 4.23261C14.8011 4.26393 14.7988 4.29524 14.7964 4.32651C14.7869 4.44881 14.7772 4.57111 14.7676 4.69342C14.7336 5.12398 14.6996 5.55463 14.6718 5.98572C14.6607 6.09998 14.6878 6.21469 14.7489 6.31188C14.81 6.40907 14.9016 6.48324 15.0094 6.5228C15.3567 6.65742 15.7069 6.4186 15.7427 6.02475C15.7583 5.84343 15.7718 5.66212 15.7854 5.47786Z" fill="#162921"/>
</svg>
