<svg width="22" height="22" viewBox="0 0 22 22" fill="none" xmlns="http://www.w3.org/2000/svg">
<path d="M6.85353 13.1156H2.32701C1.93809 13.1156 1.62188 12.7994 1.62188 12.4105V9.58994C1.62188 9.20102 1.93809 8.88482 2.32701 8.88482H6.85353C6.92152 8.64479 7.00085 8.40948 7.09119 8.17969H1.26925C1.07503 8.17969 0.916687 8.33803 0.916687 8.53225V13.4681C0.916687 13.6624 1.07503 13.8207 1.26925 13.8207H7.09079C7.00092 13.5909 6.92159 13.3556 6.85344 13.1156H6.85353Z" fill="#162921"/>
<path fill-rule="evenodd" clip-rule="evenodd" d="M13.2565 1.83301H19.6026V1.83303C20.5747 1.83303 21.3655 2.62378 21.3655 3.59585V7.77424C20.1389 5.10337 17.4404 3.24328 14.3142 3.24328C13.3193 3.24328 12.3683 3.43371 11.4937 3.77636V3.59583C11.4937 2.62376 12.2844 1.83301 13.2565 1.83301ZM18.8975 3.59583C18.8975 4.17899 19.372 4.65352 19.9552 4.65352C20.5384 4.65352 21.0129 4.17899 21.0129 3.59583C21.0129 3.01267 20.5384 2.53814 19.9552 2.53814C19.372 2.53814 18.8975 3.01267 18.8975 3.59583ZM20.3078 3.59582C20.3078 3.79052 20.1499 3.94838 19.9552 3.94838C19.7605 3.94838 19.6027 3.79052 19.6027 3.59582C19.6027 3.40112 19.7605 3.24326 19.9552 3.24326C20.1499 3.24326 20.3078 3.40112 20.3078 3.59582ZM9.37808 4.30108C9.60691 4.30108 9.81531 4.41535 9.94468 4.5951L9.9447 4.5951C9.56002 4.85841 9.20007 5.15572 8.86891 5.48247C8.7474 5.35452 8.67295 5.18816 8.67295 5.00621C8.67295 4.61729 8.98916 4.30108 9.37808 4.30108ZM12.9039 20.1664C12.7097 20.1664 12.5513 20.008 12.5513 19.8138V18.5516C13.0076 18.658 13.4786 18.7254 13.9616 18.7473V19.8138C13.9616 20.008 13.8032 20.1664 13.609 20.1664H12.9039ZM3.38456 5.0061C3.38456 4.81187 3.22622 4.65353 3.032 4.65353H2.32687C2.13264 4.65353 1.9743 4.81187 1.9743 5.0061V7.47404H3.38456V5.0061ZM5.49998 14.5253H7.40866C8.32617 16.3146 9.91726 17.7019 11.8461 18.3513V19.4612H7.2628C6.29073 19.4612 5.49998 18.6705 5.49998 17.6984V14.5253ZM6.2051 17.6984C6.2051 18.2816 6.67964 18.7561 7.2628 18.7561C7.84596 18.7561 8.32049 18.2816 8.32049 17.6984C8.32049 17.1152 7.84596 16.6407 7.2628 16.6407C6.67964 16.6407 6.2051 17.1152 6.2051 17.6984ZM6.91024 6.41634C6.91024 6.22212 6.7519 6.06378 6.55767 6.06378H5.85254C5.65832 6.06378 5.49998 6.22212 5.49998 6.41634V7.47404H6.91024V6.41634ZM7.2629 18.0509C7.4576 18.0509 7.61547 17.8931 7.61547 17.6984C7.61547 17.5037 7.4576 17.3458 7.2629 17.3458C7.06821 17.3458 6.91034 17.5037 6.91034 17.6984C6.91034 17.8931 7.06821 18.0509 7.2629 18.0509ZM6.59101 10.2946C6.61257 10.0563 6.64563 9.82111 6.68828 9.58943H2.32656V12.4099H6.68828C6.60408 11.9522 6.55748 11.4813 6.55748 10.9997H5.85236V10.2946H6.59101ZM3.73697 10.9997H3.03184V10.2946H3.73697V10.9997ZM5.14723 10.9997H4.4421V10.2946H5.14723V10.9997ZM2.32687 18.051C2.13264 18.051 1.9743 17.8926 1.9743 17.6984V14.5253H3.38456V17.6984C3.38456 17.8926 3.22622 18.051 3.032 18.051H2.32687Z" fill="#162921"/>
<path fill-rule="evenodd" clip-rule="evenodd" d="M14.3143 3.94824C10.4262 3.94824 7.26306 7.11141 7.26306 10.9995C7.26306 14.8876 10.4262 18.0508 14.3143 18.0508C18.2025 18.0508 21.3656 14.8876 21.3656 10.9995C21.3656 7.11141 18.2025 3.94824 14.3143 3.94824ZM14.3143 16.6405C11.2041 16.6405 8.67332 14.1098 8.67332 10.9995C8.67332 7.88926 11.2041 5.3585 14.3143 5.3585C17.4246 5.3585 19.9554 7.88926 19.9554 10.9995C19.9554 14.1098 17.4246 16.6405 14.3143 16.6405ZM13.2178 8.40063C13.3433 8.34744 13.4751 8.3062 13.6091 8.27157V6.11984C12.8581 6.22813 12.1593 6.49995 11.5568 6.90745H12.8443L13.2178 8.40063ZM11.5865 11.7047H9.43477C9.54306 12.4556 9.81488 13.1544 10.2224 13.7569V12.4695L11.7159 12.0961C11.6624 11.9705 11.6214 11.8386 11.5865 11.7047L11.5865 11.7047ZM17.7012 8.97889L16.5375 9.26976C16.4655 9.17768 16.3901 9.08844 16.308 9.00613L17.7012 7.61239V8.97889ZM15.3758 8.38814C15.5038 8.4404 15.6261 8.50304 15.7443 8.57261L17.2649 7.05203C16.6814 6.61477 16.0005 6.30109 15.2584 6.15643L16.1688 7.06633L15.3758 8.38814ZM11.5177 10.6495C11.5037 10.7644 11.4937 10.8807 11.4937 10.9995L9.52429 10.9995L10.4907 10.0331L11.5177 10.6495ZM12.5844 8.77617L12.2935 7.61239H10.927L12.3208 9.00564C12.4031 8.92349 12.4923 8.8481 12.5844 8.77617ZM11.8872 9.56934C11.8176 9.68755 11.755 9.80984 11.7027 9.9378L10.3809 9.14486L9.47103 10.0552C9.61568 9.31312 9.92936 8.63221 10.3666 8.04876L11.8872 9.56934ZM15.2804 7.17614L14.314 6.20975V8.17924C14.4328 8.17924 14.5491 8.18915 14.664 8.20316L15.2804 7.17614ZM17.1105 11.3496C17.1245 11.2347 17.1344 11.1184 17.1344 10.9995L19.1039 10.9996L18.1375 11.9659L17.1105 11.3496ZM16.0439 13.2229L16.3348 14.3867H17.7013L16.308 12.9934C16.2252 13.0756 16.136 13.151 16.0439 13.2229ZM19.1942 10.2944H17.0422L17.0422 10.2944C17.0072 10.1604 16.9663 10.0285 16.9131 9.90295L18.4066 9.52961V8.24212C18.8141 8.84467 19.0859 9.54347 19.1942 10.2944ZM16.9257 12.0612C16.8735 12.1892 16.8108 12.3115 16.7413 12.4297L18.2618 13.9503C18.6994 13.3668 19.0128 12.6859 19.1574 11.9438L18.2475 12.8542L16.9257 12.0612ZM10.927 13.0202L12.0908 12.7293C12.1627 12.8214 12.2381 12.9106 12.3203 12.9934L10.927 14.3867V13.0202ZM14.3145 15.7893L13.3481 14.8229L13.9644 13.7959C14.0793 13.8099 14.1956 13.8198 14.3145 13.8198V15.7893ZM15.4106 13.5984C15.2852 13.6516 15.1533 13.6929 15.0194 13.7275V15.8796C15.7703 15.7713 16.4691 15.4995 17.0717 15.092H15.7842L15.4106 13.5984ZM14.3141 11.7047C14.7035 11.7047 15.0193 11.3889 15.0193 10.9995C15.0193 10.6101 14.7035 10.2944 14.3141 10.2944C13.9247 10.2944 13.609 10.6101 13.609 10.9995C13.609 11.3889 13.9247 11.7047 14.3141 11.7047ZM13.2525 13.6109C13.1245 13.5587 13.0022 13.496 12.884 13.4265L11.3634 14.947C11.9469 15.3846 12.6278 15.698 13.3699 15.8426L12.4595 14.9327L13.2525 13.6109ZM14.314 8.88417C15.4806 8.88417 16.4294 9.83295 16.4294 10.9996C16.4294 12.1662 15.4806 13.1149 14.314 13.1149C13.1474 13.1149 12.1986 12.1662 12.1986 10.9996C12.1986 9.83295 13.1474 8.88417 14.314 8.88417ZM12.9038 10.9996C12.9038 11.7772 13.5363 12.4098 14.314 12.4098C15.0917 12.4098 15.7243 11.7772 15.7243 10.9996C15.7243 10.2219 15.0917 9.58929 14.314 9.58929C13.5363 9.58929 12.9038 10.2219 12.9038 10.9996Z" fill="#7367F0"/>
</svg>
