<svg width="22" height="22" viewBox="0 0 22 22" fill="none" xmlns="http://www.w3.org/2000/svg">
<path fill-rule="evenodd" clip-rule="evenodd" d="M4.04411 2.45669C5.70793 1.10324 7.82982 0.232907 9.97052 0.0258172C10.534 -0.0287322 12.0074 0.00807898 12.5482 0.0901829C13.7508 0.272775 14.7562 0.587155 15.8422 1.12025C17.0015 1.68934 17.8335 2.28008 18.7418 3.17905C19.6669 4.09468 20.3077 4.98684 20.8826 6.15954C21.4213 7.2585 21.7273 8.24271 21.92 9.49623C22.0267 10.1898 22.0267 11.8164 21.92 12.51C21.7273 13.7635 21.4213 14.7477 20.8826 15.8467C20.0031 17.6407 18.715 19.1055 17.0379 20.2189C16.0709 20.8607 14.5994 21.4895 13.4739 21.7417C12.5337 21.9523 12.0766 22 10.9981 22C9.91949 22 9.46243 21.9523 8.5222 21.7417C7.02535 21.4063 5.35412 20.5976 4.1186 19.6108C3.62993 19.2205 2.84889 18.4457 2.45072 17.9563C1.43097 16.703 0.601098 15.008 0.258352 13.4787C0.0477089 12.5386 0 12.0816 0 11.0031C0 9.92465 0.0477089 9.46764 0.258352 8.52751C0.593778 7.03083 1.40255 5.35977 2.38949 4.12438C2.77982 3.63576 3.5547 2.85481 4.04411 2.45669ZM11 20.9002C16.4676 20.9002 20.9 16.4679 20.9 11.0002C20.9 5.53262 16.4676 1.10024 11 1.10024C5.53236 1.10024 1.09998 5.53262 1.09998 11.0002C1.09998 16.4679 5.53236 20.9002 11 20.9002Z" fill="#162921"/>
<path fill-rule="evenodd" clip-rule="evenodd" d="M8.81691 8.26953C8.75981 8.29462 8.68492 8.34666 8.65045 8.38516C8.61602 8.42366 8.31183 8.89494 7.97445 9.43246L7.36106 10.4097L6.91239 10.419L6.46368 10.4283L6.34914 10.2069C6.14361 9.80962 5.7382 9.49426 5.28039 9.37549C4.10139 9.06964 2.97329 10.1969 3.28098 11.3733C3.51184 12.256 4.41984 12.8046 5.28039 12.5813C5.73747 12.4628 6.14316 12.1475 6.34914 11.7507L6.46368 11.5301L7.11366 11.53C7.80966 11.5299 7.92119 11.509 8.05889 11.3534C8.09879 11.3083 8.28356 11.0271 8.4695 10.7285C8.6554 10.43 8.81161 10.1857 8.81663 10.1857C8.82162 10.1857 9.00932 10.9185 9.23371 11.8142C9.63718 13.4246 9.6431 13.4441 9.76741 13.5691C9.9747 13.7775 10.2682 13.7895 10.5001 13.5991C10.6143 13.5053 10.6664 13.3849 11.1561 12.0838C11.4486 11.3065 11.6978 10.6816 11.7098 10.6952C11.7218 10.7088 11.8843 11.3325 12.0709 12.0813C12.4042 13.4188 12.4124 13.4449 12.5359 13.5691C12.7396 13.7739 13.0616 13.7895 13.2655 13.6046C13.3218 13.5534 13.6448 13.0696 13.9832 12.5294L14.5985 11.5471L15.0472 11.5378L15.4959 11.5286L15.6105 11.75C15.816 12.1472 16.2214 12.4626 16.6792 12.5813C17.5422 12.8052 18.4477 12.2561 18.68 11.3681C18.9863 10.1968 17.8553 9.0704 16.6792 9.37549C16.2221 9.49405 15.8164 9.80934 15.6105 10.2061L15.4959 10.4267L14.8459 10.4268C14.1499 10.427 14.0384 10.4478 13.9007 10.6035C13.8608 10.6486 13.676 10.9298 13.4901 11.2283C13.3042 11.5268 13.148 11.7711 13.143 11.7711C13.138 11.7711 12.9503 11.0383 12.7259 10.1426C12.3224 8.53219 12.3165 8.51272 12.1922 8.38774C11.9846 8.17902 11.6713 8.16754 11.4506 8.36052C11.3484 8.44989 11.271 8.63083 10.8031 9.87421C10.5107 10.6509 10.2618 11.2753 10.2498 11.2617C10.2378 11.248 10.0756 10.6267 9.88939 9.88079C9.61223 8.77076 9.53475 8.50565 9.46232 8.41993C9.30541 8.2342 9.03863 8.17202 8.81691 8.26953ZM5.10812 10.474C5.46367 10.6219 5.55035 11.0862 5.27385 11.3616C4.88505 11.7488 4.24791 11.402 4.35021 10.8588C4.41136 10.5343 4.7905 10.3418 5.10812 10.474ZM17.2895 10.474C17.6451 10.6219 17.7318 11.0862 17.4553 11.3616C17.2308 11.5851 16.9102 11.5851 16.6858 11.3616C16.2578 10.9354 16.73 10.2412 17.2895 10.474Z" fill="#7367F0"/>
</svg>
