<svg width="24" height="24" viewBox="0 0 24 24" fill="none" xmlns="http://www.w3.org/2000/svg">
<rect opacity="0.1" width="24" height="24" rx="12" fill="#7367F0"/>
<path fill-rule="evenodd" clip-rule="evenodd" d="M9.715 5.60732C10.1837 5.30517 10.8394 5.079 11.4305 5.01563C11.8584 4.96975 12.4707 5.02748 12.9054 5.15472C13.5241 5.33578 14.0358 5.63691 14.5059 6.09657L14.8081 6.39202L14.0869 8.90631C13.75 10.0807 13.486 11.0349 13.4106 11.346C13.1842 11.1121 12.9115 10.9232 12.6074 10.794C12.6947 10.541 12.8736 9.93816 13.1955 8.81809C13.5324 7.64549 13.8084 6.67215 13.8088 6.65509C13.8096 6.61539 13.4621 6.3547 13.2497 6.23569C13.0269 6.1108 12.5219 5.94677 12.2434 5.90874C11.3944 5.79291 10.4986 6.04775 9.87909 6.5814L9.81089 6.64012L10.3729 8.60398C10.6475 9.56319 10.8979 10.4366 10.9724 10.695C10.679 10.7793 10.4081 10.917 10.171 11.0968L10.1375 10.977C10.0677 10.7277 10.0006 10.5237 9.98852 10.5237C9.95783 10.5237 9.79917 10.654 9.61884 10.8273L9.46662 10.9736L9.14231 10.6865C8.86844 10.4441 8.82247 10.3911 8.84656 10.346C8.88723 10.27 9.28402 9.92882 9.53528 9.75393L9.74857 9.60546L9.61749 9.16033C9.54539 8.91548 9.48148 8.71008 9.47551 8.70387C9.46952 8.69767 9.36837 8.74957 9.25072 8.81921C8.32397 9.36764 7.55927 10.2895 7.17211 11.325C7.11922 11.4665 7.06318 11.5823 7.04761 11.5823C7.02109 11.5823 6.25503 11.3468 6.23952 11.3338C6.22026 11.3178 6.43011 10.7947 6.57302 10.5025C7.09616 9.43269 7.95849 8.52349 8.97807 7.96664C9.1073 7.89606 9.21756 7.83478 9.22311 7.83046C9.22863 7.82613 9.14604 7.5176 9.03955 7.14481C8.93305 6.77204 8.84591 6.44586 8.84591 6.41998C8.84591 6.32382 9.38382 5.82082 9.715 5.60732ZM9.23326 12.6471L9.15767 12.666C8.89804 12.7311 8.68299 12.7817 8.67979 12.7785C8.65662 12.7553 8.77566 12.2405 8.85666 12.0136L8.95602 11.7352L8.56305 11.5511C8.34691 11.4499 8.16608 11.3725 8.16118 11.3791C8.1563 11.3858 8.1175 11.4772 8.07495 11.5823C7.9293 11.9421 7.8438 12.314 7.79458 12.8019L7.7739 13.007L6.23198 13.392C5.38392 13.6037 4.65525 13.7859 4.61272 13.7968C4.54255 13.8148 4.52702 13.8474 4.44537 14.1478C4.23434 14.9242 4.25311 15.6355 4.50443 16.387C4.935 17.6744 5.94045 18.6072 7.24894 18.9332L7.51694 19L8.04193 18.4657L8.56689 17.9314L8.67536 18.0063C8.86556 18.1375 9.30963 18.3684 9.60577 18.49C10.4237 18.8258 11.4108 18.9821 12.2526 18.9091C12.804 18.8613 13.0205 18.8183 13.0043 18.7598C12.9972 18.7344 12.9553 18.538 12.9111 18.3234C12.8451 18.0028 12.8225 17.9356 12.7841 17.9467C12.6069 17.9975 12.1961 18.0322 11.7829 18.0312C11.2147 18.0299 10.8005 17.9663 10.2991 17.8034C9.99043 17.7031 9.19697 17.3346 9.19961 17.2927C9.20032 17.2816 9.34423 17.1208 9.51942 16.9353L9.83797 16.5981L10.0982 16.7209C10.5666 16.942 11.035 17.0643 11.5553 17.1013L11.8123 17.1196V16.6741V16.2286L11.7021 16.2285C11.3534 16.2281 10.52 16.0126 10.52 15.9227C10.52 15.9045 10.6687 15.7415 10.8504 15.5607L10.9993 15.4126C10.693 15.3284 10.4107 15.1862 10.165 14.9986C9.68667 15.5022 8.33232 16.9064 7.42091 17.8415L7.23896 18.0282L7.05912 17.9555C6.17532 17.598 5.50709 16.8166 5.26141 15.8532C5.18397 15.5495 5.15974 15.0409 5.20943 14.7612L5.24808 14.5436L7.40678 14.0064C8.17935 13.8141 8.86409 13.6441 9.25103 13.5484C9.21777 13.3875 9.20029 13.2208 9.20029 13.05C9.20029 12.9128 9.21157 12.7782 9.23326 12.6471ZM12.5473 15.3306L14.2649 17.1139C15.3619 18.2529 16.0958 18.9929 16.1283 18.9929C16.2283 18.9929 16.7305 18.8498 16.9506 18.7586C18.4967 18.1179 19.5031 16.4053 19.3016 14.7581C19.2649 14.458 19.1261 13.8941 19.077 13.8456C19.0633 13.832 18.7414 13.7432 18.3618 13.6482L17.6716 13.4756L17.6527 12.9627C17.6175 12.0048 17.4481 11.3052 17.0588 10.509C16.7588 9.89559 16.3671 9.35153 15.8868 8.88117L15.696 8.69429L15.5794 8.82235C15.2765 9.155 15.1311 9.32798 15.1311 9.35565C15.1311 9.37229 15.1847 9.43181 15.2502 9.48792C15.4157 9.62975 15.7317 10.0155 15.9526 10.3453C16.4663 11.1122 16.7758 12.1284 16.7758 13.048V13.2515L16.3059 13.1337L15.836 13.016L15.8359 12.8652C15.8354 12.2862 15.5513 11.417 15.181 10.8619C14.9499 10.5155 14.9397 10.5051 14.8769 10.5544C14.7792 10.631 14.3243 11.0026 14.2876 11.0357C14.26 11.0606 14.2826 11.112 14.3855 11.259C14.6483 11.6342 14.8358 12.0825 14.9113 12.516C14.9354 12.6547 14.9501 12.7732 14.9439 12.7794C14.9345 12.7888 14.5285 12.6932 14.0992 12.5804C14.0809 12.5756 14.0656 12.5711 14.0525 12.566C14.0838 12.7225 14.1003 12.8843 14.1003 13.05C14.1003 13.206 14.0857 13.3586 14.0578 13.5065C14.2141 13.528 14.9862 13.712 16.213 14.0205L18.3871 14.5671L18.4225 14.8164C18.5572 15.7655 18.1305 16.8403 17.3633 17.4842C17.1162 17.6915 16.7442 17.9126 16.5262 17.9816L16.3793 18.0281L15.9802 17.6209C15.0481 16.6702 13.5668 15.1207 13.321 14.842C13.098 15.05 12.836 15.2169 12.5473 15.3306Z" fill="#162921"/>
<circle cx="11.6502" cy="13.05" r="1.95" stroke="#7367F0"/>
</svg>
