<svg width="18" height="22" viewBox="0 0 18 22" fill="none" xmlns="http://www.w3.org/2000/svg">
<path d="M4.83317 16.2084C4.62715 16.2084 4.42575 16.2695 4.25445 16.3839C4.08315 16.4984 3.94964 16.6611 3.8708 16.8514C3.79195 17.0417 3.77133 17.2512 3.81152 17.4533C3.85171 17.6553 3.95092 17.8409 4.0966 17.9866C4.24228 18.1323 4.42789 18.2315 4.62995 18.2717C4.83202 18.3119 5.04146 18.2913 5.2318 18.2124C5.42214 18.1336 5.58482 18.0001 5.69928 17.8288C5.81374 17.6575 5.87484 17.4561 5.87484 17.25C5.87484 16.9738 5.76509 16.7088 5.56974 16.5135C5.37439 16.3181 5.10944 16.2084 4.83317 16.2084ZM4.83317 9.95837C4.62715 9.95837 4.42575 10.0195 4.25445 10.1339C4.08315 10.2484 3.94964 10.4111 3.8708 10.6014C3.79195 10.7917 3.77133 11.0012 3.81152 11.2033C3.85171 11.4053 3.95092 11.5909 4.0966 11.7366C4.24228 11.8823 4.42789 11.9815 4.62995 12.0217C4.83202 12.0619 5.04146 12.0413 5.2318 11.9624C5.42214 11.8836 5.58482 11.7501 5.69928 11.5788C5.81374 11.4075 5.87484 11.2061 5.87484 11C5.87484 10.7238 5.76509 10.4588 5.56974 10.2635C5.37439 10.0681 5.10944 9.95837 4.83317 9.95837ZM13.1665 0.583374H4.83317C3.7281 0.583374 2.66829 1.02236 1.88689 1.80376C1.10549 2.58516 0.666504 3.64497 0.666504 4.75004V17.25C0.666504 18.3551 1.10549 19.4149 1.88689 20.1963C2.66829 20.9777 3.7281 21.4167 4.83317 21.4167H13.1665C14.2716 21.4167 15.3314 20.9777 16.1128 20.1963C16.8942 19.4149 17.3332 18.3551 17.3332 17.25V4.75004C17.3332 3.64497 16.8942 2.58516 16.1128 1.80376C15.3314 1.02236 14.2716 0.583374 13.1665 0.583374ZM15.2498 17.25C15.2498 17.8026 15.0303 18.3325 14.6396 18.7232C14.2489 19.1139 13.719 19.3334 13.1665 19.3334H4.83317C4.28064 19.3334 3.75073 19.1139 3.36003 18.7232C2.96933 18.3325 2.74984 17.8026 2.74984 17.25V14.5834C3.379 14.9621 4.09884 15.1636 4.83317 15.1667H13.1665C13.9008 15.1636 14.6207 14.9621 15.2498 14.5834V17.25ZM15.2498 11C15.2498 11.5526 15.0303 12.0825 14.6396 12.4732C14.2489 12.8639 13.719 13.0834 13.1665 13.0834H4.83317C4.28064 13.0834 3.75073 12.8639 3.36003 12.4732C2.96933 12.0825 2.74984 11.5526 2.74984 11V8.33337C3.379 8.71207 4.09884 8.91363 4.83317 8.91671H13.1665C13.9008 8.91363 14.6207 8.71207 15.2498 8.33337V11ZM13.1665 6.83337H4.83317C4.28064 6.83337 3.75073 6.61388 3.36003 6.22318C2.96933 5.83248 2.74984 5.30257 2.74984 4.75004C2.74984 4.19751 2.96933 3.6676 3.36003 3.2769C3.75073 2.8862 4.28064 2.66671 4.83317 2.66671H13.1665C13.719 2.66671 14.2489 2.8862 14.6396 3.2769C15.0303 3.6676 15.2498 4.19751 15.2498 4.75004C15.2498 5.30257 15.0303 5.83248 14.6396 6.22318C14.2489 6.61388 13.719 6.83337 13.1665 6.83337Z" fill="#7367F0"/>
</svg>
