<svg width="22" height="20" viewBox="0 0 22 20" fill="none" xmlns="http://www.w3.org/2000/svg">
<path d="M19.2753 5.6333L16.4669 16.9083C16.2669 17.75 15.517 18.3333 14.6503 18.3333H3.70027C2.44194 18.3333 1.54195 17.0999 1.91695 15.8916L5.42528 4.625C5.66694 3.84167 6.39196 3.29993 7.20862 3.29993H17.4586C18.2503 3.29993 18.9086 3.78326 19.1836 4.44993C19.342 4.80826 19.3753 5.21663 19.2753 5.6333Z" stroke="#7367F0" stroke-width="2" stroke-miterlimit="10"/>
<path d="M14.333 18.3333H18.3163C19.3913 18.3333 20.233 17.425 20.158 16.35L19.333 5" stroke="#7367F0" stroke-width="2" stroke-miterlimit="10" stroke-linecap="round" stroke-linejoin="round"/>
<path d="M9.06641 5.31663L9.93308 1.71667" stroke="#7367F0" stroke-width="2" stroke-miterlimit="10" stroke-linecap="round" stroke-linejoin="round"/>
<path d="M14.6504 5.32501L15.4337 1.70837" stroke="#7367F0" stroke-width="2" stroke-miterlimit="10" stroke-linecap="round" stroke-linejoin="round"/>
<path d="M7.41699 10H14.0837" stroke="#7367F0" stroke-width="2" stroke-miterlimit="10" stroke-linecap="round" stroke-linejoin="round"/>
<path d="M6.58301 13.3334H13.2497" stroke="#7367F0" stroke-width="2" stroke-miterlimit="10" stroke-linecap="round" stroke-linejoin="round"/>
</svg>
