<svg width="26" height="26" viewBox="0 0 26 26" fill="none" xmlns="http://www.w3.org/2000/svg">
<path d="M21.3337 9.09367V19.2499C21.3337 22.3749 19.4691 23.4166 17.167 23.4166H8.83366C6.53158 23.4166 4.66699 22.3749 4.66699 19.2499V9.09367C4.66699 5.70825 6.53158 4.927 8.83366 4.927C8.83366 5.57284 9.09405 6.15616 9.52113 6.58325C9.94821 7.01033 10.5316 7.27075 11.1774 7.27075H14.8232C16.1149 7.27075 17.167 6.21867 17.167 4.927C19.4691 4.927 21.3337 5.70825 21.3337 9.09367Z" stroke="#7367F0" stroke-width="2" stroke-linecap="round" stroke-linejoin="round"/>
<path d="M17.1663 4.927C17.1663 6.21867 16.1143 7.27075 14.8226 7.27075H11.1768C10.5309 7.27075 9.94756 7.01033 9.52048 6.58325C9.0934 6.15616 8.83301 5.57284 8.83301 4.927C8.83301 3.63534 9.88509 2.58325 11.1768 2.58325H14.8226C15.4684 2.58325 16.0518 2.84367 16.4789 3.27076C16.906 3.69784 17.1663 4.28117 17.1663 4.927Z" stroke="#7367F0" stroke-width="2" stroke-linecap="round" stroke-linejoin="round"/>
<path d="M8.83301 14.0417H12.9997" stroke="#7367F0" stroke-width="2" stroke-linecap="round" stroke-linejoin="round"/>
<path d="M8.83301 18.2083H17.1663" stroke="#7367F0" stroke-width="2" stroke-linecap="round" stroke-linejoin="round"/>
</svg>
