<svg width="15" height="21" viewBox="0 0 15 21" fill="none" xmlns="http://www.w3.org/2000/svg">
<path d="M5.9886 20.9745C5.7387 20.8674 5.60959 20.6639 5.50689 20.4209C5.1939 19.6785 4.87113 18.941 4.542 18.205C4.49305 18.0932 4.42448 17.991 4.33954 17.9033C3.29787 16.8552 2.24886 15.815 1.20963 14.766C0.359182 13.9087 0.368962 12.581 1.22137 11.7853C1.59778 11.4372 2.0904 11.242 2.60304 11.2376C3.11568 11.2333 3.61153 11.4202 3.99378 11.7618C4.1136 11.8699 4.22755 11.9843 4.36643 12.1164C4.37377 12.0411 4.38257 11.9931 4.38257 11.9452C4.38257 10.9495 4.38257 9.9538 4.38649 8.95811C4.38649 8.829 4.34638 8.76249 4.23195 8.7038C3.51174 8.32714 2.91976 7.74489 2.53122 7.03102C2.14267 6.31716 1.97511 5.50391 2.04982 4.69459C2.2606 2.34717 4.49505 0.627676 6.80727 1.0375C9.6501 1.54171 11.1021 4.62613 9.67895 7.13983C9.65939 7.17357 9.64179 7.20829 9.64032 7.21074L10.2242 8.1145C10.449 8.03366 10.688 7.99977 10.9263 8.01491C11.1647 8.03005 11.3975 8.0939 11.6102 8.20253C12.0689 8.43531 12.3594 8.81188 12.5223 9.30729C12.8856 9.17769 13.2441 9.14248 13.605 9.24615C14.4291 9.48334 14.9255 10.1264 14.9215 11.0106C14.9137 12.3247 14.9215 13.6417 14.8404 14.9519C14.723 16.8469 14.3342 18.698 13.7483 20.506C13.6715 20.7417 13.5126 20.8855 13.293 20.9769L5.9886 20.9745ZM12.7375 19.8008C13.2451 18.16 13.5786 16.5036 13.674 14.8125C13.7454 13.5468 13.7341 12.2768 13.7527 11.0082C13.7581 10.6311 13.5273 10.3724 13.1967 10.3538C12.8661 10.3353 12.6279 10.5632 12.5824 10.9446C12.5399 11.3021 12.289 11.5369 11.9667 11.5212C11.6444 11.5056 11.416 11.2552 11.4126 10.8903C11.4092 10.5387 11.4126 10.1871 11.4126 9.83595C11.4082 9.44471 11.1608 9.17622 10.816 9.18111C10.4712 9.186 10.2448 9.44422 10.2423 9.83252C10.2423 10.1709 10.2462 10.5094 10.2389 10.8473C10.2391 10.9575 10.2201 11.0669 10.1827 11.1706C10.1316 11.2915 10.0407 11.3914 9.92508 11.4537C9.80946 11.5159 9.67603 11.5368 9.54691 11.5129C9.41384 11.4901 9.29317 11.4208 9.2064 11.3174C9.11962 11.2139 9.07236 11.0831 9.07302 10.948C9.06716 10.2194 9.07058 9.49068 9.0696 8.76151C9.07173 8.69003 9.06945 8.6185 9.06275 8.54731C9.02216 8.2216 8.76248 7.99468 8.45242 8.00935C8.14237 8.02403 7.90273 8.26757 7.90029 8.60159C7.89491 9.33027 7.90029 10.059 7.89687 10.7881C7.89873 10.8855 7.88971 10.9828 7.86997 11.0781C7.84 11.2024 7.76969 11.3133 7.67004 11.3934C7.57039 11.4735 7.44701 11.5184 7.31917 11.5209C7.19134 11.5235 7.06626 11.4837 6.96347 11.4076C6.86068 11.3316 6.78597 11.2236 6.75103 11.1006C6.73024 10.9988 6.72219 10.8948 6.72707 10.7911C6.72707 8.94278 6.72707 7.09467 6.72707 5.24673C6.73045 5.13646 6.71994 5.02621 6.69577 4.91858C6.67531 4.84345 6.63972 4.7733 6.59116 4.71243C6.54261 4.65156 6.48212 4.60127 6.41342 4.56463C6.34472 4.52799 6.26926 4.50578 6.19166 4.49936C6.11407 4.49295 6.03598 4.50247 5.9622 4.52734C5.68588 4.6183 5.55873 4.82077 5.55873 5.18511C5.55873 7.91138 5.55873 10.638 5.55873 13.3649C5.56134 13.4753 5.55183 13.5857 5.53037 13.694C5.50947 13.7829 5.46762 13.8655 5.4083 13.9349C5.34898 14.0043 5.27392 14.0585 5.18939 14.0929C5.10485 14.1274 5.0133 14.1411 4.92237 14.133C4.83144 14.1249 4.74378 14.0951 4.66671 14.0462C4.59147 13.9951 4.52195 13.9361 4.45935 13.8701C4.04611 13.4657 3.64411 13.0573 3.23331 12.6573C2.97167 12.4025 2.65232 12.3389 2.31293 12.4616C1.97353 12.5844 1.78084 12.8529 1.74612 13.2118C1.71531 13.5283 1.86496 13.7713 2.08307 13.988C3.14887 15.0498 4.21075 16.1138 5.26873 17.18C5.38631 17.3002 5.48197 17.44 5.5514 17.5932C5.85558 18.2681 6.1508 18.9472 6.43706 19.6306C6.49477 19.768 6.56519 19.8066 6.70946 19.8061C8.65554 19.8006 10.6016 19.7995 12.5477 19.8027L12.7375 19.8008ZM7.89589 6.9134C8.09151 6.88455 8.25925 6.86449 8.42406 6.83271C8.47058 6.81559 8.50989 6.78317 8.53556 6.74077C8.88354 6.24848 9.06812 5.65933 9.06324 5.05649C9.07107 3.54044 7.81568 2.22344 6.30502 2.15301C5.79436 2.12383 5.28496 2.22889 4.82752 2.45774C4.37007 2.68658 3.98053 3.03123 3.69767 3.45739C3.4148 3.88355 3.24846 4.37635 3.21521 4.88676C3.18197 5.39717 3.28296 5.90739 3.50816 6.36664C3.70522 6.78391 4.00573 7.14384 4.38111 7.41223V7.1677C4.38404 6.42631 4.36692 5.68393 4.39578 4.94352C4.42512 4.18011 5.01736 3.52088 5.7612 3.36194C6.12961 3.28539 6.51282 3.32828 6.85519 3.48438C7.19756 3.64049 7.48125 3.90167 7.66506 4.23C7.83378 4.53565 7.89149 4.86576 7.89393 5.20467C7.89882 5.7705 7.89589 6.33437 7.89589 6.91536V6.9134Z" fill="#7367F0"/>
</svg>
