<svg width="13" height="22" viewBox="0 0 13 22" fill="none" xmlns="http://www.w3.org/2000/svg">
<path fill-rule="evenodd" clip-rule="evenodd" d="M4.99595 0.634772C4.10894 0.835866 3.33865 1.44229 2.94398 2.25017C2.59934 2.95571 2.62323 2.55507 2.60716 7.89225L2.5929 12.6282L2.42356 12.7791C1.8081 13.3275 1.33522 14.0227 1.04023 14.8128C0.588019 16.0241 0.668396 17.4841 1.25239 18.6657C1.76124 19.6953 2.51228 20.4408 3.53821 20.9348C5.36267 21.8132 7.49514 21.4714 8.9489 20.0675C10.5443 18.5268 10.9375 16.2074 9.93736 14.2366C9.69297 13.7551 9.37359 13.3293 8.94942 12.9197L8.60137 12.5836L8.59049 7.78849L8.57961 2.99338L8.46986 2.66759C8.14505 1.70353 7.42572 1.00267 6.44427 0.693984C6.06564 0.574867 5.38317 0.546971 4.99595 0.634772ZM6.22691 1.91098C6.70978 2.09509 7.09342 2.46686 7.28076 2.93229L7.37093 3.15627L7.39107 8.12458C7.41412 13.8105 7.3663 13.2039 7.81798 13.5391C8.46245 14.0174 8.96683 14.7945 9.17239 15.6259C9.29805 16.1341 9.2968 16.9045 9.16953 17.3865C8.87836 18.4893 8.17942 19.351 7.18705 19.8305C6.63335 20.0981 6.29911 20.1709 5.61834 20.1721C4.91453 20.1734 4.59757 20.1003 3.98663 19.7959C3.05582 19.3321 2.34314 18.447 2.06507 17.4096C1.94118 16.9474 1.9417 16.047 2.06615 15.5771C2.24975 14.8835 2.7097 14.134 3.20618 13.7191C3.3235 13.621 3.5063 13.4564 3.61238 13.3532L3.80532 13.1656L3.80657 8.42565C3.8073 5.62687 3.82374 3.56062 3.8467 3.38025C3.94074 2.64144 4.47167 2.03779 5.19531 1.84688C5.46879 1.77471 5.94759 1.80448 6.22691 1.91098ZM10.2315 3.03292C9.76097 3.20494 9.68535 3.84764 10.1048 4.10966C10.2344 4.19062 10.2952 4.19473 11.3684 4.19473C12.4714 4.19473 12.4988 4.19273 12.6287 4.1031C13.0122 3.83856 12.9895 3.31615 12.5842 3.07482C12.4583 2.99989 12.365 2.9926 11.42 2.98368C10.606 2.97603 10.3591 2.98625 10.2315 3.03292ZM5.3534 5.49647C5.25292 5.54811 5.15518 5.64202 5.10159 5.73837L5.014 5.89585V9.9901V14.0843L4.86292 14.1338C3.65589 14.5287 2.92875 15.8486 3.24014 17.0794C3.47064 17.9903 4.13735 18.6642 5.03854 18.8972C6.36458 19.24 7.73184 18.3617 8.02003 16.982C8.13655 16.4242 8.02446 15.7504 7.73063 15.242C7.47343 14.797 6.93576 14.3425 6.45834 14.1666L6.22381 14.0801L6.21318 9.95488C6.20262 5.86034 6.20193 5.82882 6.11946 5.71719C5.91072 5.43461 5.63083 5.35398 5.3534 5.49647ZM10.303 5.45473C10.1154 5.5016 9.98099 5.6019 9.90348 5.75278C9.76097 6.03028 9.85352 6.40494 10.1025 6.55834C10.2223 6.63222 10.3118 6.63788 11.3637 6.638C12.4718 6.63816 12.4988 6.63621 12.6287 6.54653C13.0122 6.28199 12.9895 5.75959 12.5842 5.51826C12.4582 5.44328 12.3675 5.43624 11.4402 5.42956C10.8862 5.42553 10.3745 5.43689 10.303 5.45473ZM10.303 7.89787C10.1152 7.94519 9.98091 8.04546 9.90348 8.19622C9.76097 8.47371 9.85352 8.84837 10.1025 9.00177C10.2223 9.07565 10.3118 9.08131 11.3637 9.08143C12.4718 9.08159 12.4988 9.07964 12.6287 8.98996C13.0122 8.72542 12.9895 8.20302 12.5842 7.96169C12.4583 7.88671 12.3672 7.87963 11.4402 7.87271C10.8862 7.86855 10.3745 7.87987 10.303 7.89787ZM10.303 10.3413C10.1152 10.3886 9.98091 10.4889 9.90348 10.6396C9.76097 10.9171 9.85352 11.2918 10.1025 11.4452C10.2223 11.5191 10.3118 11.5247 11.3637 11.5249C12.4718 11.525 12.4988 11.5231 12.6287 11.4334C13.0122 11.1689 12.9895 10.6464 12.5842 10.4051C12.4583 10.3301 12.3672 10.3231 11.4402 10.3161C10.8862 10.312 10.3745 10.3233 10.303 10.3413ZM6.15887 15.37C6.59834 15.5873 6.84318 15.9893 6.84318 16.4933C6.84318 17.0016 6.59882 17.3987 6.14859 17.6222C5.95996 17.7158 5.86826 17.7353 5.61834 17.7346C5.11944 17.7332 4.73162 17.4936 4.49903 17.0431C4.35386 16.762 4.34645 16.2843 4.48259 15.9843C4.77726 15.3348 5.52991 15.0589 6.15887 15.37Z" fill="#7367F0"/>
</svg>
