<svg width="22" height="16" viewBox="0 0 22 16" fill="none" xmlns="http://www.w3.org/2000/svg">
<path d="M20.3747 2.94796C20.0582 2.80546 19.7068 2.7591 19.3642 2.81466C19.0216 2.87022 18.7028 3.02524 18.4476 3.26046L16.208 5.34379V3.83337C16.208 3.00457 15.8788 2.20972 15.2927 1.62367C14.7067 1.03761 13.9118 0.708374 13.083 0.708374H3.70801C2.87921 0.708374 2.08435 1.03761 1.4983 1.62367C0.912248 2.20972 0.583008 3.00457 0.583008 3.83337V12.1667C0.583008 12.9955 0.912248 13.7904 1.4983 14.3764C2.08435 14.9625 2.87921 15.2917 3.70801 15.2917H13.083C13.9118 15.2917 14.7067 14.9625 15.2927 14.3764C15.8788 13.7904 16.208 12.9955 16.208 12.1667V10.6563L18.458 12.7396C18.7892 13.0395 19.2196 13.2064 19.6663 13.2084C19.9143 13.2078 20.1593 13.1545 20.3851 13.0521C20.6923 12.9278 20.9555 12.7148 21.1411 12.4402C21.3266 12.1656 21.4261 11.8419 21.4268 11.5105V4.48962C21.4252 4.15701 21.3242 3.83245 21.1368 3.55771C20.9493 3.28296 20.6839 3.07061 20.3747 2.94796ZM14.1247 12.1667C14.1247 12.443 14.0149 12.7079 13.8196 12.9033C13.6242 13.0986 13.3593 13.2084 13.083 13.2084H3.70801C3.43174 13.2084 3.16679 13.0986 2.97144 12.9033C2.77609 12.7079 2.66634 12.443 2.66634 12.1667V3.83337C2.66634 3.55711 2.77609 3.29216 2.97144 3.0968C3.16679 2.90145 3.43174 2.79171 3.70801 2.79171H13.083C13.3593 2.79171 13.6242 2.90145 13.8196 3.0968C14.0149 3.29216 14.1247 3.55711 14.1247 3.83337V12.1667ZM19.333 10.7084L16.4059 8.00004L19.333 5.29171V10.7084Z" fill="#7367F0"/>
</svg>
