<svg width="98" height="98" viewBox="0 0 98 98" fill="none" xmlns="http://www.w3.org/2000/svg">
<circle cx="49" cy="49" r="43" fill="#FF7B61" fill-opacity="0.05"/>
<circle cx="49" cy="49" r="49" fill="#FF7B61" fill-opacity="0.05"/>
<circle cx="49" cy="49" r="38" fill="#FF7B61" fill-opacity="0.2"/>
<g clip-path="url(#clip0_130_1904)">
<path fill-rule="evenodd" clip-rule="evenodd" d="M48.9122 27.5725C48.7039 27.6477 48.381 27.8163 48.1946 27.9449C47.0323 28.7539 44.4105 31.0271 42.4745 32.9048L41.082 34.2561L40.4887 33.5198C39.5457 32.348 38.4772 31.2042 38.175 31.0441C37.8254 30.8585 37.4136 30.85 37.0505 31.0222C36.7593 31.1605 35.5544 32.4608 34.5383 33.7345C32.1991 36.6663 31.378 38.6144 31.6923 40.4897C31.8958 41.7075 32.3916 42.7156 33.2591 43.6702L33.7403 44.2003L33.3931 44.9863C31.9043 48.356 31.4023 51.0574 31.6984 54.0923C32.1004 58.2141 33.8488 62.0083 36.7131 64.9765C39.4019 67.7628 42.6524 69.5144 46.4914 70.247C48.8111 70.6898 51.6717 70.6085 54.0182 70.0323C54.9795 69.797 55.3962 69.6599 56.6108 69.182L57.6842 68.7599L58.1204 69.1505C58.3604 69.3652 58.9025 69.7121 59.3253 69.9207C61.0236 70.7565 62.7573 70.7504 64.5178 69.9037C65.1806 69.5847 65.4316 69.4016 66.0456 68.7926C67.1726 67.6742 67.7574 66.4491 67.8707 64.9668C67.962 63.7732 67.6087 62.6172 66.684 61.0804L66.1492 60.1912L66.5208 59.2948C67.6246 56.6299 68.1034 53.5125 67.8134 50.8621C67.337 46.4916 64.8297 41.6154 60.4242 36.488C59.0975 34.9439 56.3026 32.1309 54.6506 30.6777C52.9619 29.1918 51.3379 27.906 50.8664 27.6828C50.3437 27.4354 49.4312 27.3832 48.911 27.5712L48.9122 27.5725ZM50.5289 30.5237C54.134 33.39 57.8475 37.1224 60.2841 40.3296C62.9571 43.8473 64.541 47.0496 65.1745 50.2131C65.3926 51.3 65.3755 53.7369 65.1416 55.0202C64.9589 56.0222 64.4581 57.8332 64.3631 57.8332C64.3314 57.8332 63.9659 57.4511 63.5505 56.9853C62.2091 55.4775 61.673 55.4302 60.5034 56.7209C58.2897 59.1638 56.8679 61.215 56.2429 62.8744C55.9956 63.5318 55.9688 63.6908 55.9664 64.5277C55.9664 65.1524 56.0126 65.6315 56.1126 66.0003C56.2916 66.6577 56.3148 66.6298 55.2524 67.0144C51.7509 68.282 48.2336 68.3402 44.7784 67.1878C39.3422 65.3744 35.2925 60.5867 34.3397 54.8443C34.107 53.447 34.1253 51.2708 34.3799 50.0033C34.6126 48.8412 35.117 47.3165 35.6421 46.1872L36.0259 45.3599L36.4548 45.429C36.6899 45.4666 37.3003 45.4933 37.812 45.4885C38.5795 45.48 38.8573 45.4387 39.4153 45.2519C41.5462 44.5375 43.0593 42.8296 43.4748 40.6704C43.7075 39.4647 43.5552 38.4967 42.9217 37.1491L42.5818 36.4249L43.1458 35.8257C43.8866 35.0385 45.8676 33.1608 46.9288 32.2401C48.0545 31.2636 49.6676 29.9645 49.7553 29.9645C49.7943 29.9645 50.1427 30.2168 50.5302 30.5249L50.5289 30.5237ZM38.2591 34.7837C39.9039 36.7452 40.9382 38.4749 41.0369 39.432C41.2026 41.0295 39.86 42.6634 38.1397 42.9569C36.367 43.2602 34.6029 42.0351 34.2155 40.2338C34.0364 39.4004 34.2837 38.561 35.0817 37.2971C35.7835 36.186 37.4294 34.0887 37.6 34.0887C37.6414 34.0887 37.9375 34.4016 38.2579 34.7837H38.2591ZM62.5685 59.7073C63.7052 61.0634 64.5775 62.3455 65.0502 63.3572C65.5449 64.4137 65.4011 65.5673 64.6494 66.5862C64.0256 67.4316 62.8987 68.0224 61.9094 68.0224C60.9201 68.0224 59.798 67.4316 59.1888 66.6311C58.7076 65.9991 58.5066 65.4096 58.498 64.6041C58.4907 63.954 58.509 63.886 58.8916 63.117C59.1121 62.6743 59.6006 61.881 59.9771 61.3569C60.7471 60.2834 61.7936 59.0134 61.9094 59.0134C61.9508 59.0134 62.2469 59.3264 62.5673 59.7085L62.5685 59.7073Z" fill="#FF7B61"/>
<path d="M49.7686 52.9153C49.4092 52.908 49.073 53.0451 48.8208 53.2926C48.5674 53.5412 48.426 53.876 48.4248 54.2338C48.4212 54.975 48.995 55.5681 49.7297 55.5827H49.7565C50.1012 55.5827 50.4278 55.4505 50.6763 55.2091C50.9346 54.958 51.0771 54.6232 51.0783 54.263C51.082 53.5158 50.507 52.9238 49.7686 52.9153ZM49.7382 55.1909C49.2143 55.18 48.8159 54.7664 48.8183 54.2351C48.8208 53.7135 49.2411 53.3011 49.7638 53.3071C50.2852 53.3132 50.6873 53.7305 50.6848 54.2617C50.6824 54.7821 50.256 55.2006 49.7382 55.1909Z" fill="#FF7B61"/>
<path d="M46.5753 49.5832C45.0986 50.5743 44.2945 51.9874 44.0996 53.7523C44.1605 53.7681 44.1812 53.779 44.2019 53.779C45.3984 53.7802 46.5935 53.7827 47.7887 53.7754C47.8484 53.7742 47.9252 53.6941 47.9654 53.6322C48.1091 53.4127 48.209 53.158 48.382 52.9663C48.8621 52.4386 49.4834 52.2907 50.19 52.4095C50.7919 51.3045 51.3925 50.2019 52.0163 49.058C50.0914 48.3217 48.2712 48.4454 46.5753 49.5832ZM49.972 51.9874C49.2093 51.9268 48.5782 52.1669 48.0896 52.7043C47.9495 52.8596 47.8521 53.0354 47.7668 53.1919C47.7302 53.2598 47.6949 53.3241 47.6571 53.3836C46.6362 53.3896 45.6006 53.3884 44.5967 53.3872H44.5492C44.8087 51.9049 45.5628 50.7356 46.7958 49.9083C48.2273 48.9476 49.7539 48.739 51.4498 49.2751C50.9479 50.1958 50.4593 51.0922 49.972 51.9874ZM49.7685 52.9154C49.4091 52.9081 49.0728 53.0451 48.8206 53.2926C48.5672 53.5413 48.4259 53.8761 48.4247 54.2339C48.421 54.975 48.9949 55.5682 49.7295 55.5827H49.7563C50.1011 55.5827 50.4276 55.4505 50.6762 55.2091C50.9345 54.958 51.077 54.6233 51.0782 54.263C51.0819 53.5158 50.5068 52.9238 49.7685 52.9154ZM50.1267 54.6475C50.0231 54.7482 49.8903 54.8004 49.7466 54.7991C49.4347 54.7919 49.2105 54.5565 49.2117 54.2363C49.2117 54.0895 49.2702 53.9525 49.3726 53.8518C49.4749 53.7523 49.6126 53.7002 49.7588 53.699C50.0633 53.7026 50.2924 53.944 50.2912 54.2594C50.29 54.4073 50.2315 54.5456 50.1267 54.6475ZM46.5753 49.5832C45.0986 50.5743 44.2945 51.9874 44.0996 53.7523C44.1605 53.7681 44.1812 53.779 44.2019 53.779C45.3984 53.7802 46.5935 53.7827 47.7887 53.7754C47.8484 53.7742 47.9252 53.6941 47.9654 53.6322C48.1091 53.4127 48.209 53.158 48.382 52.9663C48.8621 52.4386 49.4834 52.2907 50.19 52.4095C50.7919 51.3045 51.3925 50.2019 52.0163 49.058C50.0914 48.3217 48.2712 48.4454 46.5753 49.5832ZM49.972 51.9874C49.2093 51.9268 48.5782 52.1669 48.0896 52.7043C47.9495 52.8596 47.8521 53.0354 47.7668 53.1919C47.7302 53.2598 47.6949 53.3241 47.6571 53.3836C46.6362 53.3896 45.6006 53.3884 44.5967 53.3872H44.5492C44.8087 51.9049 45.5628 50.7356 46.7958 49.9083C48.2273 48.9476 49.7539 48.739 51.4498 49.2751C50.9479 50.1958 50.4593 51.0922 49.972 51.9874ZM49.7685 52.9154C49.4091 52.9081 49.0728 53.0451 48.8206 53.2926C48.5672 53.5413 48.4259 53.8761 48.4247 54.2339C48.421 54.975 48.9949 55.5682 49.7295 55.5827H49.7563C50.1011 55.5827 50.4276 55.4505 50.6762 55.2091C50.9345 54.958 51.077 54.6233 51.0782 54.263C51.0819 53.5158 50.5068 52.9238 49.7685 52.9154ZM50.1267 54.6475C50.0231 54.7482 49.8903 54.8004 49.7466 54.7991C49.4347 54.7919 49.2105 54.5565 49.2117 54.2363C49.2117 54.0895 49.2702 53.9525 49.3726 53.8518C49.4749 53.7523 49.6126 53.7002 49.7588 53.699C50.0633 53.7026 50.2924 53.944 50.2912 54.2594C50.29 54.4073 50.2315 54.5456 50.1267 54.6475ZM49.7685 52.9154C49.4091 52.9081 49.0728 53.0451 48.8206 53.2926C48.5672 53.5413 48.4259 53.8761 48.4247 54.2339C48.421 54.975 48.9949 55.5682 49.7295 55.5827H49.7563C50.1011 55.5827 50.4276 55.4505 50.6762 55.2091C50.9345 54.958 51.077 54.6233 51.0782 54.263C51.0819 53.5158 50.5068 52.9238 49.7685 52.9154ZM50.1267 54.6475C50.0231 54.7482 49.8903 54.8004 49.7466 54.7991C49.4347 54.7919 49.2105 54.5565 49.2117 54.2363C49.2117 54.0895 49.2702 53.9525 49.3726 53.8518C49.4749 53.7523 49.6126 53.7002 49.7588 53.699C50.0633 53.7026 50.2924 53.944 50.2912 54.2594C50.29 54.4073 50.2315 54.5456 50.1267 54.6475ZM46.5753 49.5832C45.0986 50.5743 44.2945 51.9874 44.0996 53.7523C44.1605 53.7681 44.1812 53.779 44.2019 53.779C45.3984 53.7802 46.5935 53.7827 47.7887 53.7754C47.8484 53.7742 47.9252 53.6941 47.9654 53.6322C48.1091 53.4127 48.209 53.158 48.382 52.9663C48.8621 52.4386 49.4834 52.2907 50.19 52.4095C50.7919 51.3045 51.3925 50.2019 52.0163 49.058C50.0914 48.3217 48.2712 48.4454 46.5753 49.5832ZM49.972 51.9874C49.2093 51.9268 48.5782 52.1669 48.0896 52.7043C47.9495 52.8596 47.8521 53.0354 47.7668 53.1919C47.7302 53.2598 47.6949 53.3241 47.6571 53.3836C46.6362 53.3896 45.6006 53.3884 44.5967 53.3872H44.5492C44.8087 51.9049 45.5628 50.7356 46.7958 49.9083C48.2273 48.9476 49.7539 48.739 51.4498 49.2751C50.9479 50.1958 50.4593 51.0922 49.972 51.9874ZM49.7685 52.9154C49.4091 52.9081 49.0728 53.0451 48.8206 53.2926C48.5672 53.5413 48.4259 53.8761 48.4247 54.2339C48.421 54.975 48.9949 55.5682 49.7295 55.5827H49.7563C50.1011 55.5827 50.4276 55.4505 50.6762 55.2091C50.9345 54.958 51.077 54.6233 51.0782 54.263C51.0819 53.5158 50.5068 52.9238 49.7685 52.9154ZM50.1267 54.6475C50.0231 54.7482 49.8903 54.8004 49.7466 54.7991C49.4347 54.7919 49.2105 54.5565 49.2117 54.2363C49.2117 54.0895 49.2702 53.9525 49.3726 53.8518C49.4749 53.7523 49.6126 53.7002 49.7588 53.699C50.0633 53.7026 50.2924 53.944 50.2912 54.2594C50.29 54.4073 50.2315 54.5456 50.1267 54.6475ZM46.5753 49.5832C45.0986 50.5743 44.2945 51.9874 44.0996 53.7523C44.1605 53.7681 44.1812 53.779 44.2019 53.779C45.3984 53.7802 46.5935 53.7827 47.7887 53.7754C47.8484 53.7742 47.9252 53.6941 47.9654 53.6322C48.1091 53.4127 48.209 53.158 48.382 52.9663C48.8621 52.4386 49.4834 52.2907 50.19 52.4095C50.7919 51.3045 51.3925 50.2019 52.0163 49.058C50.0914 48.3217 48.2712 48.4454 46.5753 49.5832ZM49.972 51.9874C49.2093 51.9268 48.5782 52.1669 48.0896 52.7043C47.9495 52.8596 47.8521 53.0354 47.7668 53.1919C47.7302 53.2598 47.6949 53.3241 47.6571 53.3836C46.6362 53.3896 45.6006 53.3884 44.5967 53.3872H44.5492C44.8087 51.9049 45.5628 50.7356 46.7958 49.9083C48.2273 48.9476 49.7539 48.739 51.4498 49.2751C50.9479 50.1958 50.4593 51.0922 49.972 51.9874ZM46.5753 49.5832C45.0986 50.5743 44.2945 51.9874 44.0996 53.7523C44.1605 53.7681 44.1812 53.779 44.2019 53.779C45.3984 53.7802 46.5935 53.7827 47.7887 53.7754C47.8484 53.7742 47.9252 53.6941 47.9654 53.6322C48.1091 53.4127 48.209 53.158 48.382 52.9663C48.8621 52.4386 49.4834 52.2907 50.19 52.4095C50.7919 51.3045 51.3925 50.2019 52.0163 49.058C50.0914 48.3217 48.2712 48.4454 46.5753 49.5832ZM49.972 51.9874C49.2093 51.9268 48.5782 52.1669 48.0896 52.7043C47.9495 52.8596 47.8521 53.0354 47.7668 53.1919C47.7302 53.2598 47.6949 53.3241 47.6571 53.3836C46.6362 53.3896 45.6006 53.3884 44.5967 53.3872H44.5492C44.8087 51.9049 45.5628 50.7356 46.7958 49.9083C48.2273 48.9476 49.7539 48.739 51.4498 49.2751C50.9479 50.1958 50.4593 51.0922 49.972 51.9874ZM49.7685 52.9154C49.4091 52.9081 49.0728 53.0451 48.8206 53.2926C48.5672 53.5413 48.4259 53.8761 48.4247 54.2339C48.421 54.975 48.9949 55.5682 49.7295 55.5827H49.7563C50.1011 55.5827 50.4276 55.4505 50.6762 55.2091C50.9345 54.958 51.077 54.6233 51.0782 54.263C51.0819 53.5158 50.5068 52.9238 49.7685 52.9154ZM50.1267 54.6475C50.0231 54.7482 49.8903 54.8004 49.7466 54.7991C49.4347 54.7919 49.2105 54.5565 49.2117 54.2363C49.2117 54.0895 49.2702 53.9525 49.3726 53.8518C49.4749 53.7523 49.6126 53.7002 49.7588 53.699C50.0633 53.7026 50.2924 53.944 50.2912 54.2594C50.29 54.4073 50.2315 54.5456 50.1267 54.6475Z" fill="#FF7B61"/>
<path d="M61.484 53.5222C61.4669 53.3984 61.4535 53.2759 61.4389 53.1522C61.4097 52.8987 61.3804 52.6367 61.3353 52.3759C60.8431 49.5132 59.4847 47.1394 57.2978 45.3199C54.598 43.0734 51.4583 42.194 47.9666 42.7059C45.3265 43.0928 43.0482 44.2925 41.1939 46.2721C39.1629 48.4385 38.0944 51.0561 38.0189 54.0486C38.0128 54.3046 38.0347 54.6272 38.2577 54.8553C38.4807 55.0821 38.8035 55.1112 39.0606 55.1112H47.651C48.0762 56.0088 48.7975 56.5062 49.7051 56.5207C49.7198 56.5207 49.7356 56.5207 49.7502 56.5207C50.6749 56.5207 51.3791 56.0464 51.8494 55.11H53.8012C56.0246 55.11 58.2481 55.11 60.4715 55.1136C60.9503 55.1136 61.2805 54.9147 61.4535 54.5229L61.4864 54.4477V53.5707L61.484 53.521V53.5222ZM47.7887 53.7757C46.5935 53.783 45.3983 53.7805 44.2019 53.7793C44.1812 53.7793 44.1605 53.7684 44.0996 53.7526C44.2945 51.9877 45.0986 50.5746 46.5753 49.5836C48.2712 48.4458 50.0914 48.322 52.0163 49.0583C51.3925 50.2022 50.7919 51.3048 50.19 52.4099C49.4834 52.291 48.8621 52.439 48.382 52.9666C48.209 53.1583 48.1091 53.413 47.9654 53.6326C47.9252 53.6944 47.8484 53.7745 47.7887 53.7757ZM50.6762 55.2095C50.4276 55.4508 50.1011 55.5831 49.7563 55.5831H49.7295C48.9949 55.5685 48.421 54.9754 48.4247 54.2342C48.4259 53.8764 48.5672 53.5416 48.8206 53.2929C49.0728 53.0455 49.4091 52.9084 49.7685 52.9157C50.5068 52.9242 51.0819 53.5161 51.0782 54.2633C51.0782 54.6236 50.9344 54.9584 50.6762 55.2095ZM56.7166 53.3754C56.7032 53.3123 56.6898 53.2493 56.6764 53.1862C56.5997 52.8259 56.5205 52.4511 56.4121 52.086C56.1842 51.323 55.7858 50.5831 55.2266 49.8892C55.0548 49.6745 54.8246 49.546 54.5785 49.5278C54.3482 49.5108 54.1192 49.5921 53.9376 49.7582C53.5819 50.0857 53.5612 50.5637 53.8865 50.9773C54.347 51.568 54.6686 52.2036 54.8416 52.8684C54.8855 53.0358 54.9184 53.208 54.9513 53.3887H54.1484C53.3869 53.3887 52.6243 53.3887 51.8543 53.3924C51.7507 53.1765 51.6313 52.9788 51.4961 52.8029C52.1174 51.6724 52.7437 50.5212 53.3492 49.4089L53.7098 48.7454L53.722 48.7235C53.7585 48.658 53.8 48.5828 53.8377 48.5004C54.029 48.0673 53.8658 47.5809 53.4576 47.3698C53.0556 47.16 52.5804 47.2886 52.3294 47.6743C52.316 47.6949 52.3026 47.7168 52.2892 47.7374C50.1279 46.9538 48.0701 47.1297 46.1683 48.2638C44.2568 49.4028 43.1225 51.1216 42.7935 53.3766H39.7904C39.9841 51.2963 40.7419 49.4805 42.0991 47.8478C42.2575 48.0067 42.4134 48.1619 42.5694 48.3172L42.6218 48.3718C42.6839 48.4349 42.7546 48.5076 42.835 48.5743C43.1993 48.8776 43.7146 48.8497 44.0338 48.5088C44.3506 48.1692 44.3433 47.6622 44.0192 47.331C43.7938 47.0993 43.5648 46.8774 43.3223 46.6433L43.315 46.636C44.939 45.2895 46.7677 44.5314 48.8816 44.3301V45.0566C48.8791 45.15 48.8779 45.2568 48.8889 45.3635C48.9327 45.8245 49.2787 46.1544 49.7319 46.1653C50.2156 46.1738 50.5823 45.8318 50.6128 45.3526C50.6262 45.1416 50.6238 44.9341 50.6226 44.7328C50.6226 44.6527 50.6213 44.5714 50.6213 44.4902V44.3301C52.7217 44.5254 54.5492 45.2811 56.1842 46.6323C55.9528 46.8567 55.7335 47.0714 55.5142 47.2958C55.3046 47.5081 55.2084 47.7883 55.2498 48.0649C55.29 48.3257 55.4508 48.5501 55.692 48.6811C56.0417 48.8679 56.4328 48.8048 56.7374 48.5113C56.914 48.3402 57.0882 48.1668 57.2625 47.9921L57.405 47.8502C58.7598 49.4732 59.5164 51.2878 59.7113 53.3754H56.7166Z" fill="#FF7B61"/>
</g>
<defs>
<clipPath id="clip0_130_1904">
<rect width="36.2807" height="43.0833" fill="white" transform="translate(31.6167 27.458)"/>
</clipPath>
</defs>
</svg>
