<svg width="59" height="58" viewBox="0 0 59 58" fill="none" xmlns="http://www.w3.org/2000/svg">
<g clip-path="url(#clip0_72_2607)">
<path d="M13.8135 25.1708C14.258 24.3624 14.7872 23.5753 15.3375 22.8307C12.7764 18.1081 10.0671 13.7258 7.78108 10.3008C4.77543 5.81217 2.59528 2.96156 2.59528 2.96156C2.59528 2.96156 4.90243 5.72708 8.07741 10.1094C10.4269 13.3429 13.242 17.4912 15.9514 22.0011C18.195 19.193 21.0737 16.7892 24.3121 14.7682C14.7237 5.87599 0.605621 0.515137 0.605621 0.515137C0.605621 0.515137 1.81211 4.5145 2.10845 11.1092C2.63761 22.5755 1.19828 39.594 13.0727 44.3805C10.4269 37.3178 10.6597 30.872 13.8135 25.1708Z" fill="#333333"/>
<path d="M16.8827 46.5717C16.7768 46.7632 16.6498 46.9546 16.5652 47.1461C16.163 47.8268 15.8244 48.4863 15.528 49.1458C15.2105 49.784 14.893 50.4009 14.6602 50.9965C14.4274 51.5922 14.1945 52.1453 13.9829 52.6771C13.8135 53.209 13.6442 53.6982 13.496 54.145C13.1785 55.0172 13.0727 55.7617 12.9245 56.251L12.734 56.9956L15.3164 57.4636C15.3164 57.4636 15.3587 57.2296 15.4645 56.7829C15.5704 56.3361 15.6339 55.6766 15.909 54.847C16.036 54.4428 16.163 53.9748 16.3112 53.4855C16.4805 52.9962 16.671 52.4644 16.8827 51.9113C17.0732 51.3369 17.3483 50.7625 17.6235 50.1243C17.8775 49.4861 18.195 48.8479 18.5337 48.1885C18.8723 47.5077 19.2322 46.827 19.6343 46.125C20.0365 45.4229 20.4387 44.6997 20.9255 43.9551C21.37 43.2105 21.8568 42.466 22.386 41.7214C22.894 40.9556 23.4231 40.211 23.9946 39.4452C26.2383 36.3818 28.8418 33.2759 31.6146 30.2977C37.1391 24.3412 43.235 18.874 47.9552 14.981C52.6753 11.0667 55.9773 8.68409 55.9773 8.68409C55.9773 8.68409 52.7388 11.1731 48.1457 15.215C43.5525 19.2569 37.6259 24.8943 32.2708 31.021C29.6038 34.0843 27.085 37.2753 24.926 40.4025C24.3756 41.1896 23.8676 41.9554 23.3808 42.7212C22.8728 43.4871 22.4283 44.2529 22.005 44.9975C21.5605 45.742 21.1583 46.4866 20.7773 47.1886C20.4598 47.7843 20.1635 48.3587 19.9095 48.933C45.1612 58.8464 49.2252 33.127 54.0935 17.7252C56.3583 10.5774 58.8348 6.55676 58.8348 6.55676C58.8348 6.62058 0.161115 12.5345 16.8827 46.5717Z" fill="#7367F0"/>
</g>
<defs>
<clipPath id="clip0_72_2607">
<rect width="58.2292" height="56.9697" fill="white" transform="translate(0.605621 0.515137)"/>
</clipPath>
</defs>
</svg>
