<svg width="55" height="77" viewBox="0 0 55 77" fill="none" xmlns="http://www.w3.org/2000/svg">
<g clip-path="url(#clip0_72_2549)">
<path d="M38.2964 16.6527C38.2964 16.6527 38.2888 16.6198 38.2777 16.555C38.2666 16.4901 38.2504 16.3949 38.2324 16.2712C38.2137 16.1484 38.1932 15.997 38.171 15.8214C38.1599 15.7341 38.1488 15.6406 38.1386 15.5403C38.1301 15.44 38.1215 15.3344 38.1121 15.2228C38.0959 15.0005 38.0806 14.7566 38.0703 14.4954C38.0644 14.2315 38.0626 13.9504 38.0678 13.6563C38.0695 13.5828 38.0712 13.5084 38.0729 13.4323C38.0763 13.3562 38.0806 13.2792 38.0848 13.2022C38.0934 13.0465 38.1045 12.8891 38.1173 12.7282C38.1309 12.5673 38.1429 12.4047 38.1642 12.2377C38.1847 12.0708 38.2077 11.9021 38.2324 11.7317C38.4355 10.3676 38.863 8.88235 39.6079 7.50872C39.7018 7.33658 39.7991 7.16704 39.9006 6.99923C40.0021 6.83142 40.1088 6.6662 40.2231 6.50185C40.4501 6.17488 40.6942 5.85829 40.957 5.55467C41.2249 5.25019 41.5116 4.95868 41.8162 4.68274C41.9689 4.54434 42.126 4.41113 42.2889 4.28052C42.4536 4.1499 42.6226 4.02361 42.7966 3.90164L42.8197 3.88521L42.7966 3.90164C42.713 3.96392 42.3956 4.20094 41.9835 4.64728C41.777 4.87132 41.5423 5.14985 41.3008 5.48893C41.0645 5.82628 40.8128 6.22678 40.579 6.69388C40.4629 6.92657 40.3486 7.17742 40.2394 7.44557C40.1284 7.71459 40.032 7.99831 39.9373 8.30366C39.8409 8.60901 39.7607 8.92992 39.6881 9.2716C39.6532 9.44201 39.6156 9.61934 39.5883 9.79839C39.5601 9.97831 39.5346 10.1626 39.5124 10.3529C39.4637 10.7343 39.4424 11.1296 39.4287 11.5483C39.4211 11.7585 39.4253 11.9696 39.4305 12.1884C39.4373 12.4064 39.4424 12.6313 39.4612 12.8579C39.526 13.7679 39.6847 14.7506 39.9612 15.7998C40.1045 15.709 40.2453 15.6147 40.3844 15.5169C41.2735 14.8872 42.0833 14.107 42.7889 13.2325C43.1396 12.7965 43.4733 12.3311 43.777 11.8493C43.9298 11.608 44.0714 11.3641 44.2139 11.1115C44.3547 10.8598 44.4887 10.6046 44.6141 10.3459C45.481 8.55624 45.6287 6.56673 45.7387 4.65074C45.7831 3.81082 46.0109 2.97263 46.3693 2.27457C46.7311 1.58256 47.1842 0.934672 47.7243 0.394043C45.9307 0.534174 44.382 0.795406 43.062 1.22272C42.4016 1.43551 41.7983 1.68896 41.2471 1.98133C40.695 2.27457 40.2069 2.60413 39.7632 2.9709C39.5431 3.15428 39.3306 3.34717 39.1386 3.54613C38.9449 3.74594 38.764 3.95354 38.5942 4.16807C38.2504 4.59884 37.9713 5.0547 37.7248 5.53391C37.2478 6.48801 36.9466 7.52688 36.8134 8.56403C36.5319 10.6435 36.8783 12.7161 37.3322 14.2108C37.3886 14.3985 37.4449 14.5776 37.5003 14.748C37.5575 14.9175 37.6172 15.0758 37.6727 15.2263C37.729 15.376 37.7828 15.5161 37.834 15.645C37.8852 15.7739 37.9381 15.8898 37.9841 15.9953C38.078 16.2055 38.1557 16.3707 38.2094 16.4823C38.2632 16.5947 38.2956 16.6527 38.2956 16.6527H38.2964Z" fill="#7367F0"/>
<path d="M39.3447 23.667C39.3447 23.667 39.3302 23.6489 39.3003 23.616C39.2705 23.5831 39.2253 23.5338 39.1672 23.4724C39.1084 23.411 39.0367 23.3357 38.9514 23.2501C38.9087 23.2077 38.8635 23.1619 38.814 23.1143C38.7636 23.0676 38.7099 23.0183 38.6544 22.9672C38.5418 22.8652 38.4172 22.7545 38.2807 22.6394C38.1416 22.5261 37.9906 22.4076 37.8301 22.2865C37.79 22.2562 37.7491 22.2259 37.7081 22.1957C37.6655 22.1662 37.6228 22.136 37.5793 22.1057C37.4922 22.0451 37.4027 21.9855 37.3105 21.9249C37.2183 21.8652 37.1262 21.8038 37.0272 21.7459C36.9291 21.687 36.8293 21.6291 36.7269 21.572C35.9086 21.1135 34.9316 20.7277 33.8812 20.5643C33.7498 20.5444 33.6175 20.5271 33.4844 20.5132C33.3521 20.4994 33.2182 20.489 33.0825 20.4838C32.8112 20.4726 32.539 20.4743 32.2659 20.4933C31.9903 20.5141 31.7139 20.5496 31.4374 20.6032C31.2992 20.63 31.1618 20.6603 31.0236 20.6957C30.8845 20.7321 30.7462 20.7727 30.6072 20.8177C30.5944 20.822 30.5884 20.8238 30.5884 20.8238L30.6072 20.8177C30.6754 20.7978 30.9357 20.7217 31.3487 20.681C31.5551 20.6611 31.8035 20.6473 32.0867 20.6559C32.3666 20.6663 32.6874 20.6949 33.0364 20.7615C33.2105 20.7952 33.3923 20.8367 33.5825 20.8886C33.7737 20.9405 33.9665 21.0054 34.1704 21.0807C34.3752 21.1551 34.5809 21.245 34.795 21.348C34.9017 21.3999 35.0118 21.4535 35.1201 21.5132C35.2285 21.5729 35.3386 21.636 35.4495 21.7026C35.6748 21.835 35.8966 21.9889 36.127 22.1567C36.2431 22.2406 36.3548 22.3315 36.47 22.4249C36.5844 22.5192 36.703 22.6169 36.8173 22.7216C37.2789 23.1385 37.7414 23.6368 38.1894 24.2293C38.0802 24.2699 37.9709 24.3089 37.86 24.3443C37.1492 24.5718 36.3907 24.6929 35.6253 24.7163C35.2439 24.7275 34.8548 24.7163 34.4682 24.6834C34.2745 24.667 34.0843 24.6428 33.8889 24.6159C33.6943 24.5883 33.5015 24.5554 33.3103 24.5165C31.9852 24.2466 30.8546 23.4949 29.7786 22.7536C29.3085 22.4266 28.7632 22.2017 28.2376 22.1074C27.7145 22.0175 27.177 21.9967 26.6599 22.0694C27.4859 21.1378 28.2743 20.3913 29.0568 19.8411C29.4476 19.5652 29.8366 19.3377 30.224 19.156C30.6123 18.9735 30.9945 18.842 31.3768 18.7503C31.5671 18.7054 31.7599 18.669 31.9477 18.6457C32.1362 18.6223 32.3231 18.6093 32.51 18.605C32.8854 18.5955 33.2472 18.6318 33.6081 18.6967C34.3206 18.8325 35.0049 19.1015 35.6185 19.4614C36.854 20.1759 37.8233 21.2355 38.4368 22.1118C38.5136 22.2216 38.587 22.3271 38.6553 22.4292C38.7227 22.5321 38.7824 22.6308 38.8404 22.7242C38.8976 22.8176 38.9496 22.9058 38.9974 22.9889C39.0452 23.071 39.0853 23.1489 39.1229 23.219C39.1971 23.3591 39.2526 23.4707 39.2901 23.5477C39.3276 23.6238 39.3456 23.6662 39.3456 23.6662L39.3447 23.667Z" fill="#7367F0"/>
<path d="M12.8419 40.4058C12.8419 40.4058 12.8641 40.3807 12.911 40.3348C12.958 40.289 13.0262 40.2224 13.1167 40.1376C13.2071 40.0528 13.3181 39.9508 13.4495 39.834C13.5152 39.776 13.5851 39.7137 13.6602 39.6489C13.737 39.5857 13.8189 39.5191 13.9051 39.4482C14.0775 39.3089 14.2686 39.1601 14.476 39.0053C14.6876 38.8522 14.9163 38.6939 15.1603 38.5321C15.2217 38.4924 15.2832 38.4517 15.3454 38.411C15.4094 38.3713 15.4743 38.3315 15.54 38.2917C15.6714 38.2121 15.8071 38.1316 15.9453 38.0529C16.0844 37.9742 16.2235 37.8938 16.3719 37.8177C16.5196 37.7415 16.6697 37.6654 16.8233 37.591C18.0512 36.9959 19.5043 36.521 21.0428 36.3757C21.2356 36.3575 21.4293 36.3445 21.623 36.3359C21.8167 36.3272 22.0121 36.3238 22.2101 36.3272C22.6043 36.3342 23.0002 36.361 23.3953 36.412C23.7946 36.4657 24.1931 36.5426 24.5899 36.6438C24.7878 36.6949 24.9858 36.7511 25.1829 36.8151C25.3817 36.88 25.5797 36.9509 25.7768 37.0279L25.8032 37.0383L25.7768 37.0279C25.6786 36.9924 25.3075 36.8592 24.7119 36.7649C24.4132 36.7174 24.054 36.6767 23.6419 36.6646C23.234 36.656 22.7655 36.6689 22.2527 36.7347C21.9976 36.7684 21.7288 36.8125 21.4481 36.8713C21.1665 36.9293 20.8807 37.008 20.5777 37.0988C20.274 37.1888 19.9677 37.3021 19.6477 37.4327C19.489 37.4985 19.3234 37.5668 19.1613 37.6447C18.9992 37.7216 18.8336 37.8038 18.6664 37.892C18.3277 38.065 17.9932 38.2692 17.6433 38.4932C17.4675 38.6048 17.2977 38.7268 17.122 38.8531C16.9479 38.9802 16.767 39.1117 16.5929 39.2544C15.8864 39.8193 15.1731 40.5035 14.4717 41.3253C14.6261 41.3945 14.7823 41.4602 14.9401 41.5216C15.953 41.9143 17.0452 42.1557 18.1553 42.2569C18.7082 42.3062 19.2748 42.3252 19.8397 42.3096C20.1229 42.3027 20.4011 42.2845 20.687 42.2621C20.9711 42.2396 21.2552 42.2084 21.5368 42.1686C23.4849 41.8918 25.1914 40.8988 26.8178 39.9162C27.5277 39.4819 28.34 39.2025 29.1122 39.1117C29.8802 39.0269 30.6635 39.0434 31.4084 39.1939C30.2872 37.7675 29.2052 36.6144 28.1156 35.7468C27.5712 35.3126 27.026 34.9476 26.4782 34.65C25.9295 34.3507 25.386 34.1267 24.8373 33.9606C24.5643 33.8784 24.2878 33.8083 24.0173 33.759C23.746 33.7089 23.4746 33.6734 23.2033 33.6509C22.658 33.6042 22.1299 33.6258 21.6 33.6881C20.553 33.8231 19.5359 34.1535 18.6144 34.6241C16.7585 35.5548 15.261 37.0089 14.2951 38.2285C14.1739 38.3808 14.0587 38.5287 13.9512 38.6714C13.8454 38.8141 13.749 38.9534 13.6577 39.084C13.5672 39.2155 13.4836 39.3392 13.4068 39.4542C13.33 39.5693 13.2652 39.6791 13.2054 39.7769C13.086 39.9741 12.9955 40.1315 12.9349 40.2397C12.8735 40.3478 12.8445 40.4075 12.8445 40.4075L12.8419 40.4058Z" fill="#7367F0"/>
<path d="M8.06699 43.4359C8.06699 43.4359 8.07041 43.4125 8.07382 43.3675C8.07809 43.3226 8.08321 43.256 8.08833 43.1703C8.09344 43.0847 8.09942 42.98 8.10368 42.8589C8.10624 42.7984 8.10795 42.7335 8.10966 42.6652C8.10966 42.596 8.10966 42.5233 8.10966 42.4463C8.10795 42.2932 8.10368 42.1254 8.09515 41.9455C8.08406 41.7647 8.06785 41.5727 8.04737 41.3711C8.04225 41.3209 8.03627 41.2699 8.03116 41.218C8.02433 41.1661 8.01665 41.1142 8.00982 41.0606C7.99446 40.955 7.97825 40.8469 7.95948 40.7379C7.94071 40.6281 7.92279 40.5182 7.89804 40.4049C7.87415 40.2916 7.84855 40.1783 7.82125 40.0624C7.60196 39.1411 7.2214 38.1498 6.63093 37.2554C6.55669 37.1438 6.4799 37.0331 6.40054 36.9241C6.32119 36.816 6.23842 36.7087 6.15053 36.6032C5.97561 36.393 5.7896 36.1906 5.59249 35.9994C5.39112 35.8074 5.1778 35.6249 4.95253 35.4545C4.8399 35.3688 4.72471 35.2875 4.60525 35.2079C4.48494 35.1284 4.36207 35.0522 4.23578 34.9787L4.21871 34.9683L4.23578 34.9787C4.29722 35.0159 4.5276 35.1595 4.83649 35.4406C4.99093 35.5816 5.16841 35.7581 5.35357 35.9752C5.53532 36.1915 5.73072 36.451 5.9193 36.7563C6.0123 36.9085 6.10531 37.0729 6.19661 37.2502C6.28791 37.4275 6.37068 37.6161 6.4543 37.8194C6.53877 38.0227 6.61216 38.2372 6.68213 38.4673C6.71626 38.5815 6.75209 38.7008 6.78196 38.8219C6.81182 38.943 6.83998 39.0685 6.86643 39.1965C6.9219 39.4543 6.96029 39.7241 6.99357 40.0096C7.01149 40.1532 7.02088 40.2976 7.03026 40.4473C7.03879 40.5969 7.04818 40.7509 7.04903 40.9075C7.05842 41.5337 7.00722 42.2162 6.88009 42.9515C6.77684 42.8978 6.67445 42.8425 6.57376 42.7837C5.92783 42.4065 5.32797 41.9213 4.79297 41.3651C4.5276 41.0874 4.27162 40.7898 4.03526 40.4776C3.9158 40.321 3.80488 40.1636 3.6931 39.9992C3.58217 39.8357 3.47551 39.6688 3.37397 39.4992C2.67514 38.3272 2.45755 36.9743 2.26898 35.669C2.18962 35.0972 1.98398 34.5367 1.69728 34.0808C1.40887 33.6293 1.06074 33.2132 0.658844 32.8759C1.89439 32.8638 2.97037 32.9485 3.89874 33.1613C4.36292 33.2669 4.79126 33.4035 5.18548 33.5705C5.58054 33.7374 5.9338 33.9338 6.25975 34.1578C6.42102 34.2694 6.57803 34.3888 6.72138 34.5142C6.86558 34.6388 7.0021 34.7702 7.13095 34.9069C7.39205 35.1811 7.60964 35.4761 7.80674 35.7892C8.18901 36.4138 8.45694 37.1066 8.60882 37.8081C8.92368 39.2147 8.80849 40.654 8.58664 41.705C8.55933 41.8365 8.53118 41.9628 8.50302 42.083C8.47401 42.2024 8.44244 42.3148 8.41342 42.4204C8.38356 42.5259 8.35455 42.6254 8.32724 42.7162C8.29994 42.8079 8.27007 42.8901 8.24533 42.9653C8.19328 43.115 8.14976 43.2326 8.1199 43.3122C8.09003 43.3918 8.07126 43.4342 8.07126 43.4342L8.06699 43.4359Z" fill="#7367F0"/>
<path d="M23.5647 17.7841C23.5647 17.7841 23.2362 18.3023 22.621 19.2745C22.3146 19.7607 21.9418 20.3644 21.5074 21.0737C21.2899 21.4284 21.0612 21.8133 20.8154 22.2225C20.6934 22.4275 20.568 22.6385 20.4383 22.8565C20.3103 23.0754 20.1789 23.2994 20.0441 23.5304C18.9724 25.3823 17.7104 27.6513 16.4057 30.3155C16.3246 30.4824 16.2436 30.6502 16.1608 30.8198C16.0798 30.9893 15.9987 31.1606 15.9168 31.3336C15.7512 31.6779 15.5908 32.0308 15.4253 32.3872C15.3442 32.5662 15.2632 32.747 15.1813 32.9287C15.0993 33.1103 15.0174 33.2937 14.9372 33.4788C14.8562 33.6639 14.7751 33.8499 14.6932 34.0367C14.6138 34.2253 14.5336 34.4147 14.4526 34.605C13.8109 36.1318 13.1888 37.7537 12.6231 39.4672C12.3433 40.3245 12.0736 41.2033 11.8262 42.1038C11.5821 43.0051 11.3569 43.9272 11.1623 44.8684C10.9686 45.8103 10.8014 46.7705 10.6751 47.7471C10.5488 48.7237 10.4643 49.7158 10.4285 50.7184C10.3944 51.7209 10.4089 52.733 10.4865 53.7459C10.4916 53.8091 10.4942 53.8731 10.5002 53.9362L10.5189 54.1256C10.5317 54.2519 10.5437 54.3791 10.5565 54.5054C10.5676 54.6325 10.5846 54.7588 10.6017 54.8851C10.6188 55.0114 10.635 55.1377 10.6521 55.2649C10.6666 55.392 10.6887 55.5174 10.7092 55.6437C10.7297 55.77 10.7502 55.8963 10.7707 56.0226C10.7894 56.1498 10.8176 56.2743 10.8415 56.3997C10.8662 56.5252 10.891 56.6515 10.9166 56.7769C11.1299 57.7803 11.4157 58.7742 11.7809 59.743C12.1461 60.7127 12.5933 61.6555 13.1146 62.5655C13.1812 62.6788 13.2477 62.7913 13.3143 62.9046C13.3476 62.9608 13.38 63.0188 13.4141 63.0741L13.5208 63.2402C13.5916 63.3509 13.6633 63.4617 13.7341 63.5732C13.7699 63.6286 13.8041 63.6848 13.8425 63.7393L13.9559 63.902C14.1087 64.1173 14.2537 64.3388 14.4193 64.5472C14.4995 64.6528 14.5797 64.7592 14.6599 64.8656L14.7196 64.9451C14.7196 64.9451 14.7555 64.9936 14.7333 64.9633L14.7674 65.0057L14.9048 65.1752L15.0422 65.3448L15.1113 65.4296L15.1454 65.4719L15.177 65.5083L15.427 65.7972C15.4697 65.8456 15.5081 65.8932 15.5541 65.9425L15.6898 66.0904C15.7803 66.189 15.8698 66.2885 15.9611 66.3862C16.1489 66.5765 16.3306 66.7738 16.526 66.958C16.6224 67.0506 16.7171 67.1466 16.8153 67.2374L17.1122 67.5099C17.5115 67.8689 17.922 68.2175 18.3512 68.5427C18.5628 68.7097 18.7838 68.8636 19.0014 69.0228C19.1123 69.0998 19.2241 69.1742 19.3359 69.2512L19.5031 69.3653L19.6738 69.4743C20.5816 70.0608 21.5416 70.572 22.5391 71.0037C23.0382 71.219 23.5485 71.4102 24.0639 71.5884C24.5809 71.7623 25.1057 71.9136 25.6356 72.0477C26.1672 72.1766 26.7039 72.2856 27.244 72.3756C27.785 72.4603 28.3302 72.5269 28.8772 72.5728C31.0667 72.744 33.2929 72.5598 35.4261 72.0105C37.5618 71.469 39.6012 70.5616 41.434 69.348C41.5501 69.2754 41.661 69.1932 41.7745 69.1162C41.8871 69.0384 42.0014 68.9614 42.1107 68.8783L42.4426 68.6344L42.7668 68.381C42.8761 68.2979 42.981 68.2097 43.0868 68.1223C43.1918 68.0341 43.3001 67.9493 43.4025 67.8585L43.7123 67.5869C43.8164 67.4978 43.9145 67.4009 44.0152 67.3083C44.2191 67.1241 44.4102 66.9269 44.6065 66.7357C44.7029 66.638 44.7959 66.5376 44.8915 66.4382L45.034 66.2894L45.1714 66.1363L45.447 65.83L45.7132 65.5161L45.8463 65.3586L45.9752 65.1977L46.2166 64.8967L46.4888 64.536L46.5571 64.446C46.569 64.4305 46.5793 64.4166 46.5878 64.4037L46.616 64.3639L46.7286 64.2056C46.8788 64.0014 47.0307 63.767 47.1825 63.5421C47.4769 63.0845 47.7542 62.6174 48.0111 62.1417C48.2653 61.6642 48.5017 61.178 48.7184 60.6833C48.9309 60.1867 49.1237 59.6833 49.297 59.1738C49.9873 57.1324 50.3303 54.9855 50.402 52.8377C50.4224 52.3005 50.4173 51.7633 50.4071 51.227C50.3943 50.6907 50.3627 50.1553 50.3226 49.6224C50.2339 48.5559 50.0965 47.498 49.9139 46.4539C49.8712 46.1927 49.8175 45.9332 49.7697 45.6737C49.7151 45.415 49.6664 45.1555 49.6084 44.8995C49.4992 44.3848 49.3755 43.8745 49.2492 43.3676C48.9898 42.3555 48.7005 41.3599 48.3865 40.3842C48.0717 39.4084 47.7329 38.4526 47.3771 37.5167C47.0213 36.5807 46.6458 35.6673 46.2627 34.772C45.4896 32.9849 44.6739 31.2817 43.842 29.6685C42.1772 26.4402 40.4673 23.5632 38.8776 21.0564C37.2871 18.5497 35.8135 16.4131 34.5737 14.671C34.2631 14.2359 33.9661 13.8259 33.6846 13.4418C33.4038 13.0569 33.1393 12.6962 32.891 12.3631C32.3935 11.6971 31.9661 11.1331 31.6162 10.6781C30.9157 9.76811 30.5291 9.29236 30.5291 9.29236C30.5291 9.29236 30.9814 9.70497 31.7937 10.5189C32.1999 10.9255 32.6973 11.4315 33.2699 12.037C33.5566 12.3398 33.8637 12.6659 34.188 13.0179C34.5114 13.3709 34.8527 13.7471 35.2111 14.1476C36.6446 15.7496 38.3358 17.7452 40.1669 20.1309C41.9955 22.5174 43.9657 25.2941 45.9018 28.4825C46.8694 30.0767 47.8242 31.7756 48.7372 33.5817C49.6477 35.3896 50.5154 37.3047 51.2859 39.3375C52.0556 41.3694 52.7323 43.5172 53.2246 45.7835C53.35 46.3492 53.4584 46.9236 53.5599 47.5032C53.6581 48.0836 53.7408 48.6718 53.8133 49.2652C53.8808 49.8594 53.9379 50.4589 53.9746 51.0653C53.9857 51.2166 53.9908 51.3689 53.9985 51.5211C54.0062 51.6734 54.013 51.8256 54.0156 51.9787C54.019 52.1318 54.0233 52.2849 54.0267 52.438C54.0267 52.592 54.0284 52.7451 54.0292 52.8991C54.0275 54.1308 53.9499 55.3816 53.7707 56.635C53.6794 57.2613 53.5693 57.8893 53.4302 58.5147C53.2894 59.1392 53.1273 59.7638 52.9353 60.3814C52.7408 60.9981 52.5223 61.6105 52.2792 62.2161C52.0317 62.819 51.7587 63.4141 51.4634 63.9988C51.1631 64.581 50.8371 65.151 50.4915 65.7098C50.1545 66.247 49.7279 66.8637 49.3934 67.3144C49.3976 67.3092 49.3507 67.3724 49.3413 67.3845L49.3038 67.4329L49.2287 67.5307L49.0785 67.7253L48.9275 67.9199C48.8763 67.9839 48.8234 68.0471 48.7713 68.1102L48.4573 68.4908L48.1322 68.8628L47.9693 69.0479L47.8012 69.2287C47.6885 69.3489 47.5776 69.4709 47.4633 69.5902C47.2303 69.8246 47.0025 70.0634 46.7602 70.2892C45.8071 71.2069 44.7669 72.0391 43.6662 72.7821C41.4639 74.2708 38.9962 75.3685 36.4244 76.0267C35.7802 76.1876 35.1309 76.3243 34.4772 76.4359C33.8228 76.5423 33.1649 76.6236 32.5053 76.6807C31.8457 76.7326 31.1836 76.7577 30.5232 76.7577C29.8619 76.7525 29.2023 76.7222 28.5444 76.6677C27.8874 76.608 27.2329 76.5233 26.5836 76.4143C25.9351 76.2984 25.2917 76.1591 24.656 75.9956C24.0212 75.8261 23.3923 75.6358 22.7737 75.4195C22.1568 75.1989 21.5475 74.9576 20.9528 74.6877C19.7633 74.1471 18.6191 73.5148 17.5448 72.7873L17.3426 72.6524L17.1446 72.5114C17.0132 72.4171 16.8801 72.3245 16.7504 72.2285C16.4927 72.0321 16.2325 71.841 15.9833 71.636C15.4782 71.2346 14.9961 70.8073 14.5302 70.3679C14.415 70.2563 14.2998 70.1456 14.1846 70.034C14.0703 69.9215 13.9602 69.8056 13.8484 69.6914C13.6223 69.4657 13.4116 69.2261 13.1957 68.9925C13.0899 68.874 12.9866 68.7529 12.8825 68.6327L12.7272 68.4527C12.6752 68.3931 12.6231 68.3265 12.5711 68.2633C12.467 68.1353 12.3637 68.0081 12.2596 67.8801L12.2212 67.8325L12.188 67.7893L12.1214 67.7028L11.9883 67.5289L11.856 67.3551L11.8228 67.3118C11.7775 67.2538 11.7903 67.2677 11.7716 67.2426L11.7024 67.1466C11.6111 67.0177 11.5198 66.8897 11.4285 66.7608C11.2425 66.5065 11.0761 66.2383 10.9029 65.9762L10.7741 65.779C10.7306 65.7133 10.6922 65.6449 10.6512 65.5775C10.571 65.4425 10.4899 65.3076 10.4097 65.1735L10.2894 64.972C10.2502 64.9036 10.2135 64.8344 10.1759 64.7661C10.1008 64.6286 10.0266 64.491 9.95152 64.3535C8.77485 62.1443 7.99922 59.7724 7.60842 57.4196C7.58538 57.2725 7.56234 57.1255 7.53931 56.9784C7.51712 56.8314 7.49152 56.6852 7.47531 56.5382C7.45739 56.3911 7.43947 56.2449 7.42241 56.0987C7.40534 55.9525 7.38572 55.8064 7.37462 55.6602C7.36182 55.514 7.34988 55.3678 7.33708 55.2225C7.32428 55.0772 7.31148 54.9318 7.30551 54.7865C7.29783 54.6412 7.29015 54.4967 7.28247 54.3514L7.27138 54.1343C7.26796 54.0625 7.26796 53.9898 7.2654 53.918C7.23042 52.765 7.26796 51.6301 7.36438 50.5229C7.55296 48.3059 7.97277 46.1987 8.50777 44.217C8.77656 43.2257 9.07179 42.2629 9.39262 41.3322C9.71431 40.4015 10.0548 39.5001 10.4106 38.6291C10.7638 37.7563 11.1367 36.9163 11.5147 36.1024C11.891 35.2884 12.2801 34.5056 12.6701 33.7487C13.4508 32.2358 14.2461 30.8362 15.026 29.5439C15.2196 29.2204 15.4159 28.9055 15.607 28.595C15.8024 28.287 15.991 27.9826 16.183 27.6876C16.5619 27.0951 16.9364 26.5293 17.3008 25.9904C18.0295 24.9118 18.7215 23.9395 19.3606 23.0728C19.521 22.8565 19.6772 22.6463 19.829 22.4422C19.9818 22.2389 20.1311 22.0417 20.2753 21.8505C20.5663 21.4699 20.8419 21.1153 21.0996 20.7874C21.6141 20.13 22.0612 19.5782 22.4273 19.1353C22.609 18.913 22.772 18.7175 22.9136 18.5497C23.0553 18.3818 23.1739 18.2417 23.2695 18.1275C23.4623 17.9018 23.5621 17.785 23.5621 17.785L23.5647 17.7841Z" fill="#333333"/>
<path d="M48.3677 49.7824C48.296 48.9209 48.1885 48.0524 48.0485 47.1934C48.0084 47.1554 47.9692 47.1165 47.9299 47.0767C46.7942 48.2306 45.2259 48.8837 43.5296 48.8923H43.5236C41.8239 48.8845 40.2539 48.2306 39.1173 47.0767C37.9824 48.2288 36.4175 48.8819 34.7229 48.8923H34.711C33.0138 48.8828 31.448 48.2288 30.314 47.0767C29.1783 48.2297 27.61 48.8837 25.9137 48.8923H25.9077C24.208 48.8845 22.638 48.2306 21.5014 47.0767C20.3657 48.2306 18.7974 48.8837 17.101 48.8923H17.0951C15.4226 48.8845 13.8774 48.2513 12.7451 47.1329C12.699 47.4279 12.6572 47.7185 12.6196 48.0057C12.4985 48.9468 12.4208 49.8836 12.3884 50.7901C12.356 51.7555 12.3739 52.6992 12.4421 53.5928C12.4447 53.6265 12.4464 53.6568 12.4481 53.687C12.449 53.7052 12.4498 53.7225 12.4515 53.7407L12.5096 54.322V54.3367C12.5164 54.4059 12.5292 54.4958 12.542 54.5918L12.5983 55.0209L12.6 55.039C12.6051 55.0875 12.6171 55.1593 12.6299 55.2354L12.7084 55.7172L12.7109 55.7345C12.7152 55.7657 12.7271 55.8253 12.7391 55.8824C12.7476 55.9265 12.757 55.9698 12.7655 56.0139L12.8364 56.3729C13.0326 57.2941 13.2937 58.1894 13.612 59.0336C13.9345 59.89 14.3364 60.7403 14.8049 61.5603C14.8049 61.5603 15.0242 61.934 15.0387 61.9591C15.0489 61.9764 15.0583 61.9937 15.0685 62.0101L15.3723 62.4833C15.3894 62.5101 15.4064 62.5361 15.4235 62.5629C15.4286 62.5707 15.4406 62.5897 15.4406 62.5897L15.5506 62.7471C15.5984 62.8137 15.6453 62.8812 15.6914 62.9495C15.7827 63.081 15.8689 63.2056 15.9474 63.3042L15.9611 63.3215L16.2145 63.6562L16.2717 63.7315L16.6411 64.1882L16.8963 64.4832C16.9167 64.5065 16.9364 64.529 16.956 64.5524C16.9654 64.5636 16.9748 64.5749 16.985 64.5861L17.1241 64.7384C17.1599 64.7773 17.1958 64.8171 17.2316 64.856C17.2751 64.9044 17.3195 64.9529 17.3638 65.0005C17.4227 65.0601 17.4816 65.1207 17.5396 65.1812C17.6531 65.2989 17.7606 65.4105 17.8596 65.5039L17.8724 65.516C17.9125 65.5541 17.9518 65.593 17.9919 65.6319C18.0388 65.6778 18.0857 65.7236 18.1335 65.7686L18.4193 66.0307C18.8238 66.394 19.1847 66.695 19.5226 66.9502L19.5397 66.9632L19.5568 66.977C19.6728 67.0687 19.8068 67.1656 19.9493 67.2676C20.009 67.3109 20.0687 67.3541 20.1285 67.3974C20.1831 67.4354 20.2385 67.4727 20.294 67.5098C20.3392 67.5401 20.3844 67.5704 20.4288 67.6015L20.5688 67.6967L20.7275 67.797C21.5364 68.3195 22.405 68.7831 23.3086 69.1741C23.7088 69.3471 24.1483 69.5158 24.6884 69.7026C25.1338 69.8523 25.5971 69.9872 26.1023 70.1152C26.5707 70.2286 27.0588 70.328 27.5528 70.4102C28.0528 70.4889 28.5512 70.5486 29.0341 70.5893C29.506 70.6265 29.9847 70.6446 30.4591 70.6446C31.983 70.6446 33.4916 70.4552 34.9439 70.0815L34.9499 70.0798C36.8732 69.5919 38.6941 68.7849 40.3614 67.682L40.381 67.669L40.4006 67.6569C40.433 67.6361 40.4834 67.6015 40.5363 67.5643C40.5832 67.5315 40.631 67.4986 40.6788 67.4657L40.7197 67.4372C40.8008 67.381 40.8776 67.3282 40.9365 67.2841L40.9595 67.2668L41.2675 67.0401L41.5909 66.7876C41.6498 66.7434 41.7206 66.6838 41.7957 66.6215L41.8384 66.586C41.8819 66.5497 41.9263 66.5134 41.9698 66.4779C42.0235 66.4338 42.0747 66.3923 42.1097 66.3611L42.4374 66.0739L42.4468 66.0661C42.4775 66.0393 42.5227 65.9969 42.5705 65.952C42.614 65.9104 42.6584 65.8698 42.7028 65.8291L42.7104 65.8222C42.8214 65.7227 42.94 65.6042 43.0654 65.4797C43.12 65.4252 43.1746 65.3715 43.2301 65.3179C43.2779 65.2686 43.3248 65.2193 43.3717 65.17C43.4093 65.1311 43.446 65.0921 43.4835 65.0532L43.6055 64.9261L43.9776 64.5126L44.2241 64.2211L44.3385 64.0861L44.4511 63.9452L44.6755 63.6649L44.9955 63.2402L45.144 63.0308L45.1542 63.017C45.2395 62.9011 45.3368 62.7558 45.4401 62.6009C45.4768 62.5464 45.5135 62.4911 45.5501 62.4374C45.8189 62.0179 46.0672 61.5984 46.2874 61.1918C46.5161 60.7628 46.7294 60.3234 46.9222 59.8839C47.1116 59.4402 47.2866 58.9826 47.4427 58.525C48.0357 56.7717 48.3728 54.834 48.4419 52.771V52.7632C48.4615 52.2529 48.4547 51.7243 48.4462 51.2737C48.4359 50.8308 48.4103 50.3568 48.3677 49.7824Z" fill="#333333"/>
</g>
<defs>
<clipPath id="clip0_72_2549">
<rect width="53.3767" height="76.3636" fill="white" transform="translate(0.656281 0.394043)"/>
</clipPath>
</defs>
</svg>
