<svg width="67" height="67" viewBox="0 0 67 67" fill="none" xmlns="http://www.w3.org/2000/svg">
<g clip-path="url(#clip0_72_2580)">
<path d="M33.4947 10.6862C32.7338 10.6862 32.1161 10.0701 32.1161 9.31112V2.25401C32.1161 1.49503 32.7338 0.878906 33.4947 0.878906C34.2556 0.878906 34.8732 1.49503 34.8732 2.25401V9.31112C34.8732 10.0701 34.2556 10.6862 33.4947 10.6862Z" fill="#7367F0"/>
<path d="M21.3414 13.9336C20.867 13.9336 20.4015 13.6865 20.1479 13.246L16.609 7.13243C16.2271 6.47464 16.4509 5.63529 17.1133 5.25431C17.7697 4.87035 18.6172 5.09953 18.9961 5.75732L22.532 11.8709C22.9139 12.5287 22.6872 13.368 22.0277 13.749C21.8099 13.874 21.5742 13.9336 21.3384 13.9336H21.3414Z" fill="#7367F0"/>
<path d="M12.4465 22.8063C12.2108 22.8063 11.9751 22.7467 11.7573 22.6217L5.62839 19.0947C4.96895 18.7167 4.74218 17.8743 5.12412 17.2165C5.50008 16.5617 6.3475 16.3325 7.00694 16.7135L13.1358 20.2436C13.7952 20.6216 14.022 21.4639 13.6401 22.1217C13.3864 22.5622 12.921 22.8092 12.4465 22.8092V22.8063Z" fill="#7367F0"/>
<path d="M60.6664 50.5734C60.4306 50.5734 60.1949 50.5139 59.9771 50.3889L53.8482 46.8588C53.1888 46.4808 52.962 45.6385 53.344 44.9807C53.7229 44.3259 54.5703 44.0967 55.2268 44.4777L61.3556 48.0047C62.0151 48.3827 62.2419 49.2251 61.8599 49.8829C61.6063 50.3234 61.1408 50.5704 60.6664 50.5704V50.5734Z" fill="#7367F0"/>
<path d="M9.19112 34.9267H2.11637C1.35548 34.9267 0.737823 34.3105 0.737823 33.5514C0.737823 32.7922 1.35548 32.176 2.11637 32.176H9.19112C9.952 32.176 10.5697 32.7922 10.5697 33.5514C10.5697 34.3105 9.952 34.9267 9.19112 34.9267Z" fill="#7367F0"/>
<path d="M64.8671 34.9267H57.7923C57.0315 34.9267 56.4138 34.3105 56.4138 33.5514C56.4138 32.7922 57.0315 32.176 57.7923 32.176H64.8671C65.628 32.176 66.2456 32.7922 66.2456 33.5514C66.2456 34.3105 65.628 34.9267 64.8671 34.9267Z" fill="#7367F0"/>
<path d="M6.31766 50.5732C5.84323 50.5732 5.37774 50.3262 5.12412 49.8857C4.74218 49.2279 4.96895 48.3856 5.62839 48.0076L11.7573 44.4805C12.4167 44.0965 13.2581 44.3257 13.6401 44.9835C14.022 45.6413 13.7952 46.4836 13.1358 46.8616L7.00694 50.3917C6.78911 50.5167 6.55339 50.5762 6.31766 50.5762V50.5732Z" fill="#7367F0"/>
<path d="M54.5375 22.8062C54.0631 22.8062 53.5976 22.5592 53.344 22.1186C52.962 21.4609 53.1888 20.6185 53.8482 20.2405L59.9771 16.7105C60.6335 16.3265 61.478 16.5557 61.8599 17.2135C62.2419 17.8713 62.0151 18.7136 61.3556 19.0916L55.2268 22.6187C55.009 22.7437 54.7732 22.8032 54.5375 22.8032V22.8062Z" fill="#7367F0"/>
<path d="M45.6455 13.9335C45.4098 13.9335 45.174 13.874 44.9562 13.7489C44.2968 13.3709 44.07 12.5286 44.4519 11.8708L47.9908 5.75724C48.3698 5.09945 49.2172 4.87622 49.8736 5.25423C50.5331 5.63223 50.7598 6.47456 50.3779 7.13235L46.839 13.2459C46.5854 13.6864 46.1199 13.9335 45.6455 13.9335Z" fill="#7367F0"/>
<path d="M31.2862 14.4038C22.436 15.383 15.2897 22.5294 14.3259 31.3605C13.4636 39.245 17.3933 46.2783 23.561 49.984C24.5009 50.5495 25.0887 51.5555 25.0887 52.6508V52.6657C25.0887 52.755 25.1603 52.8235 25.2468 52.8235H41.7417C41.8282 52.8235 41.8998 52.752 41.8998 52.6657V52.6479C41.8998 51.5525 42.4876 50.5525 43.4275 49.9869C49.0283 46.6236 52.782 40.516 52.782 33.5214C52.782 22.1723 42.9292 13.118 31.2922 14.4068L31.2862 14.4038Z" fill="#7367F0"/>
<path d="M46.4741 26.1874C46.2443 26.1874 46.0175 26.0713 45.8892 25.863C44.0333 22.8895 41.1717 20.681 37.8328 19.6452C37.4688 19.5321 37.2659 19.1482 37.3793 18.785C37.4926 18.4249 37.8776 18.2166 38.2416 18.3326C41.8968 19.4666 45.0269 21.8835 47.0589 25.1367C47.2588 25.4582 47.1604 25.8838 46.8381 26.0862C46.7247 26.1577 46.5994 26.1904 46.4741 26.1904V26.1874Z" fill="white"/>
<path d="M36.0451 66.334H30.7487C29.3314 66.334 28.1855 65.1879 28.1855 63.7768V63.5893C28.1855 63.4851 28.2691 63.4017 28.3735 63.4017H38.6082C38.7126 63.4017 38.7992 63.4851 38.7992 63.5893C38.7992 65.1075 37.5668 66.337 36.0451 66.337V66.334Z" fill="#333333"/>
<path d="M25.0887 54.148V59.5235C25.0887 61.2289 26.4762 62.613 28.1859 62.613H38.8025C40.5123 62.613 41.8998 61.2289 41.8998 59.5235V54.148C41.8998 54.0587 41.8282 53.9873 41.7387 53.9873H25.2498C25.1603 53.9873 25.0887 54.0587 25.0887 54.148Z" fill="#333333"/>
<path d="M41.8968 55.6719H25.0887V57.0472H41.8968V55.6719Z" fill="url(#paint0_linear_72_2580)"/>
<path d="M41.8968 58.3H25.0887V59.6754H41.8968V58.3Z" fill="url(#paint1_linear_72_2580)"/>
<path d="M38.8055 31.6998C36.9824 31.6998 35.4994 33.1791 35.4994 34.9977V36.9205H31.4831V34.9977C31.4831 33.1791 30.0001 31.6998 28.177 31.6998C26.3539 31.6998 24.8709 33.1791 24.8709 34.9977C24.8709 36.8163 26.3539 38.2956 28.177 38.2956H30.1046V52.8235H31.4831V38.2956H35.5143V52.8235H36.8929V38.2956H38.8055C40.6287 38.2956 42.1117 36.8163 42.1117 34.9977C42.1117 33.1791 40.6287 31.6998 38.8055 31.6998ZM30.1046 36.9175H28.177C27.1147 36.9175 26.2494 36.0543 26.2494 34.9947C26.2494 33.9351 27.1147 33.072 28.177 33.072C29.2393 33.072 30.1046 33.9351 30.1046 34.9947V36.9175ZM38.8055 36.9175H36.878V34.9947C36.878 33.9351 37.7433 33.072 38.8055 33.072C39.8678 33.072 40.7331 33.9351 40.7331 34.9947C40.7331 36.0543 39.8678 36.9175 38.8055 36.9175Z" fill="white"/>
</g>
<defs>
<linearGradient id="paint0_linear_72_2580" x1="25.2767" y1="54.8145" x2="42.8608" y2="58.1368" gradientUnits="userSpaceOnUse">
<stop stop-color="#444242"/>
<stop offset="1" stop-color="#1F1D1D"/>
</linearGradient>
<linearGradient id="paint1_linear_72_2580" x1="25.2767" y1="57.4427" x2="42.8608" y2="60.762" gradientUnits="userSpaceOnUse">
<stop stop-color="#444242"/>
<stop offset="1" stop-color="#1F1D1D"/>
</linearGradient>
<clipPath id="clip0_72_2580">
<rect width="65.5078" height="65.4545" fill="white" transform="translate(0.737823 0.878906)"/>
</clipPath>
</defs>
</svg>
