<svg width="25" height="24" viewBox="0 0 25 24" fill="none" xmlns="http://www.w3.org/2000/svg">
<path d="M6.68259 10V8C6.68259 4.69 7.68096 2 12.6728 2C17.6647 2 18.663 4.69 18.663 8V10" stroke="#828282" stroke-width="1.5" stroke-linecap="round" stroke-linejoin="round"/>
<path d="M12.6728 18.5C14.0513 18.5 15.1687 17.3807 15.1687 16C15.1687 14.6193 14.0513 13.5 12.6728 13.5C11.2944 13.5 10.1769 14.6193 10.1769 16C10.1769 17.3807 11.2944 18.5 12.6728 18.5Z" stroke="#828282" stroke-width="1.5" stroke-linecap="round" stroke-linejoin="round"/>
<path d="M17.6647 22H7.68096C3.68747 22 2.6891 21 2.6891 17V15C2.6891 11 3.68747 10 7.68096 10H17.6647C21.6582 10 22.6565 11 22.6565 15V17C22.6565 21 21.6582 22 17.6647 22Z" stroke="#828282" stroke-width="1.5" stroke-linecap="round" stroke-linejoin="round"/>
</svg>
