<svg width="144" height="51" viewBox="0 0 144 51" fill="none" xmlns="http://www.w3.org/2000/svg">
<g clip-path="url(#clip0_72_1213)">
<path fill-rule="evenodd" clip-rule="evenodd" d="M34.9805 28.1811C36.0472 27.9507 37.1095 28.5805 37.3532 29.5889C37.5977 30.5974 36.9307 31.6008 35.864 31.832C31.8628 32.6988 28.3402 34.1331 25.2961 36.1368C22.9077 37.7087 20.8093 39.6344 18.9994 41.9157C19.5489 42.0698 20.1064 42.2016 20.6691 42.3109C21.9926 42.5678 23.3862 42.7029 24.8342 42.7029C30.5235 42.7029 35.6729 40.5227 39.4007 36.9994C42.7892 33.7959 45.0023 29.4812 45.3766 24.6817C36.6634 22.8065 28.9537 23.7793 22.2494 27.6002C15.0262 31.7168 8.8706 39.148 3.78343 49.8921C3.33817 50.8351 2.16805 51.2585 1.1706 50.8368C0.173146 50.4166 -0.274742 49.3096 0.170517 48.3666C1.96996 44.5665 3.90526 41.1492 5.97905 38.1131C4.33211 36.2495 2.98757 34.134 2.01554 31.8337C0.886613 29.1605 0.265178 26.2553 0.265178 23.2283C0.265178 16.8147 3.01649 11.0076 7.46208 6.80392C11.9085 2.60026 18.0519 0 24.836 0C28.1421 0 31.3071 0.623962 34.2039 1.75588C37.2068 2.9284 39.909 4.64533 42.1695 6.77409C42.9443 7.50246 42.947 8.68741 42.1765 9.41992C41.4061 10.1524 40.1527 10.1566 39.377 9.42738C37.4768 7.63753 35.2119 6.19653 32.699 5.21626C30.2869 4.2741 27.6311 3.75372 24.8351 3.75372C19.1466 3.75372 13.9963 5.93303 10.2686 9.45721C6.54176 12.9814 4.2357 17.8496 4.2357 23.2275C4.2357 25.7938 4.75196 28.2324 5.69156 30.4548C6.36471 32.0491 7.25785 33.5407 8.33594 34.8988C11.9199 30.3579 15.8764 26.8552 20.2037 24.3884C28.2183 19.8201 37.411 18.8183 47.7817 21.3821C48.7047 21.5429 49.405 22.3077 49.405 23.2275C49.405 29.6411 46.6537 35.4482 42.2081 39.6527C37.7625 43.8563 31.6192 46.4558 24.8351 46.4558C23.1592 46.4558 21.5 46.2909 19.8785 45.976C18.2149 45.6537 16.6276 45.1797 15.1349 44.5723V44.569C15.0429 44.5309 14.9517 44.4861 14.8632 44.4331C13.9376 43.882 13.6606 42.7269 14.2426 41.8527C16.6372 38.2689 19.5673 35.338 23.0321 33.0576C26.4881 30.783 30.4709 29.158 34.9805 28.1811Z" fill="#7367F0"/>
</g>
<path d="M74.8467 37.0386C72.743 37.0386 70.9049 36.5604 69.3324 35.6042C67.7599 34.6479 66.538 33.3198 65.6667 31.6198C64.7955 29.8986 64.3599 27.9011 64.3599 25.6273C64.3599 23.3323 64.8061 21.3136 65.6986 19.5711C66.6124 17.8073 67.898 16.4367 69.5555 15.4592C71.2342 14.4604 73.2211 13.9611 75.5161 13.9611C78.1299 13.9611 80.2974 14.5879 82.0186 15.8417C83.7399 17.0954 84.8555 18.8273 85.3655 21.0373H80.8074C80.4674 19.9961 79.8511 19.1886 78.9586 18.6148C78.0661 18.0198 76.9186 17.7223 75.5161 17.7223C73.2849 17.7223 71.5636 18.4342 70.3524 19.8579C69.1411 21.2604 68.5355 23.1942 68.5355 25.6592C68.5355 28.1242 69.1305 30.0367 70.3205 31.3967C71.5317 32.7354 73.168 33.4048 75.2292 33.4048C77.248 33.4048 78.7674 32.8629 79.7874 31.7792C80.8286 30.6742 81.4555 29.2292 81.668 27.4442H76.0261V24.3842H85.7799V36.6561H82.0186L81.6999 33.7236C80.9774 34.7861 80.0742 35.6042 78.9905 36.1779C77.9067 36.7517 76.5255 37.0386 74.8467 37.0386Z" fill="white"/>
<path d="M89.6507 36.6561V20.8461H93.2844L93.6669 23.8104C94.2407 22.7904 95.0163 21.9829 95.9938 21.3879C96.9926 20.7717 98.1613 20.4636 99.5001 20.4636V24.7667H98.3526C97.4601 24.7667 96.6632 24.9048 95.9619 25.1811C95.2607 25.4573 94.7082 25.9354 94.3044 26.6154C93.9219 27.2954 93.7307 28.2411 93.7307 29.4523V36.6561H89.6507Z" fill="white"/>
<path d="M109.595 37.0386C108.065 37.0386 106.683 36.6879 105.451 35.9867C104.24 35.2854 103.273 34.3186 102.55 33.0861C101.849 31.8323 101.498 30.3873 101.498 28.7511C101.498 27.1148 101.86 25.6804 102.582 24.4479C103.305 23.1942 104.272 22.2167 105.483 21.5154C106.715 20.8142 108.097 20.4636 109.627 20.4636C111.135 20.4636 112.495 20.8142 113.707 21.5154C114.939 22.2167 115.906 23.1942 116.607 24.4479C117.33 25.6804 117.691 27.1148 117.691 28.7511C117.691 30.3873 117.33 31.8323 116.607 33.0861C115.906 34.3186 114.939 35.2854 113.707 35.9867C112.474 36.6879 111.103 37.0386 109.595 37.0386ZM109.595 33.5004C110.657 33.5004 111.582 33.1073 112.368 32.3211C113.154 31.5136 113.547 30.3236 113.547 28.7511C113.547 27.1786 113.154 25.9992 112.368 25.2129C111.582 24.4054 110.668 24.0017 109.627 24.0017C108.543 24.0017 107.608 24.4054 106.822 25.2129C106.057 25.9992 105.674 27.1786 105.674 28.7511C105.674 30.3236 106.057 31.5136 106.822 32.3211C107.608 33.1073 108.532 33.5004 109.595 33.5004Z" fill="white"/>
<path d="M123.87 36.6561L119.249 20.8461H123.297L126.038 32.2254L129.225 20.8461H133.752L136.939 32.2254L139.712 20.8461H143.76L139.107 36.6561H134.867L131.489 24.8304L128.11 36.6561H123.87Z" fill="white"/>
<defs>
<clipPath id="clip0_72_1213">
<rect width="49.4063" height="51" fill="white"/>
</clipPath>
</defs>
</svg>
