<svg width="20" height="18" viewBox="0 0 20 18" fill="none" xmlns="http://www.w3.org/2000/svg">
<path fill-rule="evenodd" clip-rule="evenodd" d="M1.39535 5.34884C1.39535 3.85391 1.81896 2.90091 2.45148 2.31358C3.09335 1.71755 4.06044 1.39535 5.34884 1.39535H14.6512C15.9396 1.39535 16.9066 1.71755 17.5485 2.31358C18.181 2.90091 18.6047 3.85391 18.6047 5.34884V11.8605C18.6047 13.3554 18.181 14.3084 17.5485 14.8957C16.9066 15.4918 15.9396 15.814 14.6512 15.814H5.34884C4.06044 15.814 3.09335 15.4918 2.45148 14.8957C1.81896 14.3084 1.39535 13.3554 1.39535 11.8605V5.34884ZM5.34884 0C3.84654 0 2.48804 0.375473 1.50201 1.29107C0.506619 2.21537 0 3.58795 0 5.34884V11.8605C0 13.6213 0.506619 14.9939 1.50201 15.9182C2.48804 16.8338 3.84654 17.2093 5.34884 17.2093H14.6512C16.1535 17.2093 17.512 16.8338 18.498 15.9182C19.4934 14.9939 20 13.6213 20 11.8605V5.34884C20 3.58795 19.4934 2.21537 18.498 1.29107C17.512 0.375473 16.1535 0 14.6512 0H5.34884ZM15.0866 6.35908C15.3877 6.11861 15.4368 5.67961 15.1963 5.37854C14.9559 5.07747 14.5168 5.02835 14.2158 5.26882L11.3047 7.59397C10.6011 8.15382 9.39036 8.15394 8.68653 7.59435L5.78512 5.2695C5.48443 5.02856 5.04535 5.077 4.80441 5.37769C4.56347 5.67838 4.61191 6.11746 4.9126 6.3584L7.81492 8.68399L7.81664 8.68536C9.0291 9.65061 10.9616 9.65061 12.1741 8.68536L15.0866 6.35908Z" fill="#828282"/>
</svg>
