<svg width="26" height="26" viewBox="0 0 26 26" fill="none" xmlns="http://www.w3.org/2000/svg">
<path fill-rule="evenodd" clip-rule="evenodd" d="M20.4511 7.21809C20.0856 7.22588 19.7333 7.35672 19.4513 7.58943L9.52678 15.5589L6.17522 11.087C6.04707 10.9163 5.88655 10.7724 5.70281 10.6637C5.51908 10.555 5.31574 10.4835 5.1044 10.4534C4.89306 10.4233 4.67786 10.4352 4.4711 10.4883C4.26434 10.5414 4.07006 10.6347 3.89936 10.7629C3.72866 10.891 3.58488 11.0516 3.47624 11.2354C3.3676 11.4191 3.29622 11.6225 3.26617 11.8338C3.23613 12.0452 3.24802 12.2605 3.30116 12.4672C3.35429 12.674 3.44763 12.8682 3.57585 13.0389L7.93352 18.8502C8.06428 19.0244 8.22875 19.1706 8.41713 19.28C8.60551 19.3894 8.81396 19.4599 9.0301 19.4871C9.24623 19.5144 9.46564 19.4978 9.67528 19.4385C9.88491 19.3793 10.0805 19.2785 10.2504 19.1422L21.4858 10.1221C21.7541 9.91187 21.9495 9.62262 22.0444 9.29517C22.1392 8.96771 22.1287 8.61873 22.0143 8.29759C21.8999 7.97646 21.6873 7.69943 21.4068 7.50572C21.1263 7.31201 20.7919 7.21133 20.4511 7.21809V7.21809Z" fill="#7367F0"/>
</svg>
