<svg width="35" height="34" viewBox="0 0 35 34" fill="none" xmlns="http://www.w3.org/2000/svg">
<rect opacity="0.1" x="0.573486" width="33.5294" height="33.5294" rx="16.7647" fill="#F4FFFA"/>
<path fill-rule="evenodd" clip-rule="evenodd" d="M16.0887 8.51446C15.8085 8.6021 15.5656 8.77654 15.4079 9.00323C15.279 9.18839 15.231 9.34514 14.9825 10.3903L14.8893 10.7828L14.4826 10.9796C14.2589 11.0877 13.9216 11.2747 13.733 11.395L13.3902 11.6138L12.6653 11.3932C11.8307 11.1392 11.5781 11.1029 11.2601 11.1911C11.0111 11.2602 10.7123 11.4404 10.5911 11.5946C10.3957 11.8432 9.13655 13.9707 9.0833 14.1423C9.00802 14.3847 9.01052 14.6038 9.09145 14.8519C9.18947 15.1524 9.29186 15.2734 9.92255 15.834L10.4985 16.3459L10.4996 17.1821L10.5006 18.0183L9.92416 18.5303C9.6071 18.8118 9.30692 19.0958 9.25703 19.1613C9.14073 19.3141 9.02576 19.6693 9.02576 19.8758C9.02576 19.9643 9.05168 20.1201 9.0834 20.222C9.16398 20.481 10.5001 22.6765 10.6855 22.8544C10.7659 22.9316 10.9363 23.0423 11.0642 23.1004C11.274 23.1958 11.328 23.2057 11.6185 23.2021C11.9116 23.1985 12.0051 23.1781 12.667 22.9738L13.3936 22.7494L13.7319 22.9667C13.9179 23.0863 14.2507 23.2717 14.4714 23.3789C14.6922 23.486 14.8779 23.5778 14.8842 23.5828C14.8905 23.5878 14.9734 23.9198 15.0684 24.3205C15.1635 24.7212 15.26 25.0951 15.283 25.1514C15.355 25.3278 15.5923 25.5968 15.7726 25.7063C16.118 25.9161 16.19 25.9232 17.8472 25.9123L19.3447 25.9023L19.5824 25.7905C19.8589 25.6606 20.1462 25.3833 20.2352 25.1605C20.2673 25.0804 20.3693 24.6943 20.462 24.3024L20.6304 23.5898L21.0275 23.3962C21.246 23.2897 21.5852 23.1006 21.7815 22.9759L22.1383 22.7492L22.8685 22.9749C23.5389 23.1821 23.625 23.2008 23.9213 23.2033C24.2166 23.2058 24.264 23.1966 24.4822 23.0941C24.6326 23.0234 24.7774 22.9211 24.8748 22.8167C25.0437 22.6357 26.3695 20.4569 26.4447 20.2367C26.5156 20.0293 26.4995 19.6551 26.41 19.4318C26.3012 19.1599 26.2054 19.0533 25.5859 18.514L25.034 18.0336V17.1821V16.3307L25.5847 15.85C26.1788 15.3314 26.333 15.1549 26.4293 14.8829C26.5057 14.6671 26.5046 14.2865 26.4271 14.0816C26.3349 13.838 25.0416 11.727 24.8748 11.5479C24.7771 11.443 24.6331 11.3411 24.4822 11.2702C24.2645 11.1679 24.216 11.1584 23.9213 11.1604C23.6241 11.1624 23.5409 11.1804 22.868 11.3885L22.1373 11.6144L21.781 11.388C21.585 11.2635 21.2462 11.0746 21.0281 10.9683L20.6316 10.775L20.4649 10.0678C20.3731 9.67876 20.2708 9.29245 20.2376 9.20927C20.1463 8.98129 19.8613 8.70477 19.5824 8.57371L19.3447 8.46197L17.824 8.45463C16.3965 8.44777 16.2901 8.45142 16.0887 8.51446ZM19.1472 9.58931C19.1722 9.61805 19.285 10.0319 19.3978 10.509C19.5229 11.0377 19.6322 11.4215 19.6778 11.4919C19.7571 11.6143 19.8272 11.655 20.2549 11.8272C20.6234 11.9755 21.0085 12.1915 21.4341 12.4886C21.6673 12.6514 21.8403 12.7469 21.9271 12.7607C22.0345 12.7778 22.2406 12.7279 22.9714 12.5077C23.4722 12.3568 23.9087 12.2333 23.9415 12.2333C23.9743 12.2333 24.0173 12.2525 24.037 12.276C24.0787 12.3256 25.2236 14.2112 25.3101 14.3728C25.3421 14.4326 25.3587 14.5055 25.347 14.5347C25.3352 14.5639 25.0123 14.8662 24.6293 15.2066C24.2464 15.5469 23.9074 15.8766 23.8761 15.9393C23.8264 16.0388 23.8245 16.1 23.8609 16.4214C23.914 16.8889 23.9142 17.4731 23.8616 17.9368C23.8238 18.2703 23.8259 18.3095 23.8884 18.4306C23.9304 18.512 24.2127 18.7897 24.6303 19.1605C25.001 19.4896 25.3194 19.7854 25.3379 19.8179C25.3612 19.8588 25.353 19.911 25.3111 19.9886C25.2182 20.1602 24.0776 22.0399 24.037 22.0883C24.0173 22.1118 23.975 22.1309 23.943 22.1308C23.9109 22.1307 23.478 22.0079 22.9808 21.8578C22.4836 21.7077 22.0446 21.5849 22.0051 21.5849C21.8771 21.5849 21.7097 21.6731 21.3635 21.9228C21.1433 22.0817 20.8415 22.2524 20.5053 22.4083C19.7432 22.7616 19.7421 22.7622 19.6693 22.8798C19.6325 22.9393 19.5095 23.3791 19.396 23.857C19.2826 24.3349 19.17 24.7487 19.1458 24.7766C19.1083 24.8197 18.9035 24.8272 17.7707 24.8272C16.5478 24.8272 16.435 24.8224 16.3843 24.7675C16.354 24.7346 16.2373 24.3162 16.1251 23.8377C16.0128 23.3592 15.9079 22.9445 15.8919 22.9162C15.827 22.8015 15.6753 22.706 15.3269 22.5605C14.8965 22.3809 14.4725 22.1422 14.0513 21.8426C13.8693 21.713 13.6956 21.6175 13.6163 21.6033C13.5081 21.5839 13.3135 21.6308 12.5401 21.8623C11.817 22.0787 11.5819 22.1365 11.5357 22.1093C11.5025 22.0897 11.1793 21.5856 10.8173 20.9891C10.2597 20.0702 10.1642 19.8927 10.1915 19.8267C10.2093 19.7838 10.5323 19.4782 10.9094 19.1477C11.7174 18.4393 11.7365 18.4104 11.6748 17.9871C11.6253 17.6472 11.6253 16.717 11.6748 16.3771C11.7365 15.9539 11.7174 15.925 10.9094 15.2166C10.5323 14.886 10.2091 14.5801 10.1912 14.5368C10.1635 14.4697 10.2562 14.2975 10.817 13.3742C11.1791 12.7781 11.5022 12.2746 11.5349 12.2554C11.5798 12.2289 11.8244 12.2892 12.5382 12.5027C13.3139 12.7347 13.5057 12.7808 13.6149 12.7612C13.6965 12.7466 13.8731 12.6484 14.0725 12.5069C14.5041 12.2005 14.8816 11.9893 15.3277 11.8047C15.8914 11.5714 15.872 11.6024 16.1243 10.5305C16.2409 10.0352 16.3582 9.60897 16.3849 9.58344C16.4242 9.546 16.6908 9.53706 17.7677 9.53706C18.9218 9.53706 19.1079 9.54409 19.1472 9.58931Z" fill="#7367F0"/>
<path d="M20.5072 16.1237C20.1747 15.2758 19.3868 14.57 18.5283 14.351C17.9142 14.1943 17.3256 14.2199 16.7537 14.4281C15.586 14.8532 14.8235 15.9437 14.8235 17.1886C14.8235 17.6607 14.9104 18.0361 15.1203 18.4704C15.6186 19.5014 16.6171 20.1224 17.7691 20.1176C18.5961 20.1142 19.2281 19.8547 19.8091 19.28C20.1541 18.9387 20.3534 18.6455 20.5072 18.2535C20.6614 17.86 20.6911 17.6881 20.6911 17.1886C20.6911 16.6891 20.6614 16.5172 20.5072 16.1237Z" stroke="#7367F0"/>
</svg>
