<svg width="53" height="76" viewBox="0 0 53 76" fill="none" xmlns="http://www.w3.org/2000/svg">
<g clip-path="url(#clip0_72_2563)">
<path d="M46.7892 38.9175C46.1323 26.4729 36.571 13.6888 26.6886 0.818115C16.8062 13.6888 7.24495 26.4729 6.58807 38.9175C6.01877 49.737 12.5584 61.1849 26.6886 61.1849C40.8188 61.1849 47.3584 49.737 46.7892 38.9175Z" fill="#333333"/>
<path d="M32.1402 50.192C18.0173 50.192 11.4704 38.7441 12.0397 27.9246C12.2003 24.8189 12.9228 21.6987 14.0614 18.5569C9.88659 25.4184 6.94523 32.2149 6.59489 38.9247C6.0256 49.7442 12.5652 61.1921 26.6954 61.1921C38.366 61.1921 44.8545 53.3844 46.4384 44.5656C43.1175 47.9747 38.366 50.1992 32.1475 50.1992L32.1402 50.192Z" fill="#4F4F4F"/>
<path d="M27.5571 7.75904C25.7982 8.37297 26.5426 19.9653 31.2722 18.2896C36.0017 16.6212 30.4255 6.7551 27.5571 7.75904Z" fill="#7367F0"/>
<path d="M31.8054 23.6489C31.8419 24.8551 32.6739 25.8301 34.7905 25.5918C36.805 25.3679 37.9362 23.0205 36.8633 21.316C34.7321 17.9502 31.7251 21.2582 31.8054 23.6489Z" fill="#7367F0"/>
<path d="M29.7473 72.8062C29.7473 72.5173 29.8714 72.2861 29.959 71.8889C30.0977 71.2533 30.1853 70.6033 30.448 69.9966C30.9881 68.7326 31.7107 67.5625 32.3384 66.3419C32.4989 66.0241 32.966 66.2986 32.8201 66.6164C32.2727 67.8153 31.5063 69.0071 31.1195 70.271C30.9151 70.9427 30.8494 71.6505 30.6816 72.3295C32.3457 71.3977 33.8419 70.1627 35.4038 69.0865C36.2723 68.487 37.1409 67.8587 38.0021 67.2086C37.9656 65.7063 38.7466 64.2184 39.1772 62.81C39.3013 62.4128 39.929 62.5789 39.8049 62.9834C39.5859 63.7273 39.3524 64.4712 39.0969 65.208C38.9291 65.6919 38.8196 66.1902 38.7028 66.6814C40.4764 65.3235 42.2062 63.8645 43.8265 62.3189C43.644 61.3727 43.9214 60.3616 44.3374 59.5093C44.4761 59.2276 44.8775 59.4732 44.7534 59.7476C44.4615 60.4266 44.3958 61.1416 44.2936 61.8566C45.4176 60.766 46.4832 59.6393 47.4758 58.4692C47.4101 58.4115 47.3663 58.3248 47.4028 58.2309C47.4758 58.0503 47.4685 57.8481 47.5269 57.6531C47.5926 57.422 47.7167 57.2053 47.7167 56.9669C47.7167 56.7214 48.1254 56.6419 48.1692 56.9091C48.213 57.1836 48.1546 57.4292 48.1181 57.6964C48.1984 57.5953 48.286 57.4942 48.3735 57.3931C48.4392 57.3136 48.5195 57.2992 48.6071 57.3136C50.4464 55.024 51.9061 52.6767 52.7017 50.3799C52.7017 50.3799 46.8189 57.7397 35.9731 61.2644C27.2804 64.0884 26.5432 71.535 26.587 74.3879C27.4118 73.8679 28.2657 73.4129 29.1415 73.0662C29.3459 72.9867 29.543 72.8928 29.74 72.8062H29.7473Z" fill="#7367F0"/>
<path d="M48.6215 57.3136C48.7966 57.3497 48.9572 57.5519 48.8258 57.7253C48.3441 58.3609 47.8332 58.982 47.3223 59.5887C47.8697 59.4515 48.439 59.3215 49.001 59.3359C49.2199 59.3359 49.271 59.6537 49.0521 59.7115C48.6579 59.8126 48.3222 60.0221 47.9208 60.1015C47.585 60.1665 47.2785 60.1882 46.9355 60.1738C46.899 60.1738 46.8625 60.1665 46.8333 60.1521C45.5341 61.64 44.1401 63.0484 42.6803 64.3918C43.8554 64.2907 45.0305 64.3123 46.2129 64.3557C46.4537 64.3629 46.4392 64.6951 46.2129 64.7168C44.8188 64.854 43.4248 65.1068 42.0235 64.9985C39.7171 67.0569 37.2355 68.9493 34.6737 70.7116C35.4401 70.6827 36.2283 70.791 36.9947 70.7116C38.0457 70.596 39.0529 70.4588 40.0382 70.076C40.3594 69.9532 40.5783 70.4805 40.2718 70.6249C38.4909 71.4483 35.7612 72.0405 33.8197 71.5422C33.7395 71.5205 33.6811 71.4772 33.6373 71.4266C31.4258 72.9 29.1559 74.2796 26.8787 75.5652C50.2053 79.7904 52.7087 50.3871 52.7087 50.3871C51.9132 52.6839 50.4461 55.0312 48.6142 57.3208L48.6215 57.3136Z" fill="#7367F0"/>
<path d="M23.5141 72.8062C23.5141 72.5173 23.39 72.2861 23.3024 71.8889C23.1637 71.2533 23.0761 70.6033 22.8134 69.9966C22.2733 68.7326 21.5507 67.5625 20.923 66.3419C20.7625 66.0241 20.2954 66.2986 20.4413 66.6164C20.9887 67.8153 21.7551 69.0071 22.1419 70.271C22.3463 70.9427 22.412 71.6505 22.5798 72.3295C20.9157 71.3977 19.4195 70.1627 17.8576 69.0865C16.9891 68.487 16.1205 67.8587 15.2593 67.2086C15.2958 65.7063 14.5148 64.2184 14.0842 62.81C13.9601 62.4128 13.3324 62.5789 13.4565 62.9834C13.6755 63.7273 13.909 64.4712 14.1645 65.208C14.3323 65.6919 14.4418 66.1902 14.5586 66.6814C12.785 65.3235 11.0552 63.8645 9.43493 62.3189C9.61739 61.3727 9.34004 60.3616 8.92402 59.5093C8.78534 59.2276 8.38392 59.4732 8.50799 59.7476C8.80724 60.4266 8.86563 61.1416 8.96781 61.8566C7.84381 60.766 6.77821 59.6393 5.78559 58.4692C5.85128 58.4115 5.89507 58.3248 5.85857 58.2309C5.78559 58.0503 5.79289 57.8481 5.7345 57.6531C5.66881 57.422 5.54473 57.2053 5.54473 56.9669C5.54473 56.7214 5.13601 56.6419 5.09221 56.9091C5.04842 57.1836 5.10681 57.4292 5.1433 57.6964C5.06302 57.5953 4.97544 57.4942 4.88785 57.3931C4.82216 57.3136 4.74188 57.2992 4.65429 57.3136C2.81503 55.024 1.35529 52.6767 0.559738 50.3799C0.559738 50.3799 6.44247 57.7397 17.2883 61.2644C25.981 64.0884 26.7182 71.535 26.6744 74.3879C25.8496 73.8679 24.9957 73.4129 24.1199 73.0662C23.9155 72.9867 23.7184 72.8928 23.5214 72.8062H23.5141Z" fill="#7367F0"/>
<path d="M4.64662 57.3136C4.47145 57.3497 4.31088 57.552 4.44226 57.7253C4.92397 58.3609 5.43488 58.982 5.94578 59.5887C5.39838 59.4515 4.82909 59.3215 4.26709 59.3359C4.04813 59.3359 3.99704 59.6537 4.216 59.7115C4.61013 59.8126 4.94586 60.0221 5.34729 60.1015C5.68303 60.1666 5.98957 60.1882 6.33261 60.1738C6.36911 60.1738 6.4056 60.1666 6.43479 60.1521C7.73396 61.64 9.128 63.0484 10.5877 64.3918C9.41265 64.2907 8.23757 64.3123 7.05518 64.3557C6.81432 64.3629 6.82892 64.6951 7.05518 64.7168C8.44923 64.854 9.84327 65.1068 11.2446 64.9985C13.551 67.0569 16.0325 68.9493 18.5944 70.7116C17.828 70.6827 17.0398 70.791 16.2734 70.7116C15.2224 70.596 14.2152 70.4588 13.2299 70.076C12.9087 69.9532 12.6898 70.4805 12.9963 70.6249C14.7772 71.4483 17.5069 72.0406 19.4483 71.5422C19.5286 71.5205 19.587 71.4772 19.6308 71.4266C21.8423 72.9001 24.1122 74.2796 26.3894 75.5652C3.05551 79.7832 0.552063 50.3799 0.552063 50.3799C1.34762 52.6767 2.81465 55.024 4.64662 57.3136Z" fill="#7367F0"/>
</g>
<defs>
<clipPath id="clip0_72_2563">
<rect width="52.1636" height="75.1515" fill="white" transform="translate(0.552063 0.818115)"/>
</clipPath>
</defs>
</svg>
